<svg width="49" height="48" viewBox="0 0 49 48" fill="none" xmlns="http://www.w3.org/2000/svg">
<path d="M32.3481 21.75C31.8839 21.7513 31.4315 21.8961 31.0528 22.1647C30.6742 22.4332 30.3879 22.8123 30.2331 23.25H28.5306C28.4226 22.5841 28.1663 21.9509 27.7806 21.3975L28.9806 20.19C29.283 20.3342 29.6131 20.411 29.9481 20.415C30.5447 20.4144 31.1166 20.1771 31.5381 19.755C31.831 19.4638 32.038 19.0977 32.1367 18.6967C32.2353 18.2957 32.2217 17.8753 32.0973 17.4816C31.9729 17.0878 31.7425 16.7359 31.4315 16.4643C31.1204 16.1928 30.7406 16.012 30.3336 15.942C29.9267 15.8719 29.5083 15.9152 29.1243 16.067C28.7403 16.2189 28.4055 16.4735 28.1566 16.803C27.9076 17.1325 27.7542 17.5241 27.713 17.935C27.6718 18.3459 27.7445 18.7602 27.9231 19.1325L26.7156 20.3325C26.1621 19.9468 25.529 19.6905 24.8631 19.5825V17.865C25.3635 17.6881 25.7853 17.3399 26.0538 16.8821C26.3224 16.4243 26.4205 15.8863 26.3307 15.3632C26.241 14.8401 25.9692 14.3655 25.5634 14.0234C25.1576 13.6813 24.6439 13.4937 24.1131 13.4937C23.5824 13.4937 23.0687 13.6813 22.6629 14.0234C22.2571 14.3655 21.9853 14.8401 21.8955 15.3632C21.8058 15.8863 21.9038 16.4243 22.1724 16.8821C22.441 17.3399 22.8627 17.6881 23.3631 17.865V19.5675C22.6972 19.6755 22.0641 19.9318 21.5106 20.3175L20.3031 19.1175C20.5035 18.6984 20.5692 18.2276 20.4913 17.7697C20.4134 17.3118 20.1957 16.8892 19.8681 16.56C19.6065 16.2981 19.2844 16.1047 18.9302 15.9971C18.576 15.8895 18.2008 15.871 17.8377 15.9431C17.4747 16.0152 17.135 16.1758 16.8489 16.4106C16.5627 16.6454 16.3389 16.9472 16.1973 17.2892C16.0557 17.6312 16.0006 18.0029 16.037 18.3712C16.0734 18.7396 16.2002 19.0933 16.406 19.4009C16.6118 19.7086 16.8903 19.9608 17.2169 20.135C17.5434 20.3093 17.908 20.4003 18.2781 20.4C18.6131 20.396 18.9432 20.3192 19.2456 20.175L20.4456 21.3825C20.0599 21.9359 19.8036 22.5691 19.6956 23.235H17.9631C17.7862 22.7346 17.4381 22.3128 16.9803 22.0442C16.5224 21.7757 15.9844 21.6776 15.4613 21.7674C14.9382 21.8571 14.4636 22.1289 14.1215 22.5347C13.7794 22.9405 13.5918 23.4542 13.5918 23.985C13.5918 24.5157 13.7794 25.0294 14.1215 25.4352C14.4636 25.841 14.9382 26.1128 15.4613 26.2026C15.9844 26.2923 16.5224 26.1943 16.9803 25.9257C17.4381 25.6571 17.7862 25.2354 17.9631 24.735H19.6656C19.7736 25.4009 20.0299 26.034 20.4156 26.5875L19.2156 27.795C18.7966 27.5946 18.3258 27.5289 17.8679 27.6068C17.41 27.6847 16.9874 27.9024 16.6581 28.23C16.3653 28.5211 16.1582 28.8872 16.0596 29.2882C15.9609 29.6892 15.9746 30.1096 16.0989 30.5034C16.2233 30.8971 16.4537 31.2491 16.7648 31.5206C17.0759 31.7922 17.4557 31.9729 17.8626 32.043C18.2696 32.1131 18.688 32.0698 19.072 31.9179C19.456 31.766 19.7907 31.5114 20.0397 31.1819C20.2886 30.8525 20.4421 30.4608 20.4832 30.05C20.5244 29.6391 20.4517 29.2248 20.2731 28.8525L21.4806 27.6525C22.0341 28.0382 22.6672 28.2945 23.3331 28.4025V30.105C22.8327 30.2819 22.411 30.63 22.1424 31.0878C21.8738 31.5456 21.7758 32.0837 21.8655 32.6068C21.9553 33.1299 22.2271 33.6044 22.6329 33.9466C23.0387 34.2887 23.5524 34.4763 24.0831 34.4763C24.6139 34.4763 25.1276 34.2887 25.5334 33.9466C25.9392 33.6044 26.211 33.1299 26.3007 32.6068C26.3905 32.0837 26.2924 31.5456 26.0238 31.0878C25.7553 30.63 25.3335 30.2819 24.8331 30.105V28.4325C25.499 28.3245 26.1321 28.0682 26.6856 27.6825L27.8931 28.8825C27.6928 29.3015 27.627 29.7723 27.7049 30.2302C27.7828 30.6881 28.0005 31.1107 28.3281 31.44C28.6193 31.7328 28.9854 31.9399 29.3864 32.0385C29.7873 32.1372 30.2077 32.1235 30.6015 31.9991C30.9953 31.8748 31.3472 31.6444 31.6188 31.3333C31.8903 31.0222 32.071 30.6424 32.1411 30.2355C32.2112 29.8285 32.1679 29.4101 32.0161 29.0261C31.8642 28.6421 31.6096 28.3073 31.2801 28.0584C30.9506 27.8095 30.559 27.656 30.1481 27.6149C29.7372 27.5737 29.3229 27.6464 28.9506 27.825L27.7506 26.6175C28.1363 26.064 28.3926 25.4309 28.5006 24.765H30.2031C30.3427 25.1511 30.5854 25.4916 30.9047 25.7497C31.224 26.0078 31.6079 26.1736 32.0147 26.2291C32.4215 26.2846 32.8357 26.2278 33.2125 26.0648C33.5893 25.9017 33.9144 25.6387 34.1524 25.3041C34.3904 24.9696 34.5323 24.5763 34.5628 24.1668C34.5933 23.7574 34.5111 23.3474 34.3253 22.9813C34.1394 22.6152 33.857 22.3069 33.5084 22.0899C33.1599 21.8728 32.7587 21.7553 32.3481 21.75Z" fill="#155B75"/>
<path d="M37.5976 24.7499H40.7401C40.9227 25.4569 41.3568 26.0731 41.9611 26.4829C42.5655 26.8927 43.2985 27.068 44.0229 26.976C44.7472 26.884 45.4132 26.531 45.8959 25.9831C46.3786 25.4352 46.6449 24.7301 46.6449 23.9999C46.6449 23.2698 46.3786 22.5646 45.8959 22.0168C45.4132 21.4689 44.7472 21.1159 44.0229 21.0238C43.2985 20.9318 42.5655 21.1072 41.9611 21.517C41.3568 21.9268 40.9227 22.5429 40.7401 23.2499H37.5976C37.4248 20.1863 36.2072 17.2745 34.1476 14.9999L38.2126 10.9349C39.2759 11.729 40.6004 12.0909 41.9197 11.948C43.239 11.805 44.4552 11.1677 45.3237 10.1643C46.1921 9.16088 46.6484 7.86582 46.6007 6.53964C46.5529 5.21346 46.0047 3.95457 45.0664 3.01621C44.128 2.07785 42.8691 1.52966 41.5429 1.48192C40.2168 1.43417 38.9217 1.89042 37.9183 2.75888C36.9149 3.62733 36.2776 4.84355 36.1346 6.16286C35.9916 7.48217 36.3536 8.80669 37.1476 9.86994L33.0976 13.9499C30.8178 11.904 27.9065 10.6999 24.8476 10.5374V7.39494C25.5546 7.21239 26.1708 6.77827 26.5806 6.17393C26.9904 5.5696 27.1657 4.83655 27.0737 4.11219C26.9817 3.38783 26.6287 2.72189 26.0808 2.2392C25.5329 1.75651 24.8278 1.4902 24.0976 1.4902C23.3674 1.4902 22.6623 1.75651 22.1145 2.2392C21.5666 2.72189 21.2135 3.38783 21.1215 4.11219C21.0295 4.83655 21.2049 5.5696 21.6147 6.17393C22.0245 6.77827 22.6406 7.21239 23.3476 7.39494V10.5374C20.2887 10.6999 17.3775 11.904 15.0976 13.9499L11.0476 9.88494C11.8417 8.82169 12.2036 7.49717 12.0606 6.17786C11.9177 4.85855 11.2804 3.64233 10.277 2.77388C9.27357 1.90542 7.97851 1.44917 6.65233 1.49692C5.32615 1.54466 4.06725 2.09285 3.1289 3.03121C2.19054 3.96956 1.64235 5.22846 1.59461 6.55464C1.54686 7.88082 2.00311 9.17588 2.87157 10.1793C3.74002 11.1827 4.95624 11.82 6.27555 11.963C7.59486 12.1059 8.91938 11.744 9.98263 10.9499L14.0476 14.9999C12.0017 17.2798 10.7975 20.191 10.6351 23.2499H7.49263C7.31008 22.5429 6.87596 21.9268 6.27162 21.517C5.66729 21.1072 4.93424 20.9318 4.20988 21.0238C3.48552 21.1159 2.81958 21.4689 2.33689 22.0168C1.8542 22.5646 1.58789 23.2698 1.58789 23.9999C1.58789 24.7301 1.8542 25.4352 2.33689 25.9831C2.81958 26.531 3.48552 26.884 4.20988 26.976C4.93424 27.068 5.66729 26.8927 6.27162 26.4829C6.87596 26.0731 7.31008 25.4569 7.49263 24.7499H10.6351C10.7975 27.8089 12.0017 30.7201 14.0476 32.9999L9.98263 37.0499C8.91938 36.2559 7.59486 35.8939 6.27555 36.0369C4.95624 36.1799 3.74002 36.8172 2.87157 37.8206C2.00311 38.824 1.54686 40.1191 1.59461 41.4452C1.64235 42.7714 2.19054 44.0303 3.1289 44.9687C4.06725 45.907 5.32615 46.4552 6.65233 46.503C7.97851 46.5507 9.27357 46.0945 10.277 45.226C11.2804 44.3575 11.9177 43.1413 12.0606 41.822C12.2036 40.5027 11.8417 39.1782 11.0476 38.1149L15.0976 34.0499C17.3722 36.1095 20.284 37.3271 23.3476 37.4999V40.6424C22.6406 40.825 22.0245 41.2591 21.6147 41.8634C21.2049 42.4678 21.0295 43.2008 21.1215 43.9252C21.2135 44.6496 21.5666 45.3155 22.1145 45.7982C22.6623 46.2809 23.3674 46.5472 24.0976 46.5472C24.8278 46.5472 25.5329 46.2809 26.0808 45.7982C26.6287 45.3155 26.9817 44.6496 27.0737 43.9252C27.1657 43.2008 26.9904 42.4678 26.5806 41.8634C26.1708 41.2591 25.5546 40.825 24.8476 40.6424V37.4999C27.9112 37.3271 30.823 36.1095 33.0976 34.0499L37.1626 38.1149C36.3686 39.1782 36.0066 40.5027 36.1496 41.822C36.2926 43.1413 36.9299 44.3575 37.9333 45.226C38.9367 46.0945 40.2318 46.5507 41.5579 46.503C42.8841 46.4552 44.143 45.907 45.0814 44.9687C46.0197 44.0303 46.5679 42.7714 46.6157 41.4452C46.6634 40.1191 46.2071 38.824 45.3387 37.8206C44.4702 36.8172 43.254 36.1799 41.9347 36.0369C40.6154 35.8939 39.2909 36.2559 38.2276 37.0499L34.1476 32.9999C36.2072 30.7253 37.4248 27.8135 37.5976 24.7499ZM24.0976 35.9999C21.7243 35.9999 19.4042 35.2962 17.4308 33.9776C15.4574 32.659 13.9193 30.7849 13.0111 28.5921C12.1028 26.3994 11.8652 23.9866 12.3282 21.6589C12.7912 19.3311 13.9341 17.1929 15.6123 15.5147C17.2906 13.8364 19.4288 12.6935 21.7565 12.2305C24.0843 11.7675 26.4971 12.0051 28.6898 12.9134C30.8825 13.8216 32.7567 15.3597 34.0753 17.3331C35.3938 19.3065 36.0976 21.6266 36.0976 23.9999C36.0976 27.1825 34.8333 30.2348 32.5829 32.4852C30.3325 34.7357 27.2802 35.9999 24.0976 35.9999Z" fill="#155B75"/>
</svg>
