<svg width="48" height="48" viewBox="0 0 48 48" fill="none" xmlns="http://www.w3.org/2000/svg">
<path d="M48 25.5C48 23.1431 46.9065 21.036 45.2006 19.6597C46.0042 18.8468 46.5 17.7304 46.5 16.5C46.5 11.1739 42.5126 6.76088 37.3669 6.0885C36.7046 2.62575 33.6533 0 30 0C27.5494 0 25.3695 1.18125 24 3.0045C22.6305 1.18125 20.4506 0 18 0C14.3468 0 11.2954 2.62575 10.6331 6.0885C5.48737 6.76088 1.5 11.1739 1.5 16.5C1.5 17.7304 1.99575 18.8468 2.79938 19.6597C1.0935 21.036 0 23.1431 0 25.5C0 28.2743 1.51463 30.7024 3.76013 31.9995C3.2805 32.715 3 33.5756 3 34.5C3 36.4965 4.3065 38.193 6.10913 38.7803C6.65175 41.9224 9.1575 44.4015 12.3127 44.9062C13.1205 46.6815 15.3986 48 18 48C20.2714 48 22.5585 47.2346 24 45.7455C25.4415 47.2346 27.7286 48 30 48C32.6017 48 34.8795 46.6815 35.6872 44.9062C38.8425 44.4015 41.3483 41.9224 41.8909 38.7803C43.6935 38.193 45 36.4965 45 34.5C45 33.5756 44.7195 32.715 44.2399 31.9995C46.4854 30.7024 48 28.2743 48 25.5ZM18 45C16.1644 45 15 43.9451 15 43.5C15 41.8455 16.3455 40.5 18 40.5C18.8284 40.5 19.5 39.8284 19.5 39C19.5 38.1716 18.8284 37.5 18 37.5C15.2831 37.5 13.0084 39.327 12.2726 41.8084C10.3901 41.2702 9 39.5531 9 37.5C9 36.6716 8.32837 36 7.5 36C6.67313 36 6 35.3269 6 34.5C6 33.6731 6.67313 33 7.5 33C11.6351 33 15 29.6351 15 25.5C15 24.6716 14.3284 24 13.5 24C12.6716 24 12 24.6716 12 25.5C12 27.9814 9.98137 30 7.5 30C5.01862 30 3 27.9814 3 25.5C3 23.0186 5.01862 21 7.5 21C8.32837 21 9 20.3284 9 19.5C9 18.6716 8.32837 18 7.5 18H6C5.17313 18 4.5 17.3269 4.5 16.5C4.5 12.3649 7.86487 9 12 9C14.4814 9 16.5 11.0186 16.5 13.5C16.5 14.3284 17.1716 15 18 15C18.8284 15 19.5 14.3284 19.5 13.5C19.5 9.95512 17.0205 6.993 13.7096 6.21488C14.2665 4.362 15.9683 3 18 3C20.4814 3 22.5 5.01862 22.5 7.5V42C22.5 44.373 19.5562 45 18 45ZM40.5 30C38.0186 30 36 27.9814 36 25.5C36 24.6716 35.3284 24 34.5 24C33.6716 24 33 24.6716 33 25.5C33 29.6351 36.3649 33 40.5 33C41.3269 33 42 33.6731 42 34.5C42 35.3269 41.3269 36 40.5 36C39.6716 36 39 36.6716 39 37.5C39 39.5531 37.6099 41.2702 35.7274 41.8084C34.9916 39.327 32.7169 37.5 30 37.5C29.1716 37.5 28.5 38.1716 28.5 39C28.5 39.8284 29.1716 40.5 30 40.5C31.6545 40.5 33 41.8455 33 43.5C33 43.9455 31.8356 45 30 45C28.4438 45 25.5 44.373 25.5 42V7.5C25.5 5.01862 27.5186 3 30 3C32.0317 3 33.7335 4.362 34.2904 6.21488C30.9795 6.993 28.5 9.95512 28.5 13.5C28.5 14.3284 29.1716 15 30 15C30.8284 15 31.5 14.3284 31.5 13.5C31.5 11.0186 33.5186 9 36 9C40.1351 9 43.5 12.3649 43.5 16.5C43.5 17.3269 42.8269 18 42 18H40.5C39.6716 18 39 18.6716 39 19.5C39 20.3284 39.6716 21 40.5 21C42.9814 21 45 23.0186 45 25.5C45 27.9814 42.9814 30 40.5 30Z" fill="#05603A"/>
</svg>
