<svg width="49" height="49" viewBox="0 0 49 49" fill="none" xmlns="http://www.w3.org/2000/svg">
<g clip-path="url(#clip0_8968_16715)">
<mask id="mask0_8968_16715" style="mask-type:luminance" maskUnits="userSpaceOnUse" x="0" y="0" width="49" height="49">
<path d="M0.833984 0.333485H48.834V48.3335H0.833984V0.333485Z" fill="white"/>
</mask>
<g mask="url(#mask0_8968_16715)">
<path d="M24.832 35.5835C20.1793 35.5835 16.3945 31.7987 16.3945 27.146C16.3945 22.4933 20.1793 18.7085 24.832 18.7085C29.4848 18.7085 33.2695 22.4933 33.2695 27.146C33.2695 31.7987 29.4848 35.5835 24.832 35.5835Z" stroke="#FCC101" stroke-width="2.8125" stroke-miterlimit="10"/>
<path d="M27.6445 27.146C27.6445 28.6993 26.3853 29.9585 24.832 29.9585C23.2788 29.9585 22.0195 28.6993 22.0195 27.146C22.0195 25.5927 23.2788 24.3335 24.832 24.3335C26.3853 24.3335 27.6445 25.5927 27.6445 27.146Z" stroke="#FCC101" stroke-width="2.8125" stroke-miterlimit="10"/>
<path d="M33.2695 6.05224C33.2695 9.93546 30.1215 13.0835 26.2383 13.0835H24.457" stroke="#FCC101" stroke-width="2.8125" stroke-miterlimit="10"/>
<path d="M38.8955 8.86473C38.8955 11.5475 37.393 13.8794 35.1836 15.0647" stroke="#FCC101" stroke-width="2.8125" stroke-miterlimit="10"/>
<path d="M44.5203 11.6771C44.5203 14.3106 43.0726 16.6059 40.9297 17.8105" stroke="#FCC101" stroke-width="2.8125" stroke-miterlimit="10"/>
<path d="M1.74414 22.7544C6.3212 18.8611 14.8256 13.0835 24.8329 13.0835C34.8401 13.0835 43.3445 18.8611 47.9216 22.7544" stroke="#FCC101" stroke-width="2.8125" stroke-miterlimit="10"/>
<path d="M24.8332 41.2085C12.4068 41.2085 2.69141 29.9585 2.69141 29.9585C2.69141 29.9585 12.4068 18.7085 24.8332 18.7085C37.2596 18.7085 46.9752 29.9585 46.9752 29.9585C46.9752 29.9585 37.2596 41.2085 24.8332 41.2085Z" stroke="#FCC101" stroke-width="2.8125" stroke-miterlimit="10"/>
</g>
</g>
<defs>
<clipPath id="clip0_8968_16715">
<rect width="48" height="48" fill="white" transform="translate(0.832031 0.333496)"/>
</clipPath>
</defs>
</svg>
