<svg width="46" height="46" viewBox="0 0 46 46" fill="none" xmlns="http://www.w3.org/2000/svg">
<mask id="path-1-inside-1_8968_423" fill="white">
<path d="M34.25 45.9355C34.664 45.9355 35 45.5995 35 45.1855V39.493L40.0565 35.53C40.6895 35.026 41.537 34.0375 41.8685 33.2515L45.4385 24.952C45.479 24.859 45.5 24.757 45.5 24.655V17.4265C45.5 16.4935 44.4425 15.805 43.421 15.6805C42.155 15.517 40.5635 16.2055 39.9635 18.601C39.6545 19.8445 39.5855 20.896 39.524 21.823C39.4955 22.2355 39.8075 22.624 40.2215 22.651C40.6355 22.6795 40.991 22.396 41.0165 21.9835C41.078 21.0565 41.1425 20.077 41.42 18.9625C41.609 18.2095 42.014 17.284 42.8795 17.1685C43.4585 17.086 43.943 17.3965 44.0225 17.5375L44 24.5005L40.4885 32.665C40.2695 33.1885 39.5885 33.985 39.1265 34.354L33.7865 38.539C33.605 38.68 33.5 38.8975 33.5 39.1285V45.1855C33.5 45.5995 33.836 45.9355 34.25 45.9355Z"/>
</mask>
<path d="M34.25 45.9355C34.664 45.9355 35 45.5995 35 45.1855V39.493L40.0565 35.53C40.6895 35.026 41.537 34.0375 41.8685 33.2515L45.4385 24.952C45.479 24.859 45.5 24.757 45.5 24.655V17.4265C45.5 16.4935 44.4425 15.805 43.421 15.6805C42.155 15.517 40.5635 16.2055 39.9635 18.601C39.6545 19.8445 39.5855 20.896 39.524 21.823C39.4955 22.2355 39.8075 22.624 40.2215 22.651C40.6355 22.6795 40.991 22.396 41.0165 21.9835C41.078 21.0565 41.1425 20.077 41.42 18.9625C41.609 18.2095 42.014 17.284 42.8795 17.1685C43.4585 17.086 43.943 17.3965 44.0225 17.5375L44 24.5005L40.4885 32.665C40.2695 33.1885 39.5885 33.985 39.1265 34.354L33.7865 38.539C33.605 38.68 33.5 38.8975 33.5 39.1285V45.1855C33.5 45.5995 33.836 45.9355 34.25 45.9355Z" fill="#6425D3"/>
<path d="M35 39.493L31.9157 35.5577L30 37.0591V39.493H35ZM40.0565 35.53L43.1408 39.4654L43.1559 39.4536L43.1709 39.4416L40.0565 35.53ZM41.8685 33.2515L37.2754 31.2758L37.2684 31.2921L37.2615 31.3085L41.8685 33.2515ZM45.4385 24.952L40.8543 22.9557L40.8498 22.966L40.8454 22.9763L45.4385 24.952ZM43.421 15.6805L42.7806 20.6394L42.7983 20.6416L42.8161 20.6438L43.421 15.6805ZM39.9635 18.601L35.1133 17.3862L35.1111 17.3953L39.9635 18.601ZM39.524 21.823L44.5121 22.1677L44.513 22.154L39.524 21.823ZM40.2215 22.651L40.5649 17.6628L40.5559 17.6622L40.5469 17.6616L40.2215 22.651ZM41.0165 21.9835L36.0275 21.6526L36.0267 21.6638L36.026 21.675L41.0165 21.9835ZM41.42 18.9625L36.5704 17.7453L36.5681 17.7545L41.42 18.9625ZM42.8795 17.1685L43.5409 22.1246L43.5629 22.1217L43.5848 22.1185L42.8795 17.1685ZM44.0225 17.5375L49.0225 17.5537L49.0267 16.2326L48.3779 15.0818L44.0225 17.5375ZM44 24.5005L48.5932 26.476L48.9967 25.5379L49 24.5167L44 24.5005ZM40.4885 32.665L35.8953 30.6895L35.8855 30.7124L35.8759 30.7354L40.4885 32.665ZM39.1265 34.354L42.2107 38.2895L42.2289 38.2752L42.2469 38.2609L39.1265 34.354ZM33.7865 38.539L36.8539 42.4876L36.8623 42.481L36.8707 42.4745L33.7865 38.539ZM34.25 50.9355C37.4254 50.9355 40 48.361 40 45.1855H30C30 42.8381 31.9026 40.9355 34.25 40.9355V50.9355ZM40 45.1855V39.493H30V45.1855H40ZM38.0843 43.4284L43.1408 39.4654L36.9722 31.5947L31.9157 35.5577L38.0843 43.4284ZM43.1709 39.4416C44.26 38.5744 45.733 36.9552 46.4755 35.1946L37.2615 31.3085C37.294 31.2314 37.3193 31.1834 37.3288 31.1659C37.339 31.1473 37.3408 31.1456 37.3311 31.1607C37.3097 31.194 37.2653 31.2572 37.1979 31.34C37.1318 31.4213 37.0628 31.4975 37.0025 31.5585C36.9377 31.6241 36.9139 31.6409 36.9421 31.6185L43.1709 39.4416ZM46.4616 35.2272L50.0316 26.9277L40.8454 22.9763L37.2754 31.2758L46.4616 35.2272ZM50.0227 26.9484C50.3414 26.2165 50.5 25.434 50.5 24.655H40.5C40.5 24.0801 40.6166 23.5016 40.8543 22.9557L50.0227 26.9484ZM50.5 24.655V17.4265H40.5V24.655H50.5ZM50.5 17.4265C50.5 14.9215 49.0697 13.2012 47.9093 12.3005C46.7401 11.393 45.3502 10.8787 44.0259 10.7173L42.8161 20.6438C42.5133 20.6069 42.1629 20.4991 41.7778 20.2002C41.4016 19.9082 40.5 18.9986 40.5 17.4265H50.5ZM44.0614 10.7217C42.2887 10.4928 40.2828 10.8641 38.5349 12.1135C36.7618 13.3809 35.6443 15.2664 35.1133 17.3862L44.8137 19.8159C44.8827 19.5402 44.8609 19.8837 44.3501 20.2489C43.8645 20.596 43.2873 20.7048 42.7806 20.6394L44.0614 10.7217ZM35.1111 17.3953C34.684 19.114 34.5966 20.5635 34.535 21.4921L44.513 22.154C44.5744 21.2286 44.625 20.5751 44.8159 19.8068L35.1111 17.3953ZM34.5359 21.4784C34.3335 24.4083 36.4801 27.4177 39.8961 27.6404L40.5469 17.6616C43.1349 17.8304 44.6575 20.0628 44.5121 22.1677L34.5359 21.4784ZM39.8781 27.6392C42.779 27.8389 45.7933 25.748 46.007 22.292L36.026 21.675C36.1887 19.0441 38.492 17.5201 40.5649 17.6628L39.8781 27.6392ZM46.0055 22.3145C46.0683 21.3691 46.115 20.8007 46.2719 20.1706L36.5681 17.7545C36.17 19.3533 36.0877 20.744 36.0275 21.6526L46.0055 22.3145ZM46.2696 20.1798C46.2963 20.0732 46.2634 20.2986 46.0199 20.6538C45.732 21.0738 44.9367 21.9383 43.5409 22.1246L42.2181 12.2125C39.9568 12.5143 38.5263 13.8993 37.7722 14.9991C37.0626 16.0342 36.7327 17.0989 36.5704 17.7453L46.2696 20.1798ZM43.5848 22.1185C42.8151 22.2282 42.1678 22.0736 41.7119 21.8832C41.4795 21.7862 41.2229 21.6499 40.9548 21.4553C40.8205 21.3578 40.6444 21.2175 40.452 21.0266C40.2886 20.8644 39.9637 20.5193 39.6671 19.9932L48.3779 15.0818C47.8294 14.109 47.0926 13.5538 46.8288 13.3623C46.4293 13.0724 46.0005 12.8372 45.5647 12.6552C44.7019 12.295 43.5229 12.0264 42.1742 12.2185L43.5848 22.1185ZM39.0225 17.5214L39 24.4844L49 24.5167L49.0225 17.5537L39.0225 17.5214ZM39.4068 22.525L35.8953 30.6895L45.0817 34.6405L48.5932 26.476L39.4068 22.525ZM35.8759 30.7354C35.9363 30.5909 35.9901 30.4897 36.0191 30.4377C36.0498 30.3826 36.0712 30.3498 36.0775 30.3402C36.0879 30.3245 36.0751 30.345 36.036 30.3925C35.9989 30.4377 35.9615 30.4787 35.9348 30.5059C35.9226 30.5184 35.9193 30.5211 35.9261 30.5148C35.9316 30.5098 35.9584 30.4853 36.0061 30.4472L42.2469 38.2609C42.8294 37.7956 43.36 37.2306 43.7612 36.7424C44.1201 36.3059 44.7099 35.53 45.1011 34.5947L35.8759 30.7354ZM36.0423 30.4186L30.7023 34.6036L36.8707 42.4745L42.2107 38.2895L36.0423 30.4186ZM30.7191 34.5905C29.298 35.6945 28.5 37.3795 28.5 39.1285H38.5C38.5 40.4156 37.912 41.6656 36.8539 42.4876L30.7191 34.5905ZM28.5 39.1285V45.1855H38.5V39.1285H28.5ZM28.5 45.1855C28.5 48.361 31.0746 50.9355 34.25 50.9355V40.9355C36.5974 40.9355 38.5 42.8381 38.5 45.1855H28.5Z" fill="#6425D3" mask="url(#path-1-inside-1_8968_423)"/>
<path d="M6.3423 20.2747C6.40991 20.8268 6.44374 21.3368 6.47539 21.8138L6.476 21.823C6.47742 21.8436 6.47799 21.864 6.47775 21.8844C6.47773 21.8867 6.47769 21.8889 6.47765 21.8912C6.46969 22.2774 6.16961 22.6255 5.7785 22.651C5.3645 22.6795 5.009 22.396 4.9835 21.9835L4.98306 21.977C4.98195 21.9601 4.98083 21.9433 4.97971 21.9264C4.97962 21.9251 4.97953 21.9237 4.97944 21.9223C4.94663 21.4285 4.91167 20.9193 4.84305 20.3823C5.06075 20.2582 5.31649 20.1772 5.6068 20.1569C5.6098 20.1567 5.6128 20.1565 5.6158 20.1563L5.6158 20.1563L5.6068 20.1569C5.6098 20.1567 5.6128 20.1565 5.6158 20.1564C5.85466 20.1413 6.10515 20.1823 6.3423 20.2747Z" fill="#6425D3" stroke="#6425D3" stroke-width="5"/>
<mask id="path-4-inside-2_8968_423" fill="white">
<path d="M20.7507 45.9356C20.3367 45.9356 20.0007 45.5996 20.0007 45.1856V36.9911C20.0007 33.8306 17.8182 31.0751 14.6922 30.2891C14.2902 30.1886 14.0472 29.7806 14.1477 29.3786C14.2482 28.9781 14.6487 28.7291 15.0582 28.8341C18.8502 29.7881 21.5007 33.1421 21.5007 36.9911V45.1856C21.5007 45.5996 21.1647 45.9356 20.7507 45.9356Z"/>
</mask>
<path d="M20.7507 45.9356C20.3367 45.9356 20.0007 45.5996 20.0007 45.1856V36.9911C20.0007 33.8306 17.8182 31.0751 14.6922 30.2891C14.2902 30.1886 14.0472 29.7806 14.1477 29.3786C14.2482 28.9781 14.6487 28.7291 15.0582 28.8341C18.8502 29.7881 21.5007 33.1421 21.5007 36.9911V45.1856C21.5007 45.5996 21.1647 45.9356 20.7507 45.9356Z" fill="#6425D3"/>
<path d="M14.6922 30.2891L15.4237 27.3797L15.4198 27.3787L14.6922 30.2891ZM14.1477 29.3786L11.2379 28.6485L11.2372 28.651L14.1477 29.3786ZM15.0582 28.8341L14.313 31.7401L14.3262 31.7435L15.0582 28.8341ZM20.7507 42.9356C21.9935 42.9356 23.0007 43.9428 23.0007 45.1856H17.0007C17.0007 47.2565 18.6798 48.9356 20.7507 48.9356V42.9356ZM23.0007 45.1856V36.9911H17.0007V45.1856H23.0007ZM23.0007 36.9911C23.0007 32.4169 19.8455 28.4915 15.4237 27.3797L13.9606 33.1986C15.7909 33.6588 17.0007 35.2443 17.0007 36.9911H23.0007ZM15.4198 27.3787C16.6362 27.6828 17.3567 28.9119 17.0581 30.1062L11.2372 28.651C10.7377 30.6494 11.9442 32.6945 13.9646 33.1995L15.4198 27.3787ZM17.0575 30.1088C16.7634 31.2808 15.5543 32.0584 14.313 31.7401L15.8033 25.9281C13.743 25.3999 11.733 26.6754 11.2379 28.6485L17.0575 30.1088ZM14.3262 31.7435C16.8165 32.37 18.5007 34.5494 18.5007 36.9911H24.5007C24.5007 31.7348 20.8838 27.2063 15.7901 25.9248L14.3262 31.7435ZM18.5007 36.9911V45.1856H24.5007V36.9911H18.5007ZM18.5007 45.1856C18.5007 43.9428 19.5078 42.9356 20.7507 42.9356V48.9356C22.8215 48.9356 24.5007 47.2565 24.5007 45.1856H18.5007Z" fill="#6425D3" mask="url(#path-4-inside-2_8968_423)"/>
<path d="M14.4406 30.014C14.5421 30.1157 14.6354 30.2223 14.7206 30.3331C14.5765 30.3067 14.4387 30.238 14.3274 30.1274L14.4406 30.014ZM14.4406 30.014L14.8565 29.5972L14.8578 29.5958L15.3874 29.065L15.0021 29.4504M14.4406 30.014C14.4404 30.0139 14.4403 30.0137 14.4401 30.0136L14.8561 29.5967L14.8574 29.5954L15.0021 29.4504M15.0021 29.4504L15.3871 29.0645L15.3855 29.063L14.8566 29.5946L14.8553 29.596L14.6182 29.8343M15.0021 29.4504L14.8572 29.5952L14.8559 29.5966L14.6182 29.8343M14.6182 29.8343L14.4395 30.013M14.6182 29.8343L14.44 30.0134C14.4398 30.0133 14.4397 30.0131 14.4395 30.013M14.4395 30.013C14.4393 30.0127 14.439 30.0124 14.4388 30.0122L14.4374 30.0109L13.2736 28.8488M14.4395 30.013L14.3262 30.1262L14.3255 30.1255L14.3243 30.1242L13.2073 29.0098C13.2267 28.9553 13.2488 28.9016 13.2736 28.8488M13.2736 28.8488C13.3566 28.673 13.4704 28.5081 13.6152 28.3622C13.6167 28.3607 13.6182 28.3592 13.6197 28.3577C13.81 28.1678 14.0317 28.0313 14.2672 27.9472L12.0058 25.6907L11.3301 26.3663L11.3301 26.3664L11.059 26.6375L11.0593 26.6378L13.2736 28.8488Z" fill="#6425D3" stroke="#6425D3" stroke-width="5"/>
<mask id="path-7-inside-3_8968_423" fill="white">
<path d="M25.25 45.9354C24.836 45.9354 24.5 45.5994 24.5 45.1854V36.9909C24.5 33.1419 27.1505 29.7879 30.9425 28.8339C31.349 28.7289 31.751 28.9779 31.853 29.3784C31.952 29.7804 31.709 30.1884 31.3085 30.2889C28.1825 31.0749 26 33.8304 26 36.9909V45.1854C26 45.5994 25.664 45.9354 25.25 45.9354Z"/>
</mask>
<path d="M25.25 45.9354C24.836 45.9354 24.5 45.5994 24.5 45.1854V36.9909C24.5 33.1419 27.1505 29.7879 30.9425 28.8339C31.349 28.7289 31.751 28.9779 31.853 29.3784C31.952 29.7804 31.709 30.1884 31.3085 30.2889C28.1825 31.0749 26 33.8304 26 36.9909V45.1854C26 45.5994 25.664 45.9354 25.25 45.9354Z" fill="#6425D3"/>
<path d="M30.9425 28.8339L32.1624 33.6828L32.1777 33.6789L32.193 33.675L30.9425 28.8339ZM31.853 29.3784L36.7079 28.1828L36.7032 28.1635L36.6983 28.1444L31.853 29.3784ZM31.3085 30.2889L30.0915 25.4392L30.0893 25.4398L31.3085 30.2889ZM25.25 40.9354C27.5974 40.9354 29.5 42.838 29.5 45.1854H19.5C19.5 48.3608 22.0746 50.9354 25.25 50.9354V40.9354ZM29.5 45.1854V36.9909H19.5V45.1854H29.5ZM29.5 36.9909C29.5 35.4874 30.5399 34.091 32.1624 33.6828L29.7226 23.985C23.7611 25.4848 19.5 30.7963 19.5 36.9909H29.5ZM32.193 33.675C29.8333 34.2845 27.5667 32.8074 27.0077 30.6124L36.6983 28.1444C35.9353 25.1483 32.8647 23.1733 29.692 23.9928L32.193 33.675ZM26.9981 30.574C26.4463 28.3334 27.7917 26.0164 30.0915 25.4392L32.5255 35.1385C35.6263 34.3604 37.4577 31.2273 36.7079 28.1828L26.9981 30.574ZM30.0893 25.4398C24.8037 26.7688 21 31.4742 21 36.9909H31C31 36.1866 31.5613 35.3809 32.5277 35.1379L30.0893 25.4398ZM21 36.9909V45.1854H31V36.9909H21ZM21 45.1854C21 42.838 22.9026 40.9354 25.25 40.9354V50.9354C28.4254 50.9354 31 48.3608 31 45.1854H21Z" fill="#6425D3" mask="url(#path-7-inside-3_8968_423)"/>
<mask id="path-9-inside-4_8968_423" fill="white">
<path d="M33.8575 33.061C33.6655 33.061 33.4735 32.9875 33.3265 32.842C33.034 32.548 33.034 32.074 33.3265 31.78L39.3295 25.786C38.0305 24.8905 36.5905 25.216 35.053 26.752L31.6705 30.127C31.378 30.418 30.9025 30.4195 30.61 30.1255C30.3175 29.833 30.3175 29.3575 30.61 29.065L33.9925 25.69C36.361 23.3215 38.9035 23.1475 40.966 25.21C41.107 25.351 41.185 25.5415 41.185 25.741C41.185 25.9405 41.1055 26.131 40.966 26.272L34.3855 32.842C34.2415 32.9875 34.0495 33.061 33.8575 33.061Z"/>
</mask>
<path d="M33.8575 33.061C33.6655 33.061 33.4735 32.9875 33.3265 32.842C33.034 32.548 33.034 32.074 33.3265 31.78L39.3295 25.786C38.0305 24.8905 36.5905 25.216 35.053 26.752L31.6705 30.127C31.378 30.418 30.9025 30.4195 30.61 30.1255C30.3175 29.833 30.3175 29.3575 30.61 29.065L33.9925 25.69C36.361 23.3215 38.9035 23.1475 40.966 25.21C41.107 25.351 41.185 25.5415 41.185 25.741C41.185 25.9405 41.1055 26.131 40.966 26.272L34.3855 32.842C34.2415 32.9875 34.0495 33.061 33.8575 33.061Z" fill="#6425D3"/>
<path d="M33.3265 32.842L29.7819 36.3684L29.7955 36.3821L29.8091 36.3956L33.3265 32.842ZM33.3265 31.78L29.7936 28.2418L29.7878 28.2476L29.7819 28.2535L33.3265 31.78ZM39.3295 25.786L42.8624 29.3242L47.1137 25.0792L42.1674 21.6694L39.3295 25.786ZM35.053 26.752L38.5846 30.2914L38.5868 30.2892L35.053 26.752ZM31.6705 30.127L35.1969 33.6716L35.2021 33.6664L31.6705 30.127ZM30.61 30.1255L34.1546 26.599L34.1455 26.5899L30.61 30.1255ZM30.61 29.065L27.0784 25.5255L27.0745 25.5294L30.61 29.065ZM33.9925 25.69L37.5241 29.2294L37.528 29.2255L33.9925 25.69ZM40.966 26.272L44.4987 29.8103L44.5096 29.7995L44.5204 29.7885L40.966 26.272ZM34.3855 32.842L30.8528 29.3036L30.8422 29.3142L30.8317 29.3248L34.3855 32.842ZM33.8575 28.061C34.9413 28.061 36.0257 28.4785 36.8439 29.2884L29.8091 36.3956C30.9213 37.4964 32.3897 38.061 33.8575 38.061V28.061ZM36.8711 29.3155C38.5191 30.972 38.5191 33.6499 36.8711 35.3064L29.7819 28.2535C27.5489 30.498 27.5489 34.1239 29.7819 36.3684L36.8711 29.3155ZM36.8594 35.3182L42.8624 29.3242L35.7966 22.2478L29.7936 28.2418L36.8594 35.3182ZM42.1674 21.6694C40.462 20.4937 38.3623 19.9868 36.1788 20.4801C34.2029 20.9265 32.6563 22.0787 31.5192 23.2147L38.5868 30.2892C38.9872 29.8892 38.9293 30.1107 38.3825 30.2342C38.077 30.3033 37.7014 30.3199 37.3066 30.2374C36.9201 30.1566 36.645 30.0083 36.4916 29.9026L42.1674 21.6694ZM31.5214 23.2125L28.1389 26.5875L35.2021 33.6664L38.5846 30.2914L31.5214 23.2125ZM28.1441 26.5824C29.792 24.9428 32.4825 24.9183 34.1546 26.599L27.0654 33.6519C29.3225 35.9206 32.964 35.8931 35.1969 33.6716L28.1441 26.5824ZM34.1455 26.5899C35.8057 28.2501 35.8057 30.9404 34.1455 32.6005L27.0745 25.5294C24.8293 27.7746 24.8293 31.4159 27.0745 33.661L34.1455 26.5899ZM34.1416 32.6044L37.5241 29.2294L30.4609 22.1505L27.0784 25.5255L34.1416 32.6044ZM37.528 29.2255C37.8321 28.9214 38.037 28.7939 38.1168 28.752C38.188 28.7146 38.1218 28.7639 37.9368 28.7766C37.8476 28.7827 37.7498 28.7787 37.6503 28.762C37.5511 28.7454 37.4691 28.7193 37.4084 28.6939C37.2857 28.6425 37.3017 28.6167 37.4305 28.7455L44.5015 21.6744C42.6538 19.8267 40.1494 18.6009 37.2512 18.8001C34.4846 18.9902 32.188 20.4234 30.457 22.1544L37.528 29.2255ZM37.4305 28.7455C36.6226 27.9376 36.185 26.8517 36.185 25.741H46.185C46.185 24.2313 45.5914 22.7643 44.5015 21.6744L37.4305 28.7455ZM36.185 25.741C36.185 24.6075 36.6364 23.5389 37.4116 22.7554L44.5204 29.7885C45.5746 28.723 46.185 27.2735 46.185 25.741H36.185ZM37.4333 22.7336L30.8528 29.3036L37.9182 36.3803L44.4987 29.8103L37.4333 22.7336ZM30.8317 29.3248C31.6741 28.4736 32.7832 28.061 33.8575 28.061V38.061C35.3158 38.061 36.8089 37.5013 37.9393 36.3591L30.8317 29.3248Z" fill="#6425D3" mask="url(#path-9-inside-4_8968_423)"/>
<mask id="path-11-inside-5_8968_423" fill="white">
<path d="M33.8575 33.061C33.6655 33.061 33.4735 32.9875 33.3265 32.842C33.034 32.548 33.034 32.074 33.3265 31.78L39.3295 25.786C38.0305 24.8905 36.5905 25.216 35.053 26.752L31.6705 30.127C31.378 30.418 30.9025 30.4195 30.61 30.1255C30.3175 29.833 30.3175 29.3575 30.61 29.065L33.9925 25.69C36.361 23.3215 38.9035 23.1475 40.966 25.21C41.107 25.351 41.185 25.5415 41.185 25.741C41.185 25.9405 41.1055 26.131 40.966 26.272L34.3855 32.842C34.2415 32.9875 34.0495 33.061 33.8575 33.061Z"/>
</mask>
<path d="M33.8575 33.061C33.6655 33.061 33.4735 32.9875 33.3265 32.842C33.034 32.548 33.034 32.074 33.3265 31.78L39.3295 25.786C38.0305 24.8905 36.5905 25.216 35.053 26.752L31.6705 30.127C31.378 30.418 30.9025 30.4195 30.61 30.1255C30.3175 29.833 30.3175 29.3575 30.61 29.065L33.9925 25.69C36.361 23.3215 38.9035 23.1475 40.966 25.21C41.107 25.351 41.185 25.5415 41.185 25.741C41.185 25.9405 41.1055 26.131 40.966 26.272L34.3855 32.842C34.2415 32.9875 34.0495 33.061 33.8575 33.061Z" fill="#6425D3"/>
<path d="M33.3265 32.842L29.7819 36.3684L29.7955 36.3821L29.8091 36.3956L33.3265 32.842ZM33.3265 31.78L29.7936 28.2418L29.7878 28.2476L29.7819 28.2535L33.3265 31.78ZM39.3295 25.786L42.8624 29.3242L47.1137 25.0792L42.1674 21.6694L39.3295 25.786ZM35.053 26.752L38.5846 30.2914L38.5868 30.2892L35.053 26.752ZM31.6705 30.127L35.1969 33.6716L35.2021 33.6664L31.6705 30.127ZM30.61 30.1255L34.1546 26.599L34.1455 26.5899L30.61 30.1255ZM30.61 29.065L27.0784 25.5255L27.0745 25.5294L30.61 29.065ZM33.9925 25.69L37.5241 29.2294L37.528 29.2255L33.9925 25.69ZM40.966 26.272L44.4987 29.8103L44.5096 29.7995L44.5204 29.7885L40.966 26.272ZM34.3855 32.842L30.8528 29.3036L30.8422 29.3142L30.8317 29.3248L34.3855 32.842ZM33.8575 28.061C34.9413 28.061 36.0257 28.4785 36.8439 29.2884L29.8091 36.3956C30.9213 37.4964 32.3897 38.061 33.8575 38.061V28.061ZM36.8711 29.3155C38.5191 30.972 38.5191 33.6499 36.8711 35.3064L29.7819 28.2535C27.5489 30.498 27.5489 34.1239 29.7819 36.3684L36.8711 29.3155ZM36.8594 35.3182L42.8624 29.3242L35.7966 22.2478L29.7936 28.2418L36.8594 35.3182ZM42.1674 21.6694C40.462 20.4937 38.3623 19.9868 36.1788 20.4801C34.2029 20.9265 32.6563 22.0787 31.5192 23.2147L38.5868 30.2892C38.9872 29.8892 38.9293 30.1107 38.3825 30.2342C38.077 30.3033 37.7014 30.3199 37.3066 30.2374C36.9201 30.1566 36.645 30.0083 36.4916 29.9026L42.1674 21.6694ZM31.5214 23.2125L28.1389 26.5875L35.2021 33.6664L38.5846 30.2914L31.5214 23.2125ZM28.1441 26.5824C29.792 24.9428 32.4825 24.9183 34.1546 26.599L27.0654 33.6519C29.3225 35.9206 32.964 35.8931 35.1969 33.6716L28.1441 26.5824ZM34.1455 26.5899C35.8057 28.2501 35.8057 30.9404 34.1455 32.6005L27.0745 25.5294C24.8293 27.7746 24.8293 31.4159 27.0745 33.661L34.1455 26.5899ZM34.1416 32.6044L37.5241 29.2294L30.4609 22.1505L27.0784 25.5255L34.1416 32.6044ZM37.528 29.2255C37.8321 28.9214 38.037 28.7939 38.1168 28.752C38.188 28.7146 38.1218 28.7639 37.9368 28.7766C37.8476 28.7827 37.7498 28.7787 37.6503 28.762C37.5511 28.7454 37.4691 28.7193 37.4084 28.6939C37.2857 28.6425 37.3017 28.6167 37.4305 28.7455L44.5015 21.6744C42.6538 19.8267 40.1494 18.6009 37.2512 18.8001C34.4846 18.9902 32.188 20.4234 30.457 22.1544L37.528 29.2255ZM37.4305 28.7455C36.6226 27.9376 36.185 26.8517 36.185 25.741H46.185C46.185 24.2313 45.5914 22.7643 44.5015 21.6744L37.4305 28.7455ZM36.185 25.741C36.185 24.6075 36.6364 23.5389 37.4116 22.7554L44.5204 29.7885C45.5746 28.723 46.185 27.2735 46.185 25.741H36.185ZM37.4333 22.7336L30.8528 29.3036L37.9182 36.3803L44.4987 29.8103L37.4333 22.7336ZM30.8317 29.3248C31.6741 28.4736 32.7832 28.061 33.8575 28.061V38.061C35.3158 38.061 36.8089 37.5013 37.9393 36.3591L30.8317 29.3248Z" fill="#6425D3" mask="url(#path-11-inside-5_8968_423)"/>
<mask id="path-13-inside-6_8968_423" fill="white">
<path d="M26.2992 18.1091C25.8927 18.1091 25.4862 18.0761 25.0797 18.0086C23.1387 17.6861 21.4377 16.6256 20.2902 15.0206C19.1427 13.4156 18.6897 11.4626 19.0107 9.52164C19.2372 8.16564 20.5212 7.24314 21.8802 7.47114C23.2362 7.69614 24.1572 8.98464 23.9307 10.3406C23.8407 10.8806 23.9427 11.4401 24.2127 11.9126C24.4197 12.2726 24.2952 12.7301 23.9352 12.9371C23.5797 13.1396 23.1192 13.0196 22.9107 12.6596C22.4682 11.8886 22.3047 10.9781 22.4487 10.0961C22.5387 9.55464 22.1712 9.04014 21.6312 8.95014C21.0882 8.86464 20.5767 9.22614 20.4867 9.76764C20.2302 11.3126 20.5917 12.8681 21.5067 14.1476C22.4217 15.4271 23.7777 16.2731 25.3227 16.5296C25.7472 16.5986 26.1777 16.6256 26.5977 16.6016C27.0192 16.5926 27.3657 16.8986 27.3852 17.3111C27.4077 17.7251 27.0897 18.0776 26.6757 18.1001C26.5542 18.1061 26.4267 18.1091 26.2992 18.1091Z"/>
</mask>
<path d="M26.2992 18.1091C25.8927 18.1091 25.4862 18.0761 25.0797 18.0086C23.1387 17.6861 21.4377 16.6256 20.2902 15.0206C19.1427 13.4156 18.6897 11.4626 19.0107 9.52164C19.2372 8.16564 20.5212 7.24314 21.8802 7.47114C23.2362 7.69614 24.1572 8.98464 23.9307 10.3406C23.8407 10.8806 23.9427 11.4401 24.2127 11.9126C24.4197 12.2726 24.2952 12.7301 23.9352 12.9371C23.5797 13.1396 23.1192 13.0196 22.9107 12.6596C22.4682 11.8886 22.3047 10.9781 22.4487 10.0961C22.5387 9.55464 22.1712 9.04014 21.6312 8.95014C21.0882 8.86464 20.5767 9.22614 20.4867 9.76764C20.2302 11.3126 20.5917 12.8681 21.5067 14.1476C22.4217 15.4271 23.7777 16.2731 25.3227 16.5296C25.7472 16.5986 26.1777 16.6256 26.5977 16.6016C27.0192 16.5926 27.3657 16.8986 27.3852 17.3111C27.4077 17.7251 27.0897 18.0776 26.6757 18.1001C26.5542 18.1061 26.4267 18.1091 26.2992 18.1091Z" fill="#6425D3"/>
<path d="M25.0797 18.0086L24.2602 22.941L24.2607 22.9411L25.0797 18.0086ZM19.0107 9.52164L14.079 8.69788L14.0777 8.70583L19.0107 9.52164ZM21.8802 7.47114L21.0529 12.4022L21.0618 12.4037L21.8802 7.47114ZM23.9307 10.3406L18.999 9.51688L18.9988 9.51865L23.9307 10.3406ZM24.2127 11.9126L19.8715 14.3933L19.8782 14.405L24.2127 11.9126ZM23.9352 12.9371L26.41 17.2817L26.4188 17.2767L26.4276 17.2717L23.9352 12.9371ZM22.9107 12.6596L18.5742 15.1485L18.5791 15.157L18.584 15.1655L22.9107 12.6596ZM22.4487 10.0961L17.5164 9.27636L17.5152 9.28342L17.5141 9.29048L22.4487 10.0961ZM21.6312 8.95014L22.4532 4.01817L22.4311 4.01449L22.4089 4.011L21.6312 8.95014ZM20.4867 9.76764L15.5544 8.94786L15.5542 8.94875L20.4867 9.76764ZM25.3227 16.5296L24.5038 21.4621L24.5122 21.4635L24.5205 21.4649L25.3227 16.5296ZM26.5977 16.6016L26.491 11.6028L26.4017 11.6047L26.3125 11.6098L26.5977 16.6016ZM27.3852 17.3111L22.3908 17.5472L22.3916 17.5649L22.3926 17.5825L27.3852 17.3111ZM26.6757 18.1001L26.9223 23.0941L26.9347 23.0934L26.9471 23.0928L26.6757 18.1001ZM26.2992 13.1091C26.1647 13.1091 26.0322 13.0983 25.8988 13.0762L24.2607 22.9411C24.9402 23.0539 25.6207 23.1091 26.2992 23.1091V13.1091ZM25.8992 13.0763C25.2688 12.9715 24.7352 12.6408 24.3576 12.1127L16.2228 17.9286C18.1403 20.6105 21.0086 22.4008 24.2602 22.941L25.8992 13.0763ZM24.3576 12.1127C23.9804 11.5851 23.8389 10.9713 23.9437 10.3375L14.0777 8.70583C13.5406 11.954 14.305 15.2462 16.2228 17.9286L24.3576 12.1127ZM23.9424 10.3454C23.7164 11.6986 22.4345 12.634 21.0529 12.4022L22.7075 2.54006C18.6079 1.85227 14.7581 4.6327 14.079 8.69788L23.9424 10.3454ZM21.0618 12.4037C19.6921 12.1764 18.7702 10.8872 18.999 9.51688L28.8624 11.1644C29.5443 7.08209 26.7804 3.21586 22.6987 2.53859L21.0618 12.4037ZM18.9988 9.51865C18.718 11.2034 19.0345 12.9285 19.8715 14.3933L28.5539 9.43195C28.851 9.95179 28.9635 10.5579 28.8627 11.1626L18.9988 9.51865ZM19.8782 14.405C18.7025 12.3603 19.4198 9.7659 21.4429 8.60261L26.4276 17.2717C29.1707 15.6944 30.1369 12.185 28.5473 9.42029L19.8782 14.405ZM21.4605 8.59255C23.472 7.44675 26.0573 8.11615 27.2374 10.1538L18.584 15.1655C20.1811 17.9231 23.6875 18.8325 26.41 17.2817L21.4605 8.59255ZM27.2473 10.1708C27.382 10.4055 27.4229 10.6597 27.3834 10.9018L17.5141 9.29048C17.1865 11.2966 17.5545 13.3718 18.5742 15.1485L27.2473 10.1708ZM27.3811 10.9159C27.9227 7.6573 25.7223 4.56301 22.4532 4.01817L20.8092 13.8821C18.6202 13.5173 17.1548 11.452 17.5164 9.27636L27.3811 10.9159ZM22.4089 4.011C19.2127 3.50773 16.104 5.64097 15.5544 8.94786L25.4191 10.5874C25.0494 12.8113 22.9637 14.2216 20.8535 13.8893L22.4089 4.011ZM15.5542 8.94875C15.0799 11.8056 15.7556 14.7012 17.4397 17.0561L25.5738 11.2392C25.4278 11.0351 25.3805 10.8197 25.4192 10.5865L15.5542 8.94875ZM17.4397 17.0561C19.1231 19.4101 21.6454 20.9876 24.5038 21.4621L26.1416 11.5972C25.91 11.5587 25.7203 11.4442 25.5738 11.2392L17.4397 17.0561ZM24.5205 21.4649C25.2639 21.5857 26.0607 21.6405 26.883 21.5935L26.3125 11.6098C26.2947 11.6108 26.2306 11.6116 26.1249 11.5944L24.5205 21.4649ZM26.7045 21.6005C24.611 21.6452 22.5083 20.0339 22.3908 17.5472L32.3796 17.075C32.2231 13.7634 29.4274 11.5401 26.491 11.6028L26.7045 21.6005ZM22.3926 17.5825C22.2643 15.2224 24.0778 13.234 26.4044 13.1075L26.9471 23.0928C30.1016 22.9213 32.5511 20.2279 32.3779 17.0398L22.3926 17.5825ZM26.4291 13.1062C26.3954 13.1079 26.3503 13.1091 26.2992 13.1091V23.1091C26.5031 23.1091 26.713 23.1044 26.9223 23.0941L26.4291 13.1062Z" fill="#6425D3" mask="url(#path-13-inside-6_8968_423)"/>
<path d="M10.225 14.284C10.2219 14.2861 10.2188 14.2882 10.2158 14.2902C10.213 14.2921 10.2103 14.2939 10.2075 14.2958C9.66946 14.6601 9.32196 15.2257 9.20117 15.9348L9.93826 16.0622L10.6817 16.1867C10.7511 15.783 10.9259 15.6248 11.0515 15.5395C11.0526 15.5388 11.0536 15.5382 11.0546 15.5375L10.225 14.284ZM10.225 14.284C10.4816 14.1142 10.7593 14.0027 11.0338 13.9324L12.5592 14.9847C12.4623 15.185 12.3886 15.3017 12.3458 15.3623C12.2603 15.3493 12.1533 15.3378 12.0353 15.3331C11.7218 15.3206 11.3303 15.3558 11.0564 15.5363L10.225 14.284ZM10.681 16.1905L10.2411 16.1145L10.6813 16.1889C10.6812 16.1895 10.6811 16.19 10.681 16.1905ZM11.9169 17.8309C11.9171 17.8309 11.9172 17.8309 11.9174 17.8309C11.9156 17.831 11.9147 17.831 11.9148 17.831C11.9148 17.831 11.9155 17.8309 11.9169 17.8309ZM12.469 15.385C12.441 15.3787 12.4065 15.372 12.3667 15.3656L12.5942 15.4029C12.5603 15.4008 12.526 15.3965 12.4917 15.3898C12.4915 15.3898 12.4912 15.3897 12.491 15.3897C12.4837 15.3882 12.4764 15.3867 12.469 15.385Z" fill="#6425D3" stroke="#6425D3" stroke-width="5"/>
</svg>
