<svg width="31" height="49" viewBox="0 0 31 49" fill="none" xmlns="http://www.w3.org/2000/svg">
<path d="M29.5867 20.1147V6.14328V5.021C29.5867 2.94987 27.9077 1.271 25.8367 1.271H4.83203C2.761 1.271 1.08203 2.94987 1.08203 5.021V43.646C1.08203 45.7171 2.761 47.396 4.83203 47.396H25.8367C27.9077 47.396 29.5867 45.7171 29.5867 43.646V28.5522V20.1147Z" fill="#E6F4D7"/>
<path d="M29.5867 28.5522V43.646C29.5867 45.7171 27.9077 47.396 25.8367 47.396H4.83203C2.761 47.396 1.08203 45.7171 1.08203 43.646V5.021C1.08203 2.94987 2.761 1.271 4.83203 1.271H25.8367C27.9077 1.271 29.5867 2.94987 29.5867 5.021V6.14328" stroke="#335015" stroke-width="1.875" stroke-miterlimit="10" stroke-linecap="round" stroke-linejoin="round"/>
<path d="M29.5859 6.14328V20.1147" stroke="#335015" stroke-width="1.875" stroke-miterlimit="10" stroke-linecap="round" stroke-linejoin="round"/>
<path d="M12.1504 5.021H18.5193" stroke="#335015" stroke-width="1.875" stroke-miterlimit="10" stroke-linecap="round" stroke-linejoin="round"/>
<path d="M17.209 41.771C17.209 42.8066 16.3695 43.646 15.334 43.646C14.2984 43.646 13.459 42.8066 13.459 41.771C13.459 40.7354 14.2984 39.896 15.334 39.896C16.3695 39.896 17.209 40.7354 17.209 41.771Z" fill="#E6F4D7"/>
<path d="M17.209 41.771C17.209 42.8066 16.3695 43.646 15.334 43.646C14.2984 43.646 13.459 42.8066 13.459 41.771C13.459 40.7354 14.2984 39.896 15.334 39.896C16.3695 39.896 17.209 40.7354 17.209 41.771Z" stroke="#335015" stroke-width="1.875" stroke-miterlimit="10" stroke-linecap="round" stroke-linejoin="round"/>
<path d="M18.3086 15.1181C18.9166 14.4451 19.2851 13.5646 19.2851 12.6006C19.2851 10.4856 17.513 8.77105 15.3272 8.77105C13.1412 8.77105 11.3691 10.4856 11.3691 12.6006C11.3691 13.5646 11.7378 14.4451 12.3456 15.1181C12.4831 15.2703 12.5796 15.4492 12.6335 15.6396C12.702 15.8814 12.6445 16.1395 12.4997 16.3447C12.1011 16.9092 11.8669 17.598 11.8669 18.3415C11.8669 18.8453 11.9744 19.3239 12.1677 19.7559C12.6895 20.9216 12.982 22.1769 12.982 23.4542V24.3455H13.4534H15.3272H17.2009H17.6723V23.4818C17.6723 22.197 17.9686 20.9346 18.4961 19.7631C18.6914 19.3293 18.8 18.8481 18.8 18.3415C18.8 17.5913 18.5616 16.8969 18.1565 16.3296C18.0042 16.1162 17.954 15.8453 18.0341 15.5957C18.0899 15.4217 18.1818 15.2586 18.3086 15.1181Z" fill="#E6F4D7"/>
<path d="M8.89494 14.1678C8.89494 13.089 8.02034 12.2144 6.94166 12.2144C5.86278 12.2144 4.98828 13.089 4.98828 14.1678C4.98828 15.2466 5.86278 16.1211 6.94166 16.1211C8.02034 16.1211 8.89494 15.2466 8.89494 14.1678Z" fill="#E6F4D7"/>
<path d="M21.7734 14.1678C21.7734 13.089 22.648 12.2144 23.7267 12.2144C24.8056 12.2144 25.6801 13.089 25.6801 14.1678C25.6801 15.2466 24.8056 16.1211 23.7267 16.1211C22.648 16.1211 21.7734 15.2466 21.7734 14.1678Z" fill="#E6F4D7"/>
<path d="M18.3086 15.1181C18.9166 14.4451 19.2851 13.5646 19.2851 12.6006C19.2851 10.4856 17.513 8.77105 15.3272 8.77105C13.1412 8.77105 11.3691 10.4856 11.3691 12.6006C11.3691 13.5646 11.7378 14.4451 12.3456 15.1181C12.4831 15.2703 12.5796 15.4492 12.6335 15.6396C12.702 15.8814 12.6445 16.1395 12.4997 16.3447C12.1011 16.9092 11.8669 17.598 11.8669 18.3415C11.8669 18.8453 11.9744 19.3239 12.1677 19.7559C12.6895 20.9216 12.982 22.1769 12.982 23.4542V24.3455H13.4534H15.3272H17.2009H17.6723V23.4818C17.6723 22.197 17.9686 20.9346 18.4961 19.7631C18.6914 19.3293 18.8 18.8481 18.8 18.3415C18.8 17.5913 18.5616 16.8969 18.1565 16.3296C18.0042 16.1162 17.954 15.8453 18.0341 15.5957C18.0899 15.4217 18.1818 15.2586 18.3086 15.1181Z" stroke="#335015" stroke-width="1.875" stroke-miterlimit="10" stroke-linecap="round" stroke-linejoin="round"/>
<path d="M8.89494 14.1678C8.89494 13.089 8.02034 12.2144 6.94166 12.2144C5.86278 12.2144 4.98828 13.089 4.98828 14.1678C4.98828 15.2466 5.86278 16.1211 6.94166 16.1211C8.02034 16.1211 8.89494 15.2466 8.89494 14.1678Z" stroke="#335015" stroke-width="1.875" stroke-miterlimit="10" stroke-linecap="round" stroke-linejoin="round"/>
<path d="M6.09226 12.4089L6.0211 12.2618C5.44407 11.0688 5.90794 9.633 7.07391 9.003C7.91888 8.54653 8.95163 8.61937 9.72413 9.19022L12.5957 11.3121C13.3889 11.8982 14.3491 12.2144 15.3353 12.2144" stroke="#335015" stroke-width="1.875" stroke-miterlimit="10" stroke-linecap="round" stroke-linejoin="round"/>
<path d="M21.7734 14.1678C21.7734 13.089 22.648 12.2144 23.7267 12.2144C24.8056 12.2144 25.6801 13.089 25.6801 14.1678C25.6801 15.2466 24.8056 16.1211 23.7267 16.1211C22.648 16.1211 21.7734 15.2466 21.7734 14.1678Z" stroke="#335015" stroke-width="1.875" stroke-miterlimit="10" stroke-linecap="round" stroke-linejoin="round"/>
<path d="M24.577 12.4089L24.6481 12.2618C25.2252 11.0688 24.7613 9.633 23.5953 9.003C22.7504 8.54653 21.7176 8.61937 20.9451 9.19022L18.0735 11.3121C17.2803 11.8982 16.3201 12.2144 15.334 12.2144" stroke="#335015" stroke-width="1.875" stroke-miterlimit="10" stroke-linecap="round" stroke-linejoin="round"/>
<path d="M6.88086 28.0835H23.7263" stroke="#335015" stroke-width="1.875" stroke-miterlimit="10" stroke-linecap="round" stroke-linejoin="round"/>
<path d="M6.88086 31.8335H23.7263" stroke="#335015" stroke-width="1.875" stroke-miterlimit="10" stroke-linecap="round" stroke-linejoin="round"/>
<path d="M6.88086 35.5835H23.7263" stroke="#335015" stroke-width="1.875" stroke-miterlimit="10" stroke-linecap="round" stroke-linejoin="round"/>
</svg>
