<svg xmlns="http://www.w3.org/2000/svg" width="28" height="28" viewBox="0 0 28 28" fill="none">
  <path d="M16.0003 27.3327C13.6003 27.3327 11.5559 26.4882 9.86699 24.7993C8.1781 23.1105 7.33366 21.066 7.33366 18.666V17.8993C5.42255 17.5882 3.83366 16.6936 2.56699 15.2153C1.30033 13.7371 0.666992 11.9985 0.666992 9.99935V1.99935H4.66699V0.666016H7.33366V5.99935H4.66699V4.66602H3.33366V9.99935C3.33366 11.466 3.85588 12.7216 4.90033 13.766C5.94477 14.8105 7.20033 15.3327 8.66699 15.3327C10.1337 15.3327 11.3892 14.8105 12.4337 13.766C13.4781 12.7216 14.0003 11.466 14.0003 9.99935V4.66602H12.667V5.99935H10.0003V0.666016H12.667V1.99935H16.667V9.99935C16.667 11.9993 16.0337 13.7385 14.767 15.2167C13.5003 16.6949 11.9114 17.5891 10.0003 17.8993V18.666C10.0003 20.3327 10.5839 21.7496 11.751 22.9167C12.9181 24.0838 14.3345 24.6669 16.0003 24.666C17.6661 24.6651 19.083 24.082 20.251 22.9167C21.419 21.7513 22.0021 20.3345 22.0003 18.666V16.4327C21.2225 16.166 20.5839 15.6882 20.0843 14.9993C19.5848 14.3105 19.3345 13.5327 19.3337 12.666C19.3337 11.5549 19.7225 10.6105 20.5003 9.83268C21.2781 9.0549 22.2225 8.66602 23.3337 8.66602C24.4448 8.66602 25.3892 9.0549 26.167 9.83268C26.9448 10.6105 27.3337 11.5549 27.3337 12.666C27.3337 13.5327 27.0839 14.3105 26.5843 14.9993C26.0848 15.6882 25.4457 16.166 24.667 16.4327V18.666C24.667 21.066 23.8225 23.1105 22.1337 24.7993C20.4448 26.4882 18.4003 27.3327 16.0003 27.3327Z" fill="black"/>
</svg>