<svg width="49" height="48" viewBox="0 0 49 48" fill="none" xmlns="http://www.w3.org/2000/svg">
<g clip-path="url(#clip0_8968_16686)">
<path d="M33.0145 47.992C33.0131 47.992 33.0117 47.992 33.0105 47.992C33.0004 47.992 32.9905 47.9919 32.9806 47.9919C32.0104 47.9826 31.133 47.5745 30.4408 46.81C29.9643 46.2836 29.5718 45.5837 29.241 44.6703C28.7255 43.2465 28.4033 41.4362 28.062 39.5195C27.1867 34.6014 26.3318 30.8374 24.0046 30.8236C21.6774 30.8374 20.8225 34.6014 19.9472 39.5195C19.6061 41.4362 19.2838 43.2466 18.7683 44.6703C18.4375 45.5838 18.0451 46.2836 17.5685 46.81C16.8684 47.5833 15.9784 47.9921 14.9948 47.9921C13.6616 47.9921 12.3496 47.3466 11.0956 46.0735C7.57717 42.5019 4.68892 34.0667 3.28052 29.3565C1.30371 22.7454 -0.0448883 15.9896 0.00114296 12.9277C0.108112 5.80387 5.97489 0.00815039 13.0793 0.00815039C16.5937 0.00815039 19.1951 1.49109 21.2854 2.68256C22.7716 3.52968 24.0603 4.26421 25.2788 4.26421C25.2818 4.26421 25.2848 4.26421 25.2878 4.26421C27.9262 2.08181 30.9503 0.00805664 34.9209 0.00805664C38.3726 0.0203379 41.628 1.36921 44.094 3.80624C46.5604 6.24365 47.9472 9.48309 47.9989 12.9276C48.0449 15.9894 46.6964 22.7451 44.7195 29.3562C43.3111 34.0664 40.423 42.5016 36.9047 46.0732C35.6593 47.3373 34.3571 47.9826 33.0337 47.9916C33.0274 47.9919 33.0209 47.992 33.0145 47.992ZM13.0793 3.75684C8.01114 3.75684 3.82577 7.89609 3.74936 12.984C3.71571 15.2252 4.79871 21.3486 6.87208 28.2824C9.09911 35.7301 11.6118 41.2558 13.766 43.4425C14.2366 43.9203 14.611 44.1491 14.8493 44.2191C14.9664 44.0556 15.1961 43.6466 15.4603 42.7105C15.7609 41.6456 16.0015 40.2936 16.2563 38.8623C16.687 36.442 17.1754 33.6988 18.1262 31.5298C19.7231 27.8871 22.1679 27.0915 23.9593 27.0748C23.97 27.0746 23.9807 27.0745 23.9914 27.0745H24.0174C24.0281 27.0745 24.0388 27.0746 24.0494 27.0748C25.8411 27.0915 28.2856 27.8871 29.8825 31.5297C30.8335 33.6987 31.3217 36.4419 31.7525 38.8622C32.0073 40.2936 32.2479 41.6455 32.5485 42.7104C32.8115 43.6423 33.0404 44.0517 33.158 44.2167C33.3966 44.1442 33.7681 43.9152 34.2339 43.4423C36.388 41.2556 38.9006 35.7301 41.1277 28.2822C43.201 21.3484 44.284 15.225 44.2504 12.9838C44.1743 7.91399 39.9859 3.77474 34.9138 3.75665C31.6233 3.75665 29.0567 5.95649 26.3395 8.28543C23.3835 10.8189 20.327 13.4388 16.0761 13.4388V9.68999C18.165 9.68999 19.9529 8.64224 21.8001 7.19015C20.9827 6.82499 20.2001 6.37893 19.4286 5.93906C17.5466 4.86637 15.6003 3.75684 13.0793 3.75684Z" fill="#EE2A52"/>
</g>
<defs>
<clipPath id="clip0_8968_16686">
<rect width="48" height="48" fill="white"/>
</clipPath>
</defs>
</svg>
