<svg xmlns="http://www.w3.org/2000/svg" width="31" height="30" viewBox="0 0 31 30" fill="none">
    <path
        d="M10.7525 19.5916C10.9975 20.0504 11.1548 20.5492 11.2182 21.0625H10.3381C10.0996 19.4629 8.7323 18.25 7.0625 18.25C5.3927 18.25 4.02542 19.4629 3.78689 21.0625H2.90678C2.97017 20.5492 3.12755 20.0504 3.3725 19.5916C3.69669 18.9844 4.16444 18.4657 4.735 18.0807L5.24293 17.738L4.80524 17.3091C4.19646 16.7126 3.8125 15.8968 3.8125 15C3.8125 13.2136 5.27614 11.75 7.0625 11.75C8.84886 11.75 10.3125 13.2136 10.3125 15C10.3125 15.8977 9.92859 16.7126 9.31976 17.3091L8.88207 17.738L9.39 18.0807C9.96056 18.4657 10.4283 18.9844 10.7525 19.5916ZM11.3428 23.875C11.4228 23.2155 11.6583 22.5947 12.0095 22.0625H12.2518L12.2506 21.7339C12.5142 21.4101 12.8245 21.1269 13.1716 20.8938L13.6814 20.5514L13.2427 20.1216C12.634 19.5251 12.25 18.7093 12.25 17.8125C12.25 16.0261 13.7136 14.5625 15.5 14.5625C17.2864 14.5625 18.75 16.0261 18.75 17.8125C18.75 18.7102 18.3661 19.5251 17.7573 20.1216L17.3193 20.5508L17.8278 20.8934C18.1767 21.1285 18.4857 21.4095 18.7494 21.7337L18.7482 22.0625H18.9906C19.3507 22.6078 19.5783 23.2286 19.6568 23.875H18.7756C18.5371 22.2754 17.1698 21.0625 15.5 21.0625C13.8302 21.0625 12.4629 22.2754 12.2244 23.875H11.3428ZM19.7818 21.0625C19.8452 20.5492 20.0025 20.0504 20.2475 19.5916C20.5717 18.9844 21.0394 18.4657 21.61 18.0807L22.1179 17.738L21.6802 17.3091C21.0715 16.7126 20.6875 15.8968 20.6875 15C20.6875 13.2136 22.1511 11.75 23.9375 11.75C25.7239 11.75 27.1875 13.2136 27.1875 15C27.1875 15.8977 26.8036 16.7126 26.1948 17.3091L25.7571 17.738L26.265 18.0807C26.8356 18.4657 27.3033 18.9844 27.6275 19.5916C27.8725 20.0504 28.0298 20.5492 28.0932 21.0625H27.2131C26.9746 19.4629 25.6073 18.25 23.9375 18.25C22.2677 18.25 20.9004 19.4629 20.6619 21.0625H19.7818ZM9.31843 6.94343C9.83952 6.42234 10.5453 6.12819 11.2822 6.125C12.8075 6.12554 14.0625 7.38085 14.0625 8.90625C14.0625 10.432 12.807 11.6875 11.2812 11.6875C9.75586 11.6875 8.50056 10.4325 8.5 8.90727C8.50318 8.17036 8.79733 7.46453 9.31843 6.94343ZM17.7559 6.94343C18.277 6.42234 18.9828 6.12819 19.7197 6.125C21.245 6.12554 22.5 7.38085 22.5 8.90625C22.5 10.432 21.2445 11.6875 19.7188 11.6875C18.1934 11.6875 16.9381 10.4325 16.9375 8.90727C16.9407 8.17036 17.2348 7.46453 17.7559 6.94343ZM13.1875 8.90625C13.1875 7.84261 12.3449 7 11.2812 7C10.2176 7 9.375 7.84261 9.375 8.90625C9.375 9.96989 10.2176 10.8125 11.2812 10.8125C12.3449 10.8125 13.1875 9.96989 13.1875 8.90625ZM21.625 8.90625C21.625 7.84261 20.7824 7 19.7188 7C18.6551 7 17.8125 7.84261 17.8125 8.90625C17.8125 9.96989 18.6551 10.8125 19.7188 10.8125C20.7824 10.8125 21.625 9.96989 21.625 8.90625ZM9.4375 15C9.4375 13.6767 8.38583 12.625 7.0625 12.625C5.73917 12.625 4.6875 13.6767 4.6875 15C4.6875 16.3233 5.73917 17.375 7.0625 17.375C8.38583 17.375 9.4375 16.3233 9.4375 15ZM26.3125 15C26.3125 13.6767 25.2608 12.625 23.9375 12.625C22.6142 12.625 21.5625 13.6767 21.5625 15C21.5625 16.3233 22.6142 17.375 23.9375 17.375C25.2608 17.375 26.3125 16.3233 26.3125 15ZM17.875 17.8125C17.875 16.4892 16.8233 15.4375 15.5 15.4375C14.1767 15.4375 13.125 16.4892 13.125 17.8125C13.125 19.1358 14.1767 20.1875 15.5 20.1875C16.8233 20.1875 17.875 19.1358 17.875 17.8125Z"
        stroke="#FFF0F1" />
</svg>