<svg width="30" height="30" viewBox="0 0 30 30" fill="none" xmlns="http://www.w3.org/2000/svg">
<path d="M24.375 3.98438H21.3281V2.8125C21.3281 2.62602 21.254 2.44718 21.1222 2.31532C20.9903 2.18345 20.8115 2.10938 20.625 2.10938C20.4385 2.10938 20.2597 2.18345 20.1278 2.31532C19.996 2.44718 19.9219 2.62602 19.9219 2.8125V3.98438H10.0781V2.8125C10.0781 2.62602 10.004 2.44718 9.87218 2.31532C9.74032 2.18345 9.56148 2.10938 9.375 2.10938C9.18852 2.10938 9.00968 2.18345 8.87782 2.31532C8.74595 2.44718 8.67188 2.62602 8.67188 2.8125V3.98438H5.625C5.18988 3.98438 4.77258 4.15723 4.4649 4.4649C4.15723 4.77258 3.98438 5.18988 3.98438 5.625V24.375C3.98438 24.8101 4.15723 25.2274 4.4649 25.5351C4.77258 25.8428 5.18988 26.0156 5.625 26.0156H24.375C24.8101 26.0156 25.2274 25.8428 25.5351 25.5351C25.8428 25.2274 26.0156 24.8101 26.0156 24.375V5.625C26.0156 5.18988 25.8428 4.77258 25.5351 4.4649C25.2274 4.15723 24.8101 3.98438 24.375 3.98438ZM5.625 5.39062H8.67188V6.5625C8.67188 6.74898 8.74595 6.92782 8.87782 7.05968C9.00968 7.19155 9.18852 7.26562 9.375 7.26562C9.56148 7.26562 9.74032 7.19155 9.87218 7.05968C10.004 6.92782 10.0781 6.74898 10.0781 6.5625V5.39062H19.9219V6.5625C19.9219 6.74898 19.996 6.92782 20.1278 7.05968C20.2597 7.19155 20.4385 7.26562 20.625 7.26562C20.8115 7.26562 20.9903 7.19155 21.1222 7.05968C21.254 6.92782 21.3281 6.74898 21.3281 6.5625V5.39062H24.375C24.4372 5.39062 24.4968 5.41532 24.5407 5.45927C24.5847 5.50323 24.6094 5.56284 24.6094 5.625V9.60938H5.39062V5.625C5.39062 5.56284 5.41532 5.50323 5.45927 5.45927C5.50323 5.41532 5.56284 5.39062 5.625 5.39062ZM24.375 24.6094H5.625C5.56284 24.6094 5.50323 24.5847 5.45927 24.5407C5.41532 24.4968 5.39062 24.4372 5.39062 24.375V11.0156H24.6094V24.375C24.6094 24.4372 24.5847 24.4968 24.5407 24.5407C24.4968 24.5847 24.4372 24.6094 24.375 24.6094ZM18.3094 15.4969L15.9937 17.8125L18.3094 20.1281C18.3785 20.1925 18.4339 20.2701 18.4723 20.3564C18.5107 20.4426 18.5314 20.5357 18.5331 20.6301C18.5347 20.7245 18.5174 20.8183 18.482 20.9059C18.4466 20.9934 18.394 21.073 18.3272 21.1397C18.2605 21.2065 18.1809 21.2591 18.0934 21.2945C18.0058 21.3299 17.912 21.3472 17.8176 21.3456C17.7232 21.3439 17.6301 21.3232 17.5439 21.2848C17.4576 21.2464 17.38 21.191 17.3156 21.1219L15 18.8062L12.6844 21.1219C12.5511 21.2461 12.3748 21.3137 12.1926 21.3105C12.0105 21.3073 11.8367 21.2335 11.7079 21.1046C11.579 20.9758 11.5052 20.802 11.502 20.6199C11.4988 20.4377 11.5664 20.2614 11.6906 20.1281L14.0062 17.8125L11.6906 15.4969C11.6215 15.4325 11.5661 15.3549 11.5277 15.2686C11.4893 15.1824 11.4686 15.0893 11.4669 14.9949C11.4653 14.9005 11.4826 14.8067 11.518 14.7191C11.5534 14.6316 11.606 14.552 11.6728 14.4853C11.7395 14.4185 11.8191 14.3659 11.9066 14.3305C11.9942 14.2951 12.088 14.2778 12.1824 14.2794C12.2768 14.2811 12.3699 14.3018 12.4561 14.3402C12.5424 14.3786 12.62 14.434 12.6844 14.5031L15 16.8188L17.3156 14.5031C17.38 14.434 17.4576 14.3786 17.5439 14.3402C17.6301 14.3018 17.7232 14.2811 17.8176 14.2794C17.912 14.2778 18.0058 14.2951 18.0934 14.3305C18.1809 14.3659 18.2605 14.4185 18.3272 14.4853C18.394 14.552 18.4466 14.6316 18.482 14.7191C18.5174 14.8067 18.5347 14.9005 18.5331 14.9949C18.5314 15.0893 18.5107 15.1824 18.4723 15.2686C18.4339 15.3549 18.3785 15.4325 18.3094 15.4969Z" fill="#FFF1F1"/>
</svg>
