<svg width="32" height="32" viewBox="0 0 32 32" fill="none" xmlns="http://www.w3.org/2000/svg">
<g id="icon/checks">
<path id="Vector" d="M18.7014 10.7146L7.5014 21.7146C7.31436 21.8986 7.06251 22.0017 6.80015 22.0017C6.53779 22.0017 6.28594 21.8986 6.0989 21.7146L1.2989 17.0008C1.20525 16.9088 1.13066 16.7991 1.07938 16.6782C1.0281 16.5573 1.00114 16.4275 1.00004 16.2961C0.998933 16.1648 1.02371 16.0345 1.07295 15.9127C1.12219 15.791 1.19493 15.6801 1.28702 15.5865C1.37911 15.4928 1.48875 15.4182 1.60966 15.3669C1.73058 15.3157 1.86042 15.2887 1.99175 15.2876C2.12309 15.2865 2.25336 15.3113 2.37512 15.3605C2.49688 15.4098 2.60775 15.4825 2.7014 15.5746L6.80015 19.5996L17.3001 9.28709C17.4894 9.10111 17.7449 8.99794 18.0102 9.00029C18.1416 9.00145 18.2715 9.02848 18.3925 9.07983C18.5134 9.13119 18.6231 9.20586 18.7151 9.29959C18.8072 9.39332 18.88 9.50427 18.9292 9.62611C18.9784 9.74795 19.0031 9.87829 19.002 10.0097C19.0008 10.1411 18.9738 10.271 18.9224 10.3919C18.8711 10.5129 18.7964 10.6225 18.7026 10.7146H18.7014ZM30.7139 9.29959C30.6219 9.20579 30.5122 9.13105 30.3913 9.07965C30.2703 9.02825 30.1404 9.0012 30.009 9.00004C29.8776 8.99888 29.7472 9.02363 29.6254 9.07289C29.5035 9.12214 29.3926 9.19493 29.2989 9.28709L18.7989 19.5996L16.4451 17.2871C16.2559 17.1013 16.0005 16.9983 15.7352 17.0007C15.47 17.0032 15.2166 17.1109 15.0308 17.3002C14.845 17.4895 14.7419 17.7449 14.7444 18.0101C14.7469 18.2754 14.8546 18.5288 15.0439 18.7146L18.0976 21.7146C18.2847 21.8986 18.5365 22.0017 18.7989 22.0017C19.0613 22.0017 19.3131 21.8986 19.5001 21.7146L30.7001 10.7146C30.794 10.6226 30.8689 10.5131 30.9204 10.3921C30.9719 10.2712 30.9991 10.1414 31.0003 10.0099C31.0016 9.87852 30.977 9.74814 30.9278 9.62626C30.8787 9.50437 30.806 9.39337 30.7139 9.29959Z" fill="#4E504F"/>
</g>
</svg>
