<svg xmlns="http://www.w3.org/2000/svg" width="26" height="26" viewBox="0 0 26 26" fill="none">
  <path d="M13.8549 21.1799C14.2143 20.7589 14.4098 20.2223 14.4055 19.6687C14.4012 19.1152 14.1973 18.5817 13.8314 18.1663L19.1116 16.0796C19.5584 15.9055 19.9452 15.6056 20.225 15.2163C20.5049 14.8269 20.6659 14.3647 20.6885 13.8857L21.1257 5.26555C21.1363 5.04217 21.0968 4.81926 21.0101 4.61313C20.9233 4.40699 20.7916 4.22286 20.6246 4.07419C20.4575 3.92553 20.2593 3.8161 20.0445 3.75391C19.8297 3.69172 19.6037 3.67835 19.3831 3.71478L10.8714 5.13442C10.3981 5.21164 9.95739 5.42442 9.60256 5.74699C9.24773 6.06955 8.99403 6.48807 8.87218 6.95186L7.41367 12.4344C6.99185 12.1282 6.47718 11.9772 5.95682 12.0071C5.36173 12.043 4.80505 12.313 4.40832 12.758C4.01159 13.203 3.80704 13.7869 3.83933 14.3822C3.87511 14.9779 4.14508 15.5353 4.59033 15.9327L10.6802 21.363C11.1256 21.7598 11.7103 21.9635 12.3058 21.9294C12.9013 21.8952 13.4589 21.626 13.856 21.1809L13.8549 21.1799ZM9.83837 7.20696C9.91284 6.92939 10.0655 6.67905 10.2781 6.48573C10.4908 6.29241 10.7545 6.16425 11.0379 6.1165L19.3626 4.73763L15.5888 8.97063C15.3755 8.9114 15.15 8.91282 14.9375 8.97472C14.725 9.03663 14.5339 9.15658 14.3859 9.32108C14.28 9.43485 14.198 9.56862 14.1446 9.71452C14.0912 9.86042 14.0674 10.0155 14.0747 10.1707C14.082 10.3259 14.1202 10.4781 14.1872 10.6184C14.2541 10.7586 14.3483 10.8841 14.4643 10.9874C14.5804 11.0907 14.7159 11.1698 14.8629 11.2201C15.0099 11.2704 15.1655 11.2907 15.3205 11.2801C15.4756 11.2694 15.6269 11.2279 15.7656 11.158C15.9044 11.088 16.0278 10.9911 16.1286 10.8728C16.2761 10.71 16.3734 10.5079 16.4087 10.2911C16.4441 10.0742 16.416 9.85173 16.3279 9.65043L20.1112 5.40687L19.693 13.8346C19.6802 14.1221 19.5839 14.3997 19.4159 14.6333C19.2478 14.8669 19.0153 15.0465 18.7467 15.15L13.0069 17.4133L8.24609 13.1689L9.83837 7.20696ZM13.0146 18.7531C13.1983 18.9183 13.3289 19.1342 13.3899 19.3736C13.451 19.6129 13.4397 19.865 13.3576 20.098C13.2755 20.331 13.1262 20.5344 12.9285 20.6826C12.7308 20.8308 12.4937 20.9171 12.247 20.9306C12.0835 20.9396 11.9198 20.9162 11.7654 20.8616C11.611 20.807 11.4689 20.7224 11.3473 20.6126L5.25641 15.1814C5.01478 14.957 4.86931 14.6479 4.85043 14.3187C4.83155 13.9895 4.94073 13.6658 5.15513 13.4153C5.37597 13.1709 5.68417 13.0233 6.01301 13.0045C6.34186 12.9856 6.6649 13.097 6.91224 13.3145L13.0146 18.7531Z" fill="#667085"/>
</svg>