<svg xmlns="http://www.w3.org/2000/svg" width="31" height="30" viewBox="0 0 31 30" fill="none">
    <path
        d="M26.2812 18.75C26.2812 19.0281 26.1988 19.3 26.0443 19.5313C25.8897 19.7625 25.6701 19.9428 25.4131 20.0492C25.1562 20.1556 24.8734 20.1835 24.6007 20.1292C24.3279 20.075 24.0773 19.941 23.8806 19.7444C23.684 19.5477 23.55 19.2971 23.4958 19.0243C23.4415 18.7516 23.4694 18.4688 23.5758 18.2119C23.6822 17.9549 23.8625 17.7353 24.0937 17.5807C24.325 17.4262 24.5969 17.3438 24.875 17.3438C25.248 17.3438 25.6056 17.4919 25.8694 17.7556C26.1331 18.0194 26.2812 18.377 26.2812 18.75ZM25.748 23.3543C25.5421 24.6818 24.8686 25.8921 23.8491 26.7668C22.8295 27.6416 21.5309 28.1233 20.1875 28.125H17.375C15.8836 28.1234 14.4538 27.5303 13.3992 26.4758C12.3447 25.4212 11.7516 23.9914 11.75 22.5V17.7527C9.93773 17.5244 8.27108 16.6426 7.06281 15.2727C5.85455 13.9028 5.18773 12.1391 5.1875 10.3125V4.6875C5.1875 4.43886 5.28627 4.2004 5.46209 4.02459C5.6379 3.84877 5.87636 3.75 6.125 3.75H8.9375C9.18614 3.75 9.4246 3.84877 9.60041 4.02459C9.77623 4.2004 9.875 4.43886 9.875 4.6875C9.875 4.93614 9.77623 5.1746 9.60041 5.35041C9.4246 5.52623 9.18614 5.625 8.9375 5.625H7.0625V10.3125C7.06243 11.0575 7.21038 11.7952 7.49774 12.4826C7.7851 13.17 8.20615 13.7934 8.73645 14.3167C9.26675 14.8401 9.89573 15.2528 10.5869 15.531C11.278 15.8093 12.0175 15.9474 12.7625 15.9375C15.8223 15.8977 18.3125 13.3301 18.3125 10.2152V5.625H16.4375C16.1889 5.625 15.9504 5.52623 15.7746 5.35041C15.5988 5.1746 15.5 4.93614 15.5 4.6875C15.5 4.43886 15.5988 4.2004 15.7746 4.02459C15.9504 3.84877 16.1889 3.75 16.4375 3.75H19.25C19.4986 3.75 19.7371 3.84877 19.9129 4.02459C20.0887 4.2004 20.1875 4.43886 20.1875 4.6875V10.2152C20.1875 14.0637 17.3129 17.2805 13.625 17.7516V22.5C13.625 23.4946 14.0201 24.4484 14.7233 25.1516C15.4266 25.8549 16.3804 26.25 17.375 26.25H20.1875C21.0391 26.2486 21.8649 25.9579 22.5297 25.4256C23.1944 24.8933 23.6586 24.151 23.8461 23.3203C22.7139 23.066 21.7162 22.4007 21.0462 21.4533C20.3762 20.5058 20.0814 19.3435 20.219 18.1912C20.3565 17.039 20.9165 15.9787 21.7907 15.2155C22.6649 14.4524 23.7911 14.0406 24.9514 14.0599C26.1117 14.0792 27.2235 14.5282 28.0719 15.32C28.9202 16.1118 29.4447 17.1902 29.5438 18.3464C29.6429 19.5026 29.3097 20.6544 28.6085 21.5791C27.9073 22.5037 26.8881 23.1354 25.748 23.352V23.3543ZM27.6875 18.75C27.6875 18.1937 27.5226 17.65 27.2135 17.1875C26.9045 16.7249 26.4652 16.3645 25.9513 16.1516C25.4374 15.9387 24.8719 15.883 24.3263 15.9915C23.7807 16.1001 23.2796 16.3679 22.8863 16.7613C22.4929 17.1546 22.2251 17.6557 22.1165 18.2013C22.008 18.7469 22.0637 19.3124 22.2766 19.8263C22.4895 20.3402 22.8499 20.7795 23.3125 21.0885C23.775 21.3976 24.3187 21.5625 24.875 21.5625C25.6209 21.5625 26.3363 21.2662 26.8637 20.7387C27.3912 20.2113 27.6875 19.4959 27.6875 18.75Z"
        fill="#FFFEEA" />
</svg>