<svg xmlns="http://www.w3.org/2000/svg" width="24" height="26" viewBox="0 0 24 26" fill="none">
  <path d="M22 0H6C5.46957 0 4.96086 0.210714 4.58579 0.585786C4.21071 0.960859 4 1.46957 4 2V5H2C1.46957 5 0.960859 5.21071 0.585786 5.58579C0.210714 5.96086 0 6.46957 0 7V19C0 19.5304 0.210714 20.0391 0.585786 20.4142C0.960859 20.7893 1.46957 21 2 21H4V24C4 24.5304 4.21071 25.0391 4.58579 25.4142C4.96086 25.7893 5.46957 26 6 26H22C22.5304 26 23.0391 25.7893 23.4142 25.4142C23.7893 25.0391 24 24.5304 24 24V2C24 1.46957 23.7893 0.960859 23.4142 0.585786C23.0391 0.210714 22.5304 0 22 0ZM17 10H22V16H17V10ZM6 2H22V8H17V7C17 6.46957 16.7893 5.96086 16.4142 5.58579C16.0391 5.21071 15.5304 5 15 5H6V2ZM2 7H15V16.9788C15 16.9862 15 16.9925 15 17C15 17.0075 15 17.0138 15 17.0212V19H2V7ZM6 24V21H15C15.5304 21 16.0391 20.7893 16.4142 20.4142C16.7893 20.0391 17 19.5304 17 19V18H22V24H6ZM5.53 16.2425L4.03 10.2425C3.9956 10.1143 3.98707 9.98047 4.00492 9.84892C4.02277 9.71736 4.06664 9.59067 4.13397 9.47624C4.2013 9.36182 4.29074 9.26195 4.39707 9.18245C4.50341 9.10295 4.62451 9.04543 4.75331 9.01323C4.88211 8.98103 5.01603 8.9748 5.14726 8.9949C5.2785 9.01501 5.40441 9.06104 5.51767 9.13032C5.63092 9.1996 5.72925 9.29074 5.80691 9.39842C5.88457 9.5061 5.94001 9.62817 5.97 9.7575L6.815 13.1325L7.605 11.55C7.68794 11.3836 7.81562 11.2436 7.97372 11.1458C8.13182 11.0479 8.31407 10.9961 8.5 10.9961C8.68593 10.9961 8.86818 11.0479 9.02628 11.1458C9.18437 11.2436 9.31206 11.3836 9.395 11.55L10.185 13.1325L11.03 9.7575C11.098 9.50421 11.2627 9.28775 11.4887 9.15476C11.7147 9.02176 11.984 8.98288 12.2384 9.04648C12.4928 9.11009 12.712 9.27109 12.8489 9.4948C12.9857 9.71851 13.0292 9.98703 12.97 10.2425L11.47 16.2425C11.4202 16.4405 11.3109 16.6185 11.157 16.7525C11.003 16.8866 10.8117 16.9703 10.6088 16.9925C10.5726 16.9965 10.5363 16.9985 10.5 16.9988C10.3142 16.9989 10.1321 16.9473 9.97399 16.8497C9.81591 16.7521 9.68814 16.6124 9.605 16.4463L8.5 14.2362L7.395 16.4475C7.30367 16.6304 7.15847 16.7809 6.97897 16.8788C6.79947 16.9766 6.59429 17.0171 6.39108 16.9948C6.18786 16.9724 5.99638 16.8883 5.84242 16.7538C5.68846 16.6193 5.57942 16.4409 5.53 16.2425Z" fill="black"/>
</svg>