<svg xmlns="http://www.w3.org/2000/svg" width="20" height="20" viewBox="0 0 20 20" fill="none">
  <path d="M1.6665 5.83301L5.99471 8.71848C6.24441 8.88494 6.36926 8.96818 6.50433 9.02714C6.62423 9.07948 6.74986 9.11752 6.87865 9.14048C7.02375 9.16634 7.1738 9.16634 7.47391 9.16634H12.5258C12.8259 9.16634 12.9759 9.16634 13.121 9.14048C13.2498 9.11752 13.3754 9.07948 13.4953 9.02714C13.6304 8.96818 13.7553 8.88494 14.005 8.71847L18.3332 5.83301M5.6665 16.6663H14.3332C15.7333 16.6663 16.4334 16.6663 16.9681 16.3939C17.4386 16.1542 17.821 15.7717 18.0607 15.3013C18.3332 14.7665 18.3332 14.0665 18.3332 12.6663V7.33301C18.3332 5.93288 18.3332 5.23281 18.0607 4.69803C17.821 4.22763 17.4386 3.84517 16.9681 3.60549C16.4334 3.33301 15.7333 3.33301 14.3332 3.33301H5.6665C4.26637 3.33301 3.56631 3.33301 3.03153 3.60549C2.56112 3.84517 2.17867 4.22763 1.93899 4.69803C1.6665 5.23281 1.6665 5.93288 1.6665 7.33301V12.6663C1.6665 14.0665 1.6665 14.7665 1.93899 15.3013C2.17867 15.7717 2.56112 16.1542 3.03153 16.3939C3.56631 16.6663 4.26637 16.6663 5.6665 16.6663Z" stroke="#667085" stroke-width="1.66667" stroke-linecap="round" stroke-linejoin="round"/>
</svg>