<svg xmlns="http://www.w3.org/2000/svg" width="32" height="32" viewBox="0 0 32 32" fill="none">
  <path d="M17.7081 16.7071L7.70806 26.7071C7.52042 26.8947 7.26592 27.0001 7.00056 27.0001C6.73519 27.0001 6.4807 26.8947 6.29306 26.7071C6.10542 26.5194 6 26.2649 6 25.9996C6 25.7342 6.10542 25.4797 6.29306 25.2921L15.5868 15.9996L6.29306 6.70708C6.10542 6.51944 6 6.26494 6 5.99958C6 5.73422 6.10542 5.47972 6.29306 5.29208C6.4807 5.10444 6.73519 4.99902 7.00056 4.99902C7.26592 4.99902 7.52042 5.10444 7.70806 5.29208L17.7081 15.2921C17.801 15.385 17.8748 15.4952 17.9251 15.6166C17.9754 15.738 18.0013 15.8682 18.0013 15.9996C18.0013 16.131 17.9754 16.2611 17.9251 16.3825C17.8748 16.5039 17.801 16.6142 17.7081 16.7071ZM27.7081 15.2921L17.7081 5.29208C17.5204 5.10444 17.2659 4.99902 17.0006 4.99902C16.7352 4.99902 16.4807 5.10444 16.2931 5.29208C16.1054 5.47972 16 5.73422 16 5.99958C16 6.26494 16.1054 6.51944 16.2931 6.70708L25.5868 15.9996L16.2931 25.2921C16.1054 25.4797 16 25.7342 16 25.9996C16 26.2649 16.1054 26.5194 16.2931 26.7071C16.4807 26.8947 16.7352 27.0001 17.0006 27.0001C17.2659 27.0001 17.5204 26.8947 17.7081 26.7071L27.7081 16.7071C27.801 16.6142 27.8748 16.5039 27.9251 16.3825C27.9754 16.2611 28.0013 16.131 28.0013 15.9996C28.0013 15.8682 27.9754 15.738 27.9251 15.6166C27.8748 15.4952 27.801 15.385 27.7081 15.2921Z" fill="black"/>
</svg>