<svg xmlns="http://www.w3.org/2000/svg" width="31" height="30" viewBox="0 0 31 30" fill="none">
    <path
        d="M22.9104 24.543H25.5829C25.8179 24.5467 26.0504 24.4934 26.2604 24.3877C26.4704 24.282 26.6517 24.1271 26.7888 23.9361C26.9259 23.7451 27.0147 23.5237 27.0476 23.2909C27.0805 23.0581 27.0566 22.8208 26.9779 22.5993C26.2963 21.1408 25.2174 19.9039 23.865 19.0306C22.5126 18.1573 20.9414 17.6829 19.3316 17.6618M19.3316 14.213C19.9332 14.2132 20.5289 14.0949 21.0847 13.8648C21.6405 13.6347 22.1455 13.2973 22.571 12.872C22.9964 12.4467 23.3339 11.9418 23.5641 11.386C23.7943 10.8303 23.9129 10.2346 23.9129 9.63305C23.9145 9.03044 23.7972 8.43343 23.5677 7.87623C23.3382 7.31903 23.001 6.81261 22.5754 6.38597C22.1498 5.95934 21.6442 5.62089 21.0876 5.39001C20.5309 5.15914 19.9342 5.04038 19.3316 5.04055M12.1754 14.3568C13.5525 14.3535 14.8721 13.804 15.8447 12.8289C16.8172 11.8538 17.3632 10.5327 17.3629 9.15555C17.3629 7.77941 16.8162 6.45963 15.8431 5.48655C14.87 4.51347 13.5502 3.9668 12.1741 3.9668C10.798 3.9668 9.47818 4.51347 8.5051 5.48655C7.53202 6.45963 6.98535 7.77941 6.98535 9.15555C6.98535 10.5327 7.53166 11.8537 8.50442 12.8285C9.47718 13.8034 10.7969 14.3526 12.1741 14.3555M18.0316 26.0343C18.4719 26.0337 18.9034 25.9112 19.2784 25.6805C19.6534 25.4497 19.9572 25.1196 20.1561 24.7268C20.355 24.334 20.4413 23.8938 20.4054 23.455C20.3696 23.0162 20.2129 22.5958 19.9529 22.2405C19.042 21.0309 17.8692 20.0431 16.5222 19.3512C15.1753 18.6593 13.6892 18.2813 12.1754 18.2455C10.6614 18.2815 9.17527 18.6597 7.82832 19.3518C6.48137 20.0439 5.30857 21.0319 4.39785 22.2418C4.13867 22.5971 3.98273 23.0171 3.94724 23.4555C3.91175 23.8939 3.99809 24.3335 4.19674 24.7259C4.39538 25.1183 4.6986 25.4481 5.07291 25.679C5.44722 25.9099 5.87806 26.0328 6.31785 26.0343H18.0316Z"
        stroke="#FFF0F1" stroke-width="2" stroke-linecap="round" stroke-linejoin="round" />
</svg>