<svg width="66" height="68" viewBox="0 0 66 68" fill="none" xmlns="http://www.w3.org/2000/svg">
<ellipse cx="32.8" cy="33.6312" rx="32.8" ry="33.6312" fill="#ECE9FE"/>
<path d="M23.4495 27.1867C23.2584 28.3257 24.8406 28.9048 25.5741 28.7273C26.0543 28.6119 26.7431 28.4421 27.3824 26.5261C25.4295 31.6115 27.558 34.0184 29.8698 34.4453C35.8778 35.5551 37.139 29.0707 37.952 28.4896C38.4632 28.1229 42.4116 26.6095 42.8055 23.183C43.0907 20.7072 41.2863 18.3556 38.827 17.9482C36.3677 17.5407 34.0443 19.2016 33.6358 21.6599C33.63 21.69 33.6339 21.7201 33.63 21.7501C32.8238 21.9102 32.1612 22.5456 32.0196 23.4032C32.0177 23.4139 32.0186 23.4236 32.0167 23.4323C32.0186 23.4226 32.0177 23.4129 32.0186 23.4042C32.1205 22.7891 31.7063 22.209 31.0912 22.1062C30.4761 22.0033 29.896 22.4195 29.7932 23.0336C29.6593 23.8417 30.0561 25.3367 30.0561 25.3367C30.0561 25.3367 29.734 24.1725 28.4728 23.964C26.9507 23.574 25.7167 24.5121 25.1947 26.2739C25.1967 26.2748 23.6648 25.912 23.4495 27.1867Z" fill="#ECE9FE"/>
<path d="M41.2911 35.0405C41.0748 35.4441 40.5305 35.7681 40.0726 35.7642L38.3875 35.7477C35.644 35.7419 33.3496 37.9616 33.3496 40.7051V46.4909H39.1704V42.0885L42.627 39.3799C42.9849 39.0947 43.4739 38.5213 43.6514 38.1003L45.9623 32.7287V28.0536C45.9623 27.4677 43.9231 26.5897 43.3381 28.9306C43.0296 30.1675 43.1091 31.1289 42.9626 31.9361L41.2911 35.0405Z" fill="#ECE9FE"/>
<path d="M37.1602 35.9444L38.9171 37.7003L43.1662 33.4511C42.8752 33.1601 41.4093 31.6952 39.3439 33.7616L37.1602 35.9444Z" fill="#ECE9FE"/>
<path d="M22.5013 35.0415C22.7176 35.445 23.2618 35.7691 23.7198 35.7652L25.4049 35.7487C28.1484 35.7429 30.4428 37.9625 30.4428 40.7061V46.4919H24.622V42.0895L21.1673 39.3809C20.8094 39.0956 20.3204 38.5223 20.1429 38.1013L17.832 32.7287V28.0536C17.832 27.4677 19.8712 26.5897 20.4562 28.9306C20.7647 30.1675 20.6852 31.1289 20.8317 31.9361L22.5013 35.0415Z" fill="#ECE9FE"/>
<path d="M26.6321 35.9444L24.8761 37.7003L20.627 33.4511C20.918 33.1601 22.3839 31.6952 24.4493 33.7616L26.6321 35.9444Z" fill="#ECE9FE"/>
<mask id="path-7-inside-1_5602_47720" fill="white">
<path d="M39.1706 46.5159C39.4384 46.5159 39.6557 46.2986 39.6557 46.0308V42.3492L42.926 39.7861C43.3354 39.4601 43.8835 38.8208 44.0979 38.3125L46.4068 32.9447C46.433 32.8846 46.4466 32.8186 46.4466 32.7526V28.0776C46.4466 27.4742 45.7626 27.0289 45.102 26.9484C44.2832 26.8426 43.2539 27.2879 42.8658 28.8372C42.666 29.6414 42.6214 30.3215 42.5816 30.921C42.5632 31.1878 42.7649 31.4391 43.0327 31.4566C43.3005 31.475 43.5304 31.2916 43.5469 31.0248C43.5866 30.4253 43.6284 29.7918 43.8078 29.071C43.9301 28.584 44.192 27.9854 44.7518 27.9107C45.1262 27.8574 45.4396 28.0582 45.491 28.1494L45.4765 32.6527L43.2054 37.9331C43.0637 38.2717 42.6233 38.7869 42.3245 39.0255L38.8708 41.7322C38.7535 41.8234 38.6855 41.964 38.6855 42.1134V46.0308C38.6855 46.2986 38.9029 46.5159 39.1706 46.5159Z"/>
</mask>
<path d="M39.1706 46.5159C39.4384 46.5159 39.6557 46.2986 39.6557 46.0308V42.3492L42.926 39.7861C43.3354 39.4601 43.8835 38.8208 44.0979 38.3125L46.4068 32.9447C46.433 32.8846 46.4466 32.8186 46.4466 32.7526V28.0776C46.4466 27.4742 45.7626 27.0289 45.102 26.9484C44.2832 26.8426 43.2539 27.2879 42.8658 28.8372C42.666 29.6414 42.6214 30.3215 42.5816 30.921C42.5632 31.1878 42.7649 31.4391 43.0327 31.4566C43.3005 31.475 43.5304 31.2916 43.5469 31.0248C43.5866 30.4253 43.6284 29.7918 43.8078 29.071C43.9301 28.584 44.192 27.9854 44.7518 27.9107C45.1262 27.8574 45.4396 28.0582 45.491 28.1494L45.4765 32.6527L43.2054 37.9331C43.0637 38.2717 42.6233 38.7869 42.3245 39.0255L38.8708 41.7322C38.7535 41.8234 38.6855 41.964 38.6855 42.1134V46.0308C38.6855 46.2986 38.9029 46.5159 39.1706 46.5159Z" fill="#6425D3"/>
<path d="M39.6557 42.3492L37.6609 39.804L36.4219 40.775V42.3492H39.6557ZM42.926 39.7861L44.9208 42.3313L44.9305 42.3236L44.9402 42.3159L42.926 39.7861ZM44.0979 38.3125L41.1273 37.0347L41.1228 37.0452L41.1183 37.0558L44.0979 38.3125ZM46.4068 32.9447L43.442 31.6536L43.4391 31.6603L43.4362 31.6669L46.4068 32.9447ZM45.102 26.9484L44.6878 30.1555L44.6993 30.157L44.7108 30.1584L45.102 26.9484ZM42.8658 28.8372L39.729 28.0515L39.7275 28.0574L42.8658 28.8372ZM42.5816 30.921L45.8077 31.1439L45.8083 31.1351L42.5816 30.921ZM43.0327 31.4566L43.2548 28.2304L43.2432 28.2296L43.0327 31.4566ZM43.5469 31.0248L40.3202 30.8108L40.3197 30.818L40.3193 30.8253L43.5469 31.0248ZM43.8078 29.071L40.6713 28.2838L40.6699 28.2897L43.8078 29.071ZM44.7518 27.9107L45.1795 31.1161L45.1937 31.1142L45.2079 31.1122L44.7518 27.9107ZM45.491 28.1494L48.7248 28.1598L48.7275 27.3054L48.3079 26.5611L45.491 28.1494ZM45.4765 32.6527L48.4471 33.9304L48.7081 33.3236L48.7102 32.6632L45.4765 32.6527ZM43.2054 37.9331L40.2347 36.6555L40.2284 36.6703L40.2221 36.6851L43.2054 37.9331ZM42.3245 39.0255L44.3192 41.5708L44.331 41.5616L44.3426 41.5523L42.3245 39.0255ZM38.8708 41.7322L40.8547 44.2859L40.8656 44.2774L38.8708 41.7322ZM39.1706 49.7497C41.2243 49.7497 42.8894 48.0845 42.8894 46.0308H36.4219C36.4219 44.5126 37.6524 43.2821 39.1706 43.2821V49.7497ZM42.8894 46.0308V42.3492H36.4219V46.0308H42.8894ZM41.6505 44.8944L44.9208 42.3313L40.9312 37.2409L37.6609 39.804L41.6505 44.8944ZM44.9402 42.3159C45.6446 41.7551 46.5973 40.7078 47.0775 39.5691L41.1183 37.0558C41.1393 37.006 41.1557 36.9749 41.1619 36.9636C41.1684 36.9515 41.1696 36.9505 41.1633 36.9602C41.1495 36.9817 41.1208 37.0226 41.0772 37.0761C41.0344 37.1287 40.9898 37.178 40.9508 37.2175C40.9089 37.2599 40.8935 37.2708 40.9117 37.2563L44.9402 42.3159ZM47.0685 39.5903L49.3774 34.2225L43.4362 31.6669L41.1273 37.0347L47.0685 39.5903ZM49.3716 34.2359C49.5778 33.7625 49.6804 33.2564 49.6804 32.7526H43.2128C43.2128 32.3808 43.2882 32.0067 43.442 31.6536L49.3716 34.2359ZM49.6804 32.7526V28.0776H43.2128V32.7526H49.6804ZM49.6804 28.0776C49.6804 26.4574 48.7553 25.3448 48.0048 24.7623C47.2487 24.1754 46.3497 23.8427 45.4932 23.7383L44.7108 30.1584C44.5149 30.1345 44.2883 30.0647 44.0392 29.8714C43.7959 29.6826 43.2128 29.0943 43.2128 28.0776H49.6804ZM45.5162 23.7412C44.3696 23.5932 43.0723 23.8333 41.9419 24.6413C40.7951 25.4611 40.0724 26.6805 39.729 28.0515L46.0027 29.6229C46.0474 29.4446 46.0333 29.6668 45.7029 29.9029C45.3888 30.1274 45.0155 30.1978 44.6878 30.1555L45.5162 23.7412ZM39.7275 28.0574C39.4513 29.169 39.3948 30.1064 39.3549 30.707L45.8083 31.1351C45.848 30.5366 45.8807 30.1139 46.0042 29.617L39.7275 28.0574ZM39.3555 30.6981C39.2246 32.5931 40.613 34.5394 42.8222 34.6835L43.2432 28.2296C44.9169 28.3388 45.9017 29.7826 45.8077 31.1439L39.3555 30.6981ZM42.8106 34.6827C44.6868 34.8118 46.6363 33.4595 46.7745 31.2244L40.3193 30.8253C40.4244 29.1238 41.9141 28.1381 43.2548 28.2304L42.8106 34.6827ZM46.7735 31.2389C46.8141 30.6274 46.8443 30.2599 46.9458 29.8523L40.6699 28.2897C40.4124 29.3238 40.3592 30.2232 40.3202 30.8108L46.7735 31.2389ZM46.9443 29.8582C46.9616 29.7893 46.9403 29.9351 46.7828 30.1648C46.5966 30.4364 46.0823 30.9956 45.1795 31.1161L44.324 24.7054C42.8615 24.9005 41.9363 25.7963 41.4486 26.5077C40.9896 27.1771 40.7763 27.8657 40.6714 28.2838L46.9443 29.8582ZM45.2079 31.1122C44.7101 31.1831 44.2915 31.0831 43.9966 30.96C43.8463 30.8972 43.6804 30.8091 43.507 30.6832C43.4201 30.6202 43.3062 30.5294 43.1818 30.4059C43.0761 30.301 42.866 30.0778 42.6741 29.7376L48.3079 26.5611C47.9531 25.932 47.4766 25.5729 47.306 25.449C47.0476 25.2615 46.7703 25.1094 46.4884 24.9917C45.9304 24.7588 45.1679 24.585 44.2956 24.7093L45.2079 31.1122ZM42.2573 28.1389L42.2427 32.6423L48.7102 32.6632L48.7248 28.1598L42.2573 28.1389ZM42.5058 31.3751L40.2347 36.6555L46.176 39.2108L48.4471 33.9304L42.5058 31.3751ZM40.2221 36.6851C40.2612 36.5917 40.296 36.5262 40.3148 36.4926C40.3346 36.457 40.3485 36.4357 40.3526 36.4296C40.3593 36.4194 40.351 36.4327 40.3257 36.4634C40.3017 36.4926 40.2775 36.5192 40.2603 36.5367C40.2524 36.5448 40.2502 36.5466 40.2547 36.5425C40.2582 36.5392 40.2755 36.5234 40.3064 36.4988L44.3426 41.5523C44.7193 41.2514 45.0625 40.8859 45.322 40.5702C45.5541 40.2878 45.9356 39.7861 46.1886 39.1811L40.2221 36.6851ZM40.3298 36.4803L36.8761 39.1869L40.8656 44.2774L44.3192 41.5708L40.3298 36.4803ZM36.887 39.1785C35.9679 39.8925 35.4518 40.9822 35.4518 42.1134H41.9193C41.9193 42.9458 41.5391 43.7543 40.8547 44.2859L36.887 39.1785ZM35.4518 42.1134V46.0308H41.9193V42.1134H35.4518ZM35.4518 46.0308C35.4518 48.0845 37.1169 49.7497 39.1706 49.7497V43.2821C40.6888 43.2821 41.9193 44.5126 41.9193 46.0308H35.4518Z" fill="#6425D3" mask="url(#path-7-inside-1_5602_47720)"/>
<mask id="path-9-inside-2_5602_47720" fill="white">
<path d="M24.6197 46.5159C24.352 46.5159 24.1347 46.2986 24.1347 46.0308V42.3492L20.8644 39.7861C20.455 39.4601 19.9068 38.8208 19.6924 38.3125L17.3835 32.9447C17.3573 32.8846 17.3438 32.8186 17.3438 32.7526V28.0776C17.3438 27.4742 18.0277 27.0289 18.6884 26.9484C19.5071 26.8426 20.5364 27.2879 20.9245 28.8372C21.1243 29.6414 21.169 30.3215 21.2087 30.921C21.2272 31.1878 21.0254 31.4391 20.7576 31.4566C20.4899 31.475 20.26 31.2916 20.2435 31.0248C20.2037 30.4253 20.162 29.7918 19.9825 29.071C19.8603 28.584 19.5983 27.9854 19.0386 27.9107C18.6641 27.8574 18.3507 28.0582 18.2993 28.1494L18.3139 32.6527L20.585 37.9331C20.7266 38.2717 21.167 38.7869 21.4658 39.0255L24.9195 41.7322C25.0369 41.8234 25.1048 41.964 25.1048 42.1134V46.0308C25.1048 46.2986 24.8875 46.5159 24.6197 46.5159Z"/>
</mask>
<path d="M24.6197 46.5159C24.352 46.5159 24.1347 46.2986 24.1347 46.0308V42.3492L20.8644 39.7861C20.455 39.4601 19.9068 38.8208 19.6924 38.3125L17.3835 32.9447C17.3573 32.8846 17.3438 32.8186 17.3438 32.7526V28.0776C17.3438 27.4742 18.0277 27.0289 18.6884 26.9484C19.5071 26.8426 20.5364 27.2879 20.9245 28.8372C21.1243 29.6414 21.169 30.3215 21.2087 30.921C21.2272 31.1878 21.0254 31.4391 20.7576 31.4566C20.4899 31.475 20.26 31.2916 20.2435 31.0248C20.2037 30.4253 20.162 29.7918 19.9825 29.071C19.8603 28.584 19.5983 27.9854 19.0386 27.9107C18.6641 27.8574 18.3507 28.0582 18.2993 28.1494L18.3139 32.6527L20.585 37.9331C20.7266 38.2717 21.167 38.7869 21.4658 39.0255L24.9195 41.7322C25.0369 41.8234 25.1048 41.964 25.1048 42.1134V46.0308C25.1048 46.2986 24.8875 46.5159 24.6197 46.5159Z" fill="#6425D3"/>
<path d="M24.1347 42.3492H27.3684V40.775L26.1294 39.804L24.1347 42.3492ZM20.8644 39.7861L18.8501 42.3159L18.8598 42.3236L18.8696 42.3313L20.8644 39.7861ZM19.6924 38.3125L22.672 37.0558L22.6676 37.0452L22.663 37.0347L19.6924 38.3125ZM17.3835 32.9447L20.3541 31.6669L20.3513 31.6603L20.3484 31.6536L17.3835 32.9447ZM18.6884 26.9484L19.0796 30.1584L19.0911 30.157L19.1025 30.1555L18.6884 26.9484ZM20.9245 28.8372L24.0628 28.0574L24.0614 28.0515L20.9245 28.8372ZM21.2087 30.921L17.9821 31.1351L17.9827 31.1439L21.2087 30.921ZM20.7576 31.4566L20.5472 28.2296L20.5355 28.2304L20.7576 31.4566ZM20.2435 31.0248L23.4711 30.8253L23.4706 30.818L23.4701 30.8108L20.2435 31.0248ZM19.9825 29.071L23.1205 28.2897L23.119 28.2838L19.9825 29.071ZM19.0386 27.9107L18.5824 31.1122L18.5966 31.1142L18.6108 31.1161L19.0386 27.9107ZM18.2993 28.1494L15.4825 26.5611L15.0628 27.3054L15.0656 28.1598L18.2993 28.1494ZM18.3139 32.6527L15.0801 32.6632L15.0823 33.3236L15.3432 33.9304L18.3139 32.6527ZM20.585 37.9331L23.5682 36.6851L23.562 36.6703L23.5556 36.6555L20.585 37.9331ZM21.4658 39.0255L19.4477 41.5523L19.4594 41.5616L19.4711 41.5708L21.4658 39.0255ZM24.9195 41.7322L22.9247 44.2774L22.9356 44.2859L24.9195 41.7322ZM24.6197 43.2821C26.1379 43.2821 27.3684 44.5126 27.3684 46.0308H20.9009C20.9009 48.0845 22.566 49.7497 24.6197 49.7497V43.2821ZM27.3684 46.0308V42.3492H20.9009V46.0308H27.3684ZM26.1294 39.804L22.8591 37.2409L18.8696 42.3313L22.1399 44.8944L26.1294 39.804ZM22.8786 37.2563C22.8968 37.2708 22.8814 37.2599 22.8395 37.2175C22.8005 37.178 22.7559 37.1287 22.7131 37.0761C22.6696 37.0226 22.6409 36.9817 22.627 36.9602C22.6208 36.9505 22.6219 36.9515 22.6285 36.9636C22.6346 36.9749 22.651 37.006 22.672 37.0558L16.7128 39.5691C17.1931 40.7078 18.1457 41.7551 18.8501 42.3159L22.8786 37.2563ZM22.663 37.0347L20.3541 31.6669L14.4129 34.2225L16.7218 39.5903L22.663 37.0347ZM20.3484 31.6536C20.5021 32.0067 20.5775 32.3808 20.5775 32.7526H14.11C14.11 33.2564 14.2125 33.7625 14.4187 34.2359L20.3484 31.6536ZM20.5775 32.7526V28.0776H14.11V32.7526H20.5775ZM20.5775 28.0776C20.5775 29.0943 19.9944 29.6826 19.7511 29.8714C19.5021 30.0647 19.2754 30.1345 19.0796 30.1584L18.2971 23.7383C17.4406 23.8427 16.5417 24.1754 15.7855 24.7623C15.035 25.3448 14.11 26.4574 14.11 28.0776H20.5775ZM19.1025 30.1555C18.7748 30.1978 18.4015 30.1274 18.0875 29.9029C17.7571 29.6668 17.743 29.4446 17.7876 29.6229L24.0614 28.0515C23.718 26.6805 22.9952 25.4611 21.8484 24.6413C20.718 23.8333 19.4207 23.5932 18.2742 23.7412L19.1025 30.1555ZM17.7862 29.617C17.9096 30.1139 17.9424 30.5366 17.9821 31.1351L24.4354 30.707C24.3956 30.1064 24.339 29.1689 24.0628 28.0574L17.7862 29.617ZM17.9827 31.1439C17.8886 29.7826 18.8734 28.3388 20.5472 28.2296L20.9681 34.6835C23.1774 34.5394 24.5657 32.5931 24.4348 30.6981L17.9827 31.1439ZM20.5355 28.2304C21.8762 28.1381 23.3659 29.1237 23.4711 30.8253L17.0159 31.2244C17.154 33.4595 19.1036 34.8118 20.9797 34.6827L20.5355 28.2304ZM23.4701 30.8108C23.4312 30.2232 23.3779 29.3238 23.1205 28.2897L16.8445 29.8523C16.946 30.2599 16.9762 30.6274 17.0168 31.2389L23.4701 30.8108ZM23.119 28.2838C23.014 27.8657 22.8007 27.1771 22.3417 26.5077C21.854 25.7963 20.9289 24.9005 19.4663 24.7054L18.6108 31.1161C17.708 30.9956 17.1937 30.4364 17.0075 30.1648C16.85 29.9351 16.8287 29.7893 16.846 29.8582L23.119 28.2838ZM19.4947 24.7093C18.6225 24.585 17.8599 24.7588 17.3019 24.9917C17.02 25.1094 16.7427 25.2615 16.4844 25.449C16.3137 25.5729 15.8372 25.932 15.4825 26.5611L21.1162 29.7376C20.9244 30.0778 20.7142 30.301 20.6085 30.4059C20.4841 30.5294 20.3702 30.6202 20.2834 30.6832C20.1099 30.8091 19.944 30.8972 19.7937 30.96C19.4989 31.0831 19.0802 31.1831 18.5824 31.1122L19.4947 24.7093ZM15.0656 28.1598L15.0801 32.6632L21.5476 32.6423L21.5331 28.1389L15.0656 28.1598ZM15.3432 33.9304L17.6143 39.2108L23.5556 36.6555L21.2845 31.3751L15.3432 33.9304ZM17.6017 39.1811C17.8548 39.7861 18.2362 40.2878 18.4683 40.5702C18.7278 40.8859 19.071 41.2514 19.4477 41.5523L23.4839 36.4988C23.5148 36.5234 23.5321 36.5392 23.5357 36.5425C23.5401 36.5466 23.538 36.5448 23.5301 36.5367C23.5128 36.5192 23.4886 36.4926 23.4646 36.4634C23.4394 36.4327 23.4311 36.4194 23.4378 36.4296C23.4419 36.4357 23.4557 36.457 23.4756 36.4926C23.4943 36.5262 23.5291 36.5917 23.5682 36.6851L17.6017 39.1811ZM19.4711 41.5708L22.9248 44.2774L26.9142 39.1869L23.4606 36.4803L19.4711 41.5708ZM22.9356 44.2859C22.2513 43.7543 21.871 42.9458 21.871 42.1134H28.3386C28.3386 40.9822 27.8225 39.8925 26.9034 39.1785L22.9356 44.2859ZM21.871 42.1134V46.0308H28.3386V42.1134H21.871ZM21.871 46.0308C21.871 44.5126 23.1015 43.2821 24.6197 43.2821V49.7497C26.6734 49.7497 28.3386 48.0845 28.3386 46.0308H21.871Z" fill="#6425D3" mask="url(#path-9-inside-2_5602_47720)"/>
<mask id="path-11-inside-3_5602_47720" fill="white">
<path d="M30.4375 46.5174C30.1698 46.5174 29.9525 46.3001 29.9525 46.0324V40.7325C29.9525 38.6885 28.5409 36.9063 26.5192 36.398C26.2592 36.333 26.102 36.0691 26.167 35.8091C26.232 35.5501 26.491 35.3891 26.7559 35.457C29.2084 36.074 30.9226 38.2432 30.9226 40.7325V46.0324C30.9226 46.3001 30.7053 46.5174 30.4375 46.5174Z"/>
</mask>
<path d="M30.4375 46.5174C30.1698 46.5174 29.9525 46.3001 29.9525 46.0324V40.7325C29.9525 38.6885 28.5409 36.9063 26.5192 36.398C26.2592 36.333 26.102 36.0691 26.167 35.8091C26.232 35.5501 26.491 35.3891 26.7559 35.457C29.2084 36.074 30.9226 38.2432 30.9226 40.7325V46.0324C30.9226 46.3001 30.7053 46.5174 30.4375 46.5174Z" fill="#6425D3"/>
<path d="M26.5192 36.398L26.9923 34.5163L26.9897 34.5157L26.5192 36.398ZM26.167 35.8091L24.2851 35.3369L24.2847 35.3385L26.167 35.8091ZM26.7559 35.457L26.274 37.3364L26.2825 37.3386L26.7559 35.457ZM30.4375 44.5772C31.2413 44.5772 31.8927 45.2285 31.8927 46.0324H28.0122C28.0122 47.3717 29.0982 48.4577 30.4375 48.4577V44.5772ZM31.8927 46.0324V40.7325H28.0122V46.0324H31.8927ZM31.8927 40.7325C31.8927 37.7741 29.8521 35.2354 26.9923 34.5163L26.046 38.2797C27.2298 38.5773 28.0122 39.6028 28.0122 40.7325H31.8927ZM26.9897 34.5157C27.7765 34.7123 28.2424 35.5073 28.0493 36.2797L24.2847 35.3385C23.9616 36.631 24.7419 37.9536 26.0486 38.2803L26.9897 34.5157ZM28.0489 36.2814C27.8587 37.0394 27.0768 37.5423 26.274 37.3364L27.2378 33.5775C25.9053 33.2358 24.6053 34.0608 24.2851 35.3369L28.0489 36.2814ZM26.2825 37.3386C27.8931 37.7438 28.9823 39.1534 28.9823 40.7325H32.8628C32.8628 37.333 30.5236 34.4042 27.2293 33.5753L26.2825 37.3386ZM28.9823 40.7325V46.0324H32.8628V40.7325H28.9823ZM28.9823 46.0324C28.9823 45.2285 29.6337 44.5772 30.4375 44.5772V48.4577C31.7768 48.4577 32.8628 47.3717 32.8628 46.0324H28.9823Z" fill="#6425D3" mask="url(#path-11-inside-3_5602_47720)"/>
<path d="M26.2937 36.2963L26.2932 36.2958L26.2924 36.295L25.57 35.5742C25.5825 35.539 25.5968 35.5042 25.6129 35.4701L26.2937 36.2963Z" fill="#6425D3" stroke="#6425D3" stroke-width="3.23377"/>
<mask id="path-14-inside-4_5602_47720" fill="white">
<path d="M33.3542 46.533C33.0864 46.533 32.8691 46.3157 32.8691 46.048V40.7482C32.8691 38.2588 34.5834 36.0896 37.0358 35.4726C37.2988 35.4047 37.5587 35.5657 37.6247 35.8248C37.6887 36.0847 37.5316 36.3486 37.2726 36.4136C35.2508 36.922 33.8393 38.7041 33.8393 40.7482V46.048C33.8393 46.3157 33.622 46.533 33.3542 46.533Z"/>
</mask>
<path d="M33.3542 46.533C33.0864 46.533 32.8691 46.3157 32.8691 46.048V40.7482C32.8691 38.2588 34.5834 36.0896 37.0358 35.4726C37.2988 35.4047 37.5587 35.5657 37.6247 35.8248C37.6887 36.0847 37.5316 36.3486 37.2726 36.4136C35.2508 36.922 33.8393 38.7041 33.8393 40.7482V46.048C33.8393 46.3157 33.622 46.533 33.3542 46.533Z" fill="#6425D3"/>
<path d="M37.0358 35.4726L37.8248 38.6086L37.8347 38.6061L37.8446 38.6036L37.0358 35.4726ZM37.6247 35.8248L40.7647 35.0515L40.7616 35.0391L40.7585 35.0266L37.6247 35.8248ZM37.2726 36.4136L36.4855 33.2771L36.484 33.2775L37.2726 36.4136ZM33.3542 43.2993C34.8724 43.2993 36.1029 44.5298 36.1029 46.048H29.6354C29.6354 48.1017 31.3005 49.7668 33.3542 49.7668V43.2993ZM36.1029 46.048V40.7482H29.6354V46.048H36.1029ZM36.1029 40.7482C36.1029 39.7758 36.7755 38.8726 37.8248 38.6086L36.2469 32.3366C32.3912 33.3066 29.6354 36.7418 29.6354 40.7482H36.1029ZM37.8446 38.6036C36.3185 38.9978 34.8525 38.0425 34.491 36.6229L40.7585 35.0266C40.265 33.089 38.279 31.8116 36.2271 32.3416L37.8446 38.6036ZM34.4848 36.598C34.1279 35.1489 34.9981 33.6504 36.4855 33.2771L38.0596 39.5501C40.0651 39.0469 41.2496 37.0206 40.7647 35.0515L34.4848 36.598ZM36.484 33.2775C33.0656 34.137 30.6055 37.1802 30.6055 40.7482H37.073C37.073 40.228 37.4361 39.7069 38.0611 39.5498L36.484 33.2775ZM30.6055 40.7482V46.048H37.073V40.7482H30.6055ZM30.6055 46.048C30.6055 44.5298 31.836 43.2993 33.3542 43.2993V49.7668C35.4079 49.7668 37.073 48.1017 37.073 46.048H30.6055Z" fill="#6425D3" mask="url(#path-14-inside-4_5602_47720)"/>
<mask id="path-16-inside-5_5602_47720" fill="white">
<path d="M38.918 38.1983C38.7938 38.1983 38.6696 38.1507 38.5746 38.0566C38.3854 37.8665 38.3854 37.5599 38.5746 37.3698L42.457 33.4931C41.6169 32.914 40.6856 33.1245 39.6912 34.1179L37.5035 36.3007C37.3144 36.4889 37.0068 36.4899 36.8177 36.2997C36.6285 36.1105 36.6285 35.803 36.8177 35.6138L39.0053 33.431C40.5371 31.8992 42.1815 31.7867 43.5154 33.1206C43.6066 33.2118 43.6571 33.335 43.6571 33.464C43.6571 33.5931 43.6057 33.7163 43.5154 33.8075L39.2595 38.0566C39.1663 38.1507 39.0422 38.1983 38.918 38.1983Z"/>
</mask>
<path d="M38.918 38.1983C38.7938 38.1983 38.6696 38.1507 38.5746 38.0566C38.3854 37.8665 38.3854 37.5599 38.5746 37.3698L42.457 33.4931C41.6169 32.914 40.6856 33.1245 39.6912 34.1179L37.5035 36.3007C37.3144 36.4889 37.0068 36.4899 36.8177 36.2997C36.6285 36.1105 36.6285 35.803 36.8177 35.6138L39.0053 33.431C40.5371 31.8992 42.1815 31.7867 43.5154 33.1206C43.6066 33.2118 43.6571 33.335 43.6571 33.464C43.6571 33.5931 43.6057 33.7163 43.5154 33.8075L39.2595 38.0566C39.1663 38.1507 39.0422 38.1983 38.918 38.1983Z" fill="#6425D3"/>
<path d="M38.5746 38.0566L36.2821 40.3374L36.2909 40.3462L36.2997 40.3549L38.5746 38.0566ZM38.5746 37.3698L36.2897 35.0814L36.2821 35.089L38.5746 37.3698ZM42.457 33.4931L44.7419 35.7815L47.4915 33.036L44.2924 30.8307L42.457 33.4931ZM39.6912 34.1179L41.9753 36.4071L41.9767 36.4056L39.6912 34.1179ZM37.5035 36.3007L39.7843 38.5932L39.7876 38.5898L37.5035 36.3007ZM36.8177 36.2997L39.1101 34.0189L39.1043 34.0131L36.8177 36.2997ZM36.8177 35.6138L34.5336 33.3247L34.531 33.3272L36.8177 35.6138ZM39.0053 33.431L41.2894 35.7202L41.2919 35.7177L39.0053 33.431ZM43.5154 33.8075L45.8002 36.0959L45.8073 36.0889L45.8143 36.0818L43.5154 33.8075ZM39.2595 38.0566L36.9747 35.7682L36.9678 35.775L36.961 35.7819L39.2595 38.0566ZM38.918 34.9645C39.619 34.9645 40.3203 35.2346 40.8494 35.7583L36.2997 40.3549C37.019 41.0669 37.9687 41.432 38.918 41.432V34.9645ZM40.867 35.7759C41.9329 36.8472 41.9329 38.5792 40.867 39.6505L36.2821 35.089C34.8379 36.5407 34.8379 38.8857 36.2821 40.3374L40.867 35.7759ZM40.8595 39.6581L44.7419 35.7815L40.1721 31.2048L36.2897 35.0814L40.8595 39.6581ZM44.2924 30.8307C43.1895 30.0704 41.8315 29.7425 40.4193 30.0615C39.1414 30.3502 38.1411 31.0955 37.4057 31.8302L41.9767 36.4056C42.2357 36.1469 42.1982 36.2902 41.8446 36.3701C41.647 36.4147 41.4041 36.4255 41.1487 36.3721C40.8988 36.3199 40.7208 36.2239 40.6216 36.1556L44.2924 30.8307ZM37.4071 31.8287L35.2195 34.0115L39.7876 38.5898L41.9753 36.4071L37.4071 31.8287ZM35.2228 34.0082C36.2886 32.9478 38.0287 32.932 39.1101 34.019L34.5252 38.5805C35.985 40.0478 38.3401 40.03 39.7843 38.5932L35.2228 34.0082ZM39.1043 34.0131C40.178 35.0868 40.178 36.8268 39.1043 37.9005L34.531 33.3272C33.079 34.7793 33.079 37.1343 34.531 38.5863L39.1043 34.0131ZM39.1017 37.903L41.2894 35.7202L36.7212 31.1419L34.5336 33.3247L39.1017 37.903ZM41.2919 35.7177C41.4886 35.521 41.6211 35.4385 41.6727 35.4114C41.7187 35.3872 41.676 35.4191 41.5563 35.4273C41.4986 35.4313 41.4354 35.4287 41.371 35.4179C41.3069 35.4072 41.2538 35.3903 41.2145 35.3738C41.1352 35.3406 41.1455 35.3239 41.2288 35.4072L45.8021 30.834C44.607 29.639 42.9873 28.8462 41.1129 28.975C39.3236 29.098 37.8382 30.0249 36.7187 31.1444L41.2919 35.7177ZM41.2288 35.4072C40.7063 34.8847 40.4233 34.1824 40.4233 33.464H46.8908C46.8908 32.4876 46.5069 31.5389 45.8021 30.834L41.2288 35.4072ZM40.4233 33.464C40.4233 32.7309 40.7153 32.0398 41.2166 31.5331L45.8143 36.0818C46.4961 35.3927 46.8908 34.4552 46.8908 33.464H40.4233ZM41.2306 31.519L36.9747 35.7682L41.5443 40.3451L45.8002 36.0959L41.2306 31.519ZM36.961 35.7819C37.5059 35.2314 38.2232 34.9645 38.918 34.9645V41.432C39.8612 41.432 40.8268 41.0701 41.5579 40.3314L36.961 35.7819Z" fill="#6425D3" mask="url(#path-16-inside-5_5602_47720)"/>
<mask id="path-18-inside-6_5602_47720" fill="white">
<path d="M38.9141 38.1944C38.7899 38.1944 38.6657 38.1468 38.5707 38.0527C38.3815 37.8626 38.3815 37.556 38.5707 37.3659L42.4531 33.4892C41.613 32.9101 40.6817 33.1206 39.6873 34.114L37.4996 36.2968C37.3105 36.485 37.0029 36.486 36.8138 36.2958C36.6246 36.1066 36.6246 35.7991 36.8138 35.6099L39.0014 33.4271C40.5332 31.8953 42.1776 31.7828 43.5115 33.1167C43.6027 33.2079 43.6532 33.3311 43.6532 33.4601C43.6532 33.5892 43.6018 33.7124 43.5115 33.8036L39.2556 38.0527C39.1624 38.1468 39.0383 38.1944 38.9141 38.1944Z"/>
</mask>
<path d="M38.9141 38.1944C38.7899 38.1944 38.6657 38.1468 38.5707 38.0527C38.3815 37.8626 38.3815 37.556 38.5707 37.3659L42.4531 33.4892C41.613 32.9101 40.6817 33.1206 39.6873 34.114L37.4996 36.2968C37.3105 36.485 37.0029 36.486 36.8138 36.2958C36.6246 36.1066 36.6246 35.7991 36.8138 35.6099L39.0014 33.4271C40.5332 31.8953 42.1776 31.7828 43.5115 33.1167C43.6027 33.2079 43.6532 33.3311 43.6532 33.4601C43.6532 33.5892 43.6018 33.7124 43.5115 33.8036L39.2556 38.0527C39.1624 38.1468 39.0383 38.1944 38.9141 38.1944Z" fill="#6425D3"/>
<path d="M38.5707 38.0527L36.2782 40.3335L36.287 40.3423L36.2958 40.351L38.5707 38.0527ZM38.5707 37.3659L36.2857 35.0775L36.2782 35.0851L38.5707 37.3659ZM42.4531 33.4892L44.738 35.7776L47.4876 33.0321L44.2885 30.8268L42.4531 33.4892ZM39.6873 34.114L41.9714 36.4031L41.9728 36.4017L39.6873 34.114ZM37.4996 36.2968L39.7804 38.5893L39.7837 38.5859L37.4996 36.2968ZM36.8138 36.2958L39.1062 34.015L39.1004 34.0092L36.8138 36.2958ZM36.8138 35.6099L34.5297 33.3208L34.5271 33.3233L36.8138 35.6099ZM39.0014 33.4271L41.2855 35.7163L41.288 35.7138L39.0014 33.4271ZM43.5115 33.8036L45.7963 36.092L45.8034 36.085L45.8103 36.0779L43.5115 33.8036ZM39.2556 38.0527L36.9708 35.7643L36.9639 35.7711L36.9571 35.778L39.2556 38.0527ZM38.9141 34.9606C39.6151 34.9606 40.3164 35.2307 40.8455 35.7544L36.2958 40.351C37.0151 41.063 37.9648 41.4281 38.9141 41.4281V34.9606ZM40.8631 35.772C41.929 36.8433 41.929 38.5753 40.8631 39.6466L36.2782 35.0851C34.834 36.5368 34.834 38.8818 36.2782 40.3335L40.8631 35.772ZM40.8556 39.6542L44.738 35.7776L40.1682 31.2009L36.2858 35.0775L40.8556 39.6542ZM44.2885 30.8268C43.1856 30.0664 41.8276 29.7386 40.4154 30.0576C39.1375 30.3463 38.1372 31.0916 37.4018 31.8263L41.9728 36.4017C42.2318 36.143 42.1943 36.2863 41.8407 36.3662C41.643 36.4108 41.4002 36.4216 41.1448 36.3682C40.8949 36.3159 40.7169 36.22 40.6177 36.1517L44.2885 30.8268ZM37.4032 31.8248L35.2156 34.0076L39.7837 38.5859L41.9714 36.4031L37.4032 31.8248ZM35.2189 34.0043C36.2847 32.9439 38.0248 32.9281 39.1062 34.0151L34.5213 38.5766C35.9811 40.0439 38.3362 40.0261 39.7804 38.5893L35.2189 34.0043ZM39.1004 34.0092C40.1741 35.0829 40.1741 36.8229 39.1004 37.8966L34.5271 33.3233C33.0751 34.7754 33.0751 37.1304 34.5271 38.5824L39.1004 34.0092ZM39.0978 37.8991L41.2855 35.7163L36.7173 31.138L34.5297 33.3208L39.0978 37.8991ZM41.288 35.7138C41.4847 35.5171 41.6172 35.4346 41.6688 35.4075C41.7148 35.3833 41.6721 35.4152 41.5524 35.4234C41.4947 35.4274 41.4314 35.4248 41.3671 35.414C41.303 35.4032 41.2499 35.3864 41.2106 35.3699C41.1313 35.3367 41.1416 35.32 41.2249 35.4033L45.7982 30.8301C44.6031 29.6351 42.9834 28.8423 41.109 28.9711C39.3197 29.0941 37.8343 30.021 36.7148 31.1405L41.288 35.7138ZM41.2249 35.4033C40.7024 34.8808 40.4194 34.1785 40.4194 33.4601H46.8869C46.8869 32.4837 46.503 31.535 45.7982 30.8301L41.2249 35.4033ZM40.4194 33.4601C40.4194 32.727 40.7114 32.0359 41.2127 31.5292L45.8103 36.0779C46.4921 35.3888 46.8869 34.4513 46.8869 33.4601H40.4194ZM41.2267 31.5151L36.9708 35.7643L41.5404 40.3412L45.7963 36.092L41.2267 31.5151ZM36.9571 35.778C37.502 35.2275 38.2193 34.9606 38.9141 34.9606V41.4281C39.8573 41.4281 40.8229 41.0662 41.554 40.3275L36.9571 35.778Z" fill="#6425D3" mask="url(#path-18-inside-6_5602_47720)"/>
<mask id="path-20-inside-7_5602_47720" fill="white">
<path d="M34.0289 28.5197C33.766 28.5197 33.5031 28.4984 33.2402 28.4547C31.9848 28.2462 30.8847 27.5603 30.1426 26.5222C29.4004 25.4842 29.1074 24.2211 29.315 22.9657C29.4615 22.0887 30.292 21.4921 31.1709 21.6396C32.0479 21.7851 32.6436 22.6184 32.4971 23.4954C32.4389 23.8447 32.5048 24.2065 32.6795 24.5121C32.8133 24.745 32.7328 25.0409 32.5 25.1747C32.2701 25.3057 31.9722 25.2281 31.8374 24.9953C31.5512 24.4966 31.4454 23.9077 31.5386 23.3373C31.5968 22.9871 31.3591 22.6543 31.0099 22.5961C30.6587 22.5408 30.3279 22.7746 30.2696 23.1248C30.1038 24.1241 30.3376 25.1301 30.9293 25.9576C31.5211 26.7851 32.3981 27.3323 33.3973 27.4982C33.6719 27.5428 33.9503 27.5603 34.222 27.5448C34.4946 27.5389 34.7187 27.7368 34.7313 28.0036C34.7458 28.2714 34.5402 28.4994 34.2724 28.5139C34.1938 28.5178 34.1114 28.5197 34.0289 28.5197Z"/>
</mask>
<path d="M34.0289 28.5197C33.766 28.5197 33.5031 28.4984 33.2402 28.4547C31.9848 28.2462 30.8847 27.5603 30.1426 26.5222C29.4004 25.4842 29.1074 24.2211 29.315 22.9657C29.4615 22.0887 30.292 21.4921 31.1709 21.6396C32.0479 21.7851 32.6436 22.6184 32.4971 23.4954C32.4389 23.8447 32.5048 24.2065 32.6795 24.5121C32.8133 24.745 32.7328 25.0409 32.5 25.1747C32.2701 25.3057 31.9722 25.2281 31.8374 24.9953C31.5512 24.4966 31.4454 23.9077 31.5386 23.3373C31.5968 22.9871 31.3591 22.6543 31.0099 22.5961C30.6587 22.5408 30.3279 22.7746 30.2696 23.1248C30.1038 24.1241 30.3376 25.1301 30.9293 25.9576C31.5211 26.7851 32.3981 27.3323 33.3973 27.4982C33.6719 27.5428 33.9503 27.5603 34.222 27.5448C34.4946 27.5389 34.7187 27.7368 34.7313 28.0036C34.7458 28.2714 34.5402 28.4994 34.2724 28.5139C34.1938 28.5178 34.1114 28.5197 34.0289 28.5197Z" fill="#6425D3"/>
<path d="M33.2402 28.4547L32.7102 31.6448L32.7105 31.6448L33.2402 28.4547ZM29.315 22.9657L26.1255 22.433L26.1246 22.4381L29.315 22.9657ZM31.1709 21.6396L30.6358 24.8288L30.6416 24.8297L31.1709 21.6396ZM32.4971 23.4954L29.3075 22.9627L29.3073 22.9638L32.4971 23.4954ZM32.6795 24.5121L29.8717 26.1165L29.8761 26.1241L32.6795 24.5121ZM32.5 25.1747L34.1006 27.9846L34.1119 27.9781L32.5 25.1747ZM31.8374 24.9953L29.0327 26.605L29.0391 26.616L31.8374 24.9953ZM31.5386 23.3373L28.3486 22.8071L28.3471 22.8162L31.5386 23.3373ZM31.0099 22.5961L31.5415 19.4064L31.5272 19.404L31.5128 19.4017L31.0099 22.5961ZM30.2696 23.1248L27.0796 22.5947L27.0795 22.5952L30.2696 23.1248ZM33.3973 27.4982L32.8677 30.6883L32.8785 30.6901L33.3973 27.4982ZM34.222 27.5448L34.1529 24.3117L34.0952 24.313L34.0375 24.3163L34.222 27.5448ZM34.7313 28.0036L31.5011 28.1563L31.5017 28.1677L31.5023 28.1791L34.7313 28.0036ZM34.2724 28.5139L34.4319 31.7438L34.4399 31.7434L34.4479 31.7429L34.2724 28.5139ZM34.0289 25.286C33.9419 25.286 33.8562 25.279 33.7699 25.2647L32.7105 31.6448C33.15 31.7178 33.5901 31.7535 34.0289 31.7535V25.286ZM33.7702 25.2647C33.3625 25.197 33.0174 24.9831 32.7732 24.6415L27.512 28.403C28.7521 30.1375 30.6072 31.2954 32.7102 31.6448L33.7702 25.2647ZM32.7732 24.6415C32.5292 24.3003 32.4377 23.9033 32.5055 23.4934L26.1246 22.4381C25.7772 24.5389 26.2716 26.6681 27.512 28.403L32.7732 24.6415ZM32.5046 23.4985C32.3584 24.3737 31.5294 24.9787 30.6358 24.8288L31.706 18.4504C29.0545 18.0056 26.5646 19.8038 26.1255 22.433L32.5046 23.4985ZM30.6416 24.8297C29.7557 24.6827 29.1595 23.8489 29.3075 22.9627L35.6866 24.0282C36.1277 21.388 34.3401 18.8875 31.7002 18.4494L30.6416 24.8297ZM29.3073 22.9638C29.1257 24.0534 29.3304 25.1691 29.8718 26.1165L35.4871 22.9077C35.6793 23.2439 35.752 23.6359 35.6868 24.0271L29.3073 22.9638ZM29.8761 26.1241C29.1157 24.8017 29.5796 23.1237 30.888 22.3714L34.1119 27.9781C35.886 26.958 36.511 24.6883 35.4828 22.9002L29.8761 26.1241ZM30.8994 22.3649C32.2004 21.6238 33.8725 22.0567 34.6357 23.3746L29.0391 26.616C30.072 28.3994 32.3398 28.9876 34.1005 27.9846L30.8994 22.3649ZM34.642 23.3856C34.7292 23.5374 34.7557 23.7018 34.7301 23.8584L28.3471 22.8162C28.1352 24.1137 28.3732 25.4559 29.0327 26.6049L34.642 23.3856ZM34.7286 23.8675C35.0789 21.76 33.6558 19.7587 31.5415 19.4064L30.4782 25.7859C29.0625 25.5499 28.1147 24.2142 28.3486 22.8071L34.7286 23.8675ZM31.5128 19.4017C29.4457 19.0762 27.4351 20.4559 27.0796 22.5947L33.4597 23.655C33.2206 25.0934 31.8717 26.0054 30.5069 25.7905L31.5128 19.4017ZM27.0795 22.5952C26.7728 24.4429 27.2098 26.3156 28.299 27.8387L33.5597 24.0766C33.4653 23.9446 33.4347 23.8052 33.4598 23.6545L27.0795 22.5952ZM28.299 27.8387C29.3877 29.3612 31.019 30.3814 32.8677 30.6883L33.927 24.3081C33.7772 24.2832 33.6545 24.2091 33.5597 24.0766L28.299 27.8387ZM32.8785 30.6901C33.3593 30.7682 33.8746 30.8036 34.4064 30.7733L34.0375 24.3163C34.026 24.3169 33.9845 24.3174 33.9162 24.3063L32.8785 30.6901ZM34.291 30.7778C32.937 30.8067 31.5771 29.7646 31.5011 28.1563L37.9614 27.8509C37.8602 25.7091 36.0521 24.2712 34.1529 24.3117L34.291 30.7778ZM31.5023 28.1791C31.4193 26.6527 32.5922 25.3667 34.0969 25.2849L34.4479 31.7429C36.4881 31.632 38.0723 29.8901 37.9603 27.8281L31.5023 28.1791ZM34.1129 25.2841C34.0911 25.2852 34.062 25.286 34.0289 25.286V31.7535C34.1608 31.7535 34.2965 31.7504 34.4319 31.7438L34.1129 25.2841Z" fill="#6425D3" mask="url(#path-20-inside-7_5602_47720)"/>
<mask id="path-22-inside-8_5602_47720" fill="white">
<path d="M31.2099 35.0535C30.7656 35.0535 30.2932 35.0109 29.7887 34.9177C28.4771 34.6752 27.407 33.9204 26.7745 32.7902C26.3389 32.0132 25.9741 30.7976 26.2196 29.0164C26.0401 29.1008 25.8645 29.1532 25.6947 29.194C25.0224 29.356 24.0581 29.0727 23.4974 28.5508C23.0725 28.154 22.8872 27.6388 22.9774 27.1004C23.056 26.6357 23.2849 26.2661 23.64 26.0304C24.0445 25.7626 24.5306 25.7189 24.8692 25.7393C25.5463 23.9504 26.9753 23.0744 28.6012 23.4896C29.3182 23.6729 29.9012 24.1163 30.2864 24.7711C30.9878 25.9615 30.9257 27.5797 30.6337 28.6963C30.5667 28.9553 30.3048 29.1096 30.0429 29.0436C29.7829 28.9757 29.6276 28.7108 29.6965 28.4518C29.9264 27.5651 30.0011 26.1992 29.4511 25.264C29.195 24.8303 28.8283 24.549 28.3607 24.4296C27.1276 24.1124 26.1274 24.8555 25.6685 26.4077C25.5948 26.6542 25.3455 26.7997 25.0913 26.7424C24.9332 26.7065 24.4559 26.6542 24.1745 26.8424C24.093 26.8977 23.9795 27.0005 23.9349 27.2634C23.9213 27.342 23.8806 27.5826 24.159 27.8426C24.5374 28.1947 25.1893 28.3189 25.4677 28.252C25.8111 28.1695 26.2681 28.0589 26.7599 26.8356C26.8152 26.6765 26.8734 26.5145 26.9375 26.3495C27.0316 26.1031 27.3032 25.9751 27.5545 26.0663C27.8028 26.1555 27.9348 26.4262 27.8513 26.6765C27.7922 26.8501 27.7339 27.0112 27.6738 27.1615C26.9394 29.291 26.921 31.0663 27.6214 32.3178C28.1104 33.1909 28.9427 33.7759 29.9662 33.9651C34.2736 34.7586 35.8995 31.3981 36.8687 29.388C37.1976 28.705 37.3964 28.2937 37.6778 28.0929C37.7641 28.0317 37.9349 27.9386 38.1667 27.8164C39.3212 27.21 42.0259 25.7888 42.3315 23.1258C42.5886 20.9032 40.983 18.7942 38.7556 18.4245C37.7001 18.248 36.6291 18.4954 35.753 19.1211C34.878 19.7468 34.2988 20.6762 34.1223 21.7375C34.097 21.9451 33.9379 22.1828 33.7332 22.2236C33.0939 22.3507 32.6118 22.8445 32.506 23.4799C32.3983 24.127 32.7185 24.7731 33.3035 25.0884C33.5392 25.2155 33.6275 25.5094 33.5004 25.7451C33.3723 25.9809 33.0803 26.0692 32.8427 25.943C31.8929 25.4318 31.3719 24.3782 31.5485 23.3208C31.6989 22.4147 32.3459 21.6638 33.2045 21.364C33.4597 20.1417 34.1581 19.0677 35.1875 18.3324C36.273 17.5553 37.5963 17.2487 38.9137 17.467C41.6427 17.9201 43.6082 20.5084 43.2948 23.2364C42.9291 26.4097 39.7965 28.055 38.6169 28.6749C38.4403 28.7681 38.3084 28.834 38.2414 28.8806C38.1473 28.9679 37.9223 29.4345 37.7408 29.809C36.891 31.5727 35.2107 35.0535 31.2099 35.0535Z"/>
</mask>
<path d="M31.2099 35.0535C30.7656 35.0535 30.2932 35.0109 29.7887 34.9177C28.4771 34.6752 27.407 33.9204 26.7745 32.7902C26.3389 32.0132 25.9741 30.7976 26.2196 29.0164C26.0401 29.1008 25.8645 29.1532 25.6947 29.194C25.0224 29.356 24.0581 29.0727 23.4974 28.5508C23.0725 28.154 22.8872 27.6388 22.9774 27.1004C23.056 26.6357 23.2849 26.2661 23.64 26.0304C24.0445 25.7626 24.5306 25.7189 24.8692 25.7393C25.5463 23.9504 26.9753 23.0744 28.6012 23.4896C29.3182 23.6729 29.9012 24.1163 30.2864 24.7711C30.9878 25.9615 30.9257 27.5797 30.6337 28.6963C30.5667 28.9553 30.3048 29.1096 30.0429 29.0436C29.7829 28.9757 29.6276 28.7108 29.6965 28.4518C29.9264 27.5651 30.0011 26.1992 29.4511 25.264C29.195 24.8303 28.8283 24.549 28.3607 24.4296C27.1276 24.1124 26.1274 24.8555 25.6685 26.4077C25.5948 26.6542 25.3455 26.7997 25.0913 26.7424C24.9332 26.7065 24.4559 26.6542 24.1745 26.8424C24.093 26.8977 23.9795 27.0005 23.9349 27.2634C23.9213 27.342 23.8806 27.5826 24.159 27.8426C24.5374 28.1947 25.1893 28.3189 25.4677 28.252C25.8111 28.1695 26.2681 28.0589 26.7599 26.8356C26.8152 26.6765 26.8734 26.5145 26.9375 26.3495C27.0316 26.1031 27.3032 25.9751 27.5545 26.0663C27.8028 26.1555 27.9348 26.4262 27.8513 26.6765C27.7922 26.8501 27.7339 27.0112 27.6738 27.1615C26.9394 29.291 26.921 31.0663 27.6214 32.3178C28.1104 33.1909 28.9427 33.7759 29.9662 33.9651C34.2736 34.7586 35.8995 31.3981 36.8687 29.388C37.1976 28.705 37.3964 28.2937 37.6778 28.0929C37.7641 28.0317 37.9349 27.9386 38.1667 27.8164C39.3212 27.21 42.0259 25.7888 42.3315 23.1258C42.5886 20.9032 40.983 18.7942 38.7556 18.4245C37.7001 18.248 36.6291 18.4954 35.753 19.1211C34.878 19.7468 34.2988 20.6762 34.1223 21.7375C34.097 21.9451 33.9379 22.1828 33.7332 22.2236C33.0939 22.3507 32.6118 22.8445 32.506 23.4799C32.3983 24.127 32.7185 24.7731 33.3035 25.0884C33.5392 25.2155 33.6275 25.5094 33.5004 25.7451C33.3723 25.9809 33.0803 26.0692 32.8427 25.943C31.8929 25.4318 31.3719 24.3782 31.5485 23.3208C31.6989 22.4147 32.3459 21.6638 33.2045 21.364C33.4597 20.1417 34.1581 19.0677 35.1875 18.3324C36.273 17.5553 37.5963 17.2487 38.9137 17.467C41.6427 17.9201 43.6082 20.5084 43.2948 23.2364C42.9291 26.4097 39.7965 28.055 38.6169 28.6749C38.4403 28.7681 38.3084 28.834 38.2414 28.8806C38.1473 28.9679 37.9223 29.4345 37.7408 29.809C36.891 31.5727 35.2107 35.0535 31.2099 35.0535Z" fill="#6425D3"/>
<path d="M29.7887 34.9177L29.2007 38.0976L29.2016 38.0978L29.7887 34.9177ZM26.7745 32.7902L29.5964 31.2109L29.5953 31.209L26.7745 32.7902ZM26.2196 29.0164L29.4231 29.4579L30.2366 23.5538L24.8434 26.0901L26.2196 29.0164ZM25.6947 29.194L24.9401 26.0495L24.9371 26.0502L25.6947 29.194ZM23.4974 28.5508L21.2903 30.9143L21.2941 30.9178L23.4974 28.5508ZM22.9774 27.1004L19.7889 26.5612L19.7881 26.566L22.9774 27.1004ZM23.64 26.0304L21.8552 23.3337L21.8513 23.3363L23.64 26.0304ZM24.8692 25.7393L24.6749 28.9672L27.0509 29.1102L27.8935 26.8841L24.8692 25.7393ZM28.6012 23.4896L29.4025 20.3567L29.4014 20.3564L28.6012 23.4896ZM30.2864 24.7711L27.499 26.4105L27.5003 26.4128L30.2864 24.7711ZM30.6337 28.6963L27.5051 27.8781L27.5028 27.8872L30.6337 28.6963ZM30.0429 29.0436L29.2256 32.1724L29.2393 32.176L29.2531 32.1794L30.0429 29.0436ZM29.6965 28.4518L32.8217 29.2828L32.8243 29.2732L32.8268 29.2635L29.6965 28.4518ZM29.4511 25.264L32.2385 23.6245L32.2355 23.6195L29.4511 25.264ZM28.3607 24.4296L27.5549 27.5614L27.5611 27.563L28.3607 24.4296ZM25.6685 26.4077L28.7666 27.3347L28.7696 27.3245L25.6685 26.4077ZM25.0913 26.7424L24.3755 29.896L24.3809 29.8972L25.0913 26.7424ZM24.1745 26.8424L22.3765 24.1546L22.3676 24.1605L22.3588 24.1665L24.1745 26.8424ZM23.9349 27.2634L27.1215 27.8142L27.1231 27.8046L23.9349 27.2634ZM24.159 27.8426L21.952 30.2061L21.9558 30.2097L24.159 27.8426ZM25.4677 28.252L24.7127 25.1076L24.7118 25.1078L25.4677 28.252ZM26.7599 26.8356L29.7603 28.0419L29.7891 27.9702L29.8145 27.8972L26.7599 26.8356ZM26.9375 26.3495L29.952 27.5199L29.9553 27.5116L29.9584 27.5032L26.9375 26.3495ZM27.5545 26.0663L26.4512 29.106L26.4608 29.1095L27.5545 26.0663ZM27.8513 26.6765L30.9122 27.7196L30.9157 27.7093L30.9192 27.6991L27.8513 26.6765ZM27.6738 27.1615L24.6713 25.9605L24.6422 26.0332L24.6167 26.1072L27.6738 27.1615ZM27.6214 32.3178L24.7996 33.8971L24.7999 33.8978L27.6214 32.3178ZM29.9662 33.9651L29.3785 37.145L29.3803 37.1453L29.9662 33.9651ZM36.8687 29.388L39.7816 30.7924L39.7823 30.791L36.8687 29.388ZM37.6778 28.0929L35.8094 25.4534L35.7991 25.4608L37.6778 28.0929ZM38.1667 27.8164L36.6631 24.9534L36.6586 24.9558L38.1667 27.8164ZM42.3315 23.1258L39.1191 22.7542L39.1188 22.7571L42.3315 23.1258ZM38.7556 18.4245L38.2221 21.614L38.2262 21.6147L38.7556 18.4245ZM35.753 19.1211L33.8735 16.4897L33.8721 16.4907L35.753 19.1211ZM34.1223 21.7375L30.9323 21.2069L30.9207 21.277L30.9121 21.3475L34.1223 21.7375ZM33.7332 22.2236L34.3637 25.3953L34.3645 25.3951L33.7332 22.2236ZM32.506 23.4799L35.6959 24.0107L35.6959 24.0107L32.506 23.4799ZM33.3035 25.0884L34.838 22.2419L34.8377 22.2417L33.3035 25.0884ZM33.5004 25.7451L36.342 27.2887L36.3469 27.2797L33.5004 25.7451ZM32.8427 25.943L31.3099 28.7905L31.3184 28.7951L31.3269 28.7996L32.8427 25.943ZM31.5485 23.3208L34.7381 23.8534L34.7386 23.8502L31.5485 23.3208ZM33.2045 21.364L34.2705 24.4171L35.9965 23.8144L36.3701 22.0248L33.2045 21.364ZM35.1875 18.3324L37.0673 20.9636L37.0697 20.9619L35.1875 18.3324ZM38.9137 17.467L39.4433 14.2769L39.4423 14.2767L38.9137 17.467ZM43.2948 23.2364L46.5073 23.6066L46.5075 23.6054L43.2948 23.2364ZM38.6169 28.6749L37.1126 25.8123L37.1082 25.8147L38.6169 28.6749ZM38.2414 28.8806L36.3947 26.226L36.2084 26.3556L36.0419 26.51L38.2414 28.8806ZM37.7408 29.809L34.8306 28.3991L34.8276 28.4053L37.7408 29.809ZM31.2099 31.8198C30.9741 31.8198 30.6983 31.7972 30.3758 31.7377L29.2016 38.0978C29.888 38.2245 30.5571 38.2873 31.2099 38.2873V31.8198ZM30.3767 31.7379C29.9768 31.6639 29.7427 31.4725 29.5964 31.2109L23.9526 34.3695C25.0713 36.3684 26.9773 37.6865 29.2007 38.0976L30.3767 31.7379ZM29.5953 31.209C29.5146 31.065 29.2709 30.5625 29.4231 29.4579L23.0161 28.575C22.6774 31.0327 23.1632 32.9613 23.9537 34.3714L29.5953 31.209ZM24.8434 26.0901C24.9351 26.047 24.9903 26.0374 24.9401 26.0495L26.4494 32.3384C26.7387 32.269 27.1451 32.1547 27.5957 31.9428L24.8434 26.0901ZM24.9371 26.0502C25.1392 26.0015 25.2826 26.0037 25.3454 26.0075C25.4132 26.0117 25.4505 26.0217 25.4636 26.0256C25.4777 26.0297 25.4959 26.0362 25.5236 26.0511C25.5491 26.065 25.614 26.1031 25.7006 26.1837L21.2941 30.9178C22.0068 31.5811 22.8587 32.0017 23.6449 32.2321C24.4122 32.457 25.4164 32.5874 26.4523 32.3377L24.9371 26.0502ZM25.7044 26.1872C25.8339 26.3082 25.9872 26.5058 26.088 26.7865C26.1904 27.0721 26.2112 27.3694 26.1667 27.6348L19.7881 26.566C19.5045 28.2581 20.1372 29.8375 21.2904 30.9143L25.7044 26.1872ZM26.1659 27.6396C26.1423 27.7792 26.0838 27.9729 25.9543 28.1821C25.8223 28.3953 25.6416 28.5831 25.4287 28.7244L21.8513 23.3363C20.6695 24.121 19.9991 25.3184 19.7889 26.5612L26.1659 27.6396ZM25.4248 28.727C25.1987 28.8766 25.0019 28.9305 24.8987 28.9507C24.7966 28.9706 24.7236 28.9702 24.6749 28.9672L25.0634 22.5114C24.3733 22.4699 23.0804 22.5228 21.8552 23.3337L25.4248 28.727ZM27.8935 26.8841C28.0317 26.5191 28.1496 26.4964 28.0546 26.5539C28.0079 26.5823 27.9421 26.6077 27.871 26.6176C27.8015 26.6272 27.773 26.6156 27.8011 26.6228L29.4014 20.3564C27.7916 19.9453 26.1298 20.1585 24.7042 21.0219C23.3189 21.8609 22.3838 23.1706 21.8448 24.5945L27.8935 26.8841ZM27.8 26.6225C27.7501 26.6097 27.6799 26.5802 27.6107 26.5276C27.5424 26.4756 27.5085 26.4267 27.499 26.4105L33.0738 23.1317C32.2648 21.7563 30.9783 20.7597 29.4025 20.3567L27.8 26.6225ZM27.5003 26.4128C27.5123 26.4332 27.5855 26.5863 27.603 26.9275C27.6201 27.2588 27.5752 27.61 27.5051 27.8781L33.7622 29.5144C34.1587 27.9983 34.3952 25.3743 33.0724 23.1295L27.5003 26.4128ZM27.5028 27.8872C27.8867 26.4016 29.3934 25.5453 30.8326 25.9077L29.2531 32.1794C31.2162 32.6738 33.2468 31.509 33.7646 29.5054L27.5028 27.8872ZM30.8601 25.9148C32.3217 26.2965 33.2163 27.7988 32.8217 29.2828L26.5714 27.6208C26.039 29.6229 27.244 31.6548 29.2256 32.1724L30.8601 25.9148ZM32.8268 29.2635C33.0135 28.5432 33.1319 27.6654 33.0978 26.7549C33.0646 25.8689 32.8775 24.711 32.2384 23.6245L26.6637 26.9034C26.6124 26.8162 26.6056 26.7714 26.6123 26.7989C26.6188 26.8256 26.6308 26.8911 26.6348 26.9972C26.6433 27.2252 26.6094 27.4737 26.5663 27.6401L32.8268 29.2635ZM32.2355 23.6195C31.5657 22.4855 30.5052 21.6395 29.1602 21.2963L27.5611 27.563C27.3915 27.5197 27.1995 27.4345 27.0193 27.2965C26.8415 27.1604 26.7293 27.0145 26.6667 26.9084L32.2355 23.6195ZM29.1664 21.2979C27.6733 20.9137 26.1021 21.1591 24.8058 22.1145C23.6037 23.0004 22.9257 24.2791 22.5674 25.491L28.7696 27.3245C28.8702 26.9842 28.9218 27.1152 28.6428 27.3208C28.4923 27.4318 28.29 27.5274 28.0564 27.5694C27.827 27.6106 27.6492 27.5857 27.5549 27.5614L29.1664 21.2979ZM22.5705 25.4808C22.9888 24.0826 24.4153 23.2755 25.8017 23.5877L24.3809 29.8972C26.2756 30.3239 28.2008 29.2257 28.7666 27.3347L22.5705 25.4808ZM25.8071 23.5889C25.472 23.5128 25.0355 23.4606 24.5689 23.4765C24.1693 23.4901 23.2591 23.5641 22.3765 24.1546L25.9726 29.5302C25.6434 29.7504 25.3462 29.8439 25.1746 29.8854C24.9972 29.9283 24.8617 29.9378 24.7893 29.9402C24.6713 29.9443 24.5525 29.9362 24.3755 29.896L25.8071 23.5889ZM22.3588 24.1665C22.0953 24.3453 21.7026 24.6585 21.3594 25.1675C21.0232 25.6664 20.8348 26.2037 20.7468 26.7222L27.1231 27.8046C27.0797 28.0602 26.9703 28.4147 26.7224 28.7825C26.4675 29.1606 26.1723 29.3947 25.9903 29.5182L22.3588 24.1665ZM20.7484 26.7126C20.7223 26.8638 20.6169 27.4541 20.7817 28.1908C20.9538 28.9603 21.361 29.6543 21.952 30.2061L26.3661 25.479C26.6786 25.7709 26.967 26.2145 27.0933 26.7791C27.1514 27.0389 27.1638 27.2747 27.1566 27.4688C27.1531 27.5647 27.145 27.6469 27.1368 27.7109C27.129 27.7722 27.1204 27.8201 27.1214 27.8142L20.7484 26.7126ZM21.9558 30.2097C22.6446 30.8508 23.4299 31.1691 24.0017 31.3247C24.4952 31.459 25.3341 31.61 26.2236 31.3961L24.7118 25.1078C25.0823 25.0187 25.3522 25.0346 25.4338 25.0405C25.5504 25.049 25.6367 25.0669 25.7 25.0841C25.7817 25.1064 26.0517 25.1865 26.3622 25.4755L21.9558 30.2097ZM26.2227 31.3964C26.4855 31.3333 27.3431 31.1425 28.1848 30.4077C28.9348 29.753 29.4137 28.904 29.7603 28.0419L23.7596 25.6292C23.6143 25.9905 23.6188 25.8084 23.9315 25.5355C24.1039 25.385 24.3031 25.2654 24.504 25.1819C24.672 25.112 24.8128 25.0835 24.7127 25.1076L26.2227 31.3964ZM29.8145 27.8972C29.8626 27.7588 29.9069 27.636 29.952 27.5199L23.9229 25.1792C23.84 25.3929 23.7679 25.5941 23.7054 25.7739L29.8145 27.8972ZM29.9584 27.5032C29.4328 28.8796 27.8851 29.6264 26.4512 29.106L28.6577 23.0265C26.7213 22.3237 24.6303 23.3266 23.9165 25.1959L29.9584 27.5032ZM26.4608 29.1095C25.0617 28.6067 24.3095 27.0758 24.7835 25.6539L30.9192 27.6991C31.56 25.7766 30.544 23.7044 28.6481 23.023L26.4608 29.1095ZM24.7904 25.6334C24.7424 25.7744 24.7039 25.8791 24.6713 25.9605L30.6763 28.3625C30.764 28.1432 30.842 27.9258 30.9122 27.7196L24.7904 25.6334ZM24.6167 26.1072C23.7515 28.6161 23.4456 31.4781 24.7996 33.8971L30.4433 30.7384C30.3963 30.6546 30.1273 29.9658 30.7309 28.2158L24.6167 26.1072ZM24.7999 33.8978C25.7795 35.6471 27.4525 36.789 29.3785 37.145L30.554 30.7852C30.5144 30.7778 30.4886 30.769 30.4741 30.763C30.4598 30.757 30.4535 30.7527 30.4524 30.7519C30.4517 30.7514 30.4515 30.7512 30.4518 30.7515C30.452 30.7517 30.4521 30.7518 30.452 30.7517C30.4519 30.7516 30.4512 30.7507 30.4498 30.7488C30.4484 30.7469 30.446 30.7433 30.4429 30.7377L24.7999 33.8978ZM29.3803 37.1453C32.5925 37.7371 35.0976 36.7469 36.8724 35.095C38.4504 33.6264 39.3312 31.7265 39.7816 30.7924L33.9558 27.9836C33.437 29.0596 33.0202 29.845 32.4661 30.3608C32.2327 30.578 32.0148 30.7036 31.7859 30.7731C31.5608 30.8415 31.1793 30.9003 30.5521 30.7848L29.3803 37.1453ZM39.7823 30.791C39.8674 30.6143 39.9288 30.4869 39.9832 30.3789C40.0374 30.271 40.0651 30.2217 40.0754 30.2042C40.0862 30.1859 40.0553 30.2416 39.9824 30.3308C39.9053 30.425 39.7669 30.5747 39.5565 30.7249L35.7991 25.4608C35.1146 25.9494 34.7181 26.5572 34.5067 26.915C34.2955 27.2726 34.0984 27.6875 33.9551 27.985L39.7823 30.791ZM39.5461 30.7323C39.5112 30.757 39.4837 30.7751 39.4671 30.7858C39.4499 30.7969 39.4379 30.8042 39.4328 30.8073C39.4238 30.8128 39.4271 30.8106 39.4483 30.7987C39.4685 30.7874 39.4971 30.7717 39.5366 30.7504C39.5758 30.7294 39.6213 30.7052 39.6748 30.677L36.6586 24.9558C36.5007 25.0391 36.1087 25.2416 35.8094 25.4534L39.5461 30.7323ZM39.6704 30.6793C40.2402 30.38 41.5299 29.7144 42.7169 28.6583C43.9166 27.5909 45.2684 25.8977 45.5442 23.4945L39.1188 22.7571C39.089 23.0169 38.9356 23.3658 38.4179 23.8264C37.8876 24.2982 37.2477 24.6464 36.6631 24.9534L39.6704 30.6793ZM45.5438 23.4974C46.0023 19.5339 43.1849 15.8816 39.285 15.2344L38.2262 21.6147C38.4739 21.6558 38.7202 21.7999 38.9017 22.0384C39.0829 22.2766 39.1445 22.5354 39.1192 22.7542L45.5438 23.4974ZM39.2891 15.2351C37.385 14.9166 35.4462 15.3663 33.8735 16.4897L37.6326 21.7525C37.8119 21.6244 38.0152 21.5794 38.2221 21.614L39.2891 15.2351ZM33.8721 16.4907C32.2992 17.6154 31.2495 19.3002 30.9323 21.2069L37.3122 22.2682C37.3481 22.0522 37.4567 21.8783 37.634 21.7515L33.8721 16.4907ZM30.9121 21.3475C30.9734 20.843 31.1662 20.4221 31.4172 20.0907C31.6556 19.7759 32.1894 19.2337 33.1019 19.052L34.3645 25.3951C35.4818 25.1727 36.1974 24.4913 36.5729 23.9955C36.9609 23.4833 37.2459 22.8397 37.3324 22.1276L30.9121 21.3475ZM33.1027 19.0519C31.1641 19.4372 29.646 20.9666 29.3161 22.949L35.6959 24.0107C35.5775 24.7223 35.0237 25.2641 34.3637 25.3953L33.1027 19.0519ZM29.3161 22.949C28.9776 24.9832 29.9877 26.9748 31.7692 27.935L34.8377 22.2417C35.4493 22.5713 35.8191 23.2707 35.6959 24.0107L29.3161 22.949ZM31.7689 27.9349C30.4352 27.2159 29.9321 25.5496 30.6539 24.2106L36.3469 27.2797C37.3229 25.4692 36.6432 23.215 34.838 22.2419L31.7689 27.9349ZM30.6588 24.2016C31.3774 22.8788 33.0293 22.3813 34.3584 23.0865L31.3269 28.7996C33.1314 29.757 35.3673 29.083 36.342 27.2887L30.6588 24.2016ZM34.3754 23.0956C34.6308 23.2331 34.792 23.5305 34.7381 23.8534L28.3589 22.7882C27.9519 25.226 29.155 27.6305 31.3099 28.7905L34.3754 23.0956ZM34.7386 23.8502C34.6912 24.1358 34.5034 24.3357 34.2705 24.4171L32.1385 18.311C30.1884 18.9919 28.7065 20.6936 28.3584 22.7914L34.7386 23.8502ZM36.3701 22.0248C36.4588 21.5994 36.6971 21.2281 37.0673 20.9636L33.3076 15.7011C31.6192 16.9074 30.4605 18.6839 30.039 20.7033L36.3701 22.0248ZM37.0697 20.9619C37.456 20.6854 37.9116 20.5788 38.3851 20.6573L39.4423 14.2767C37.2809 13.9186 35.0901 14.4252 33.3052 15.7029L37.0697 20.9619ZM38.3841 20.6571C39.4341 20.8314 40.1966 21.8718 40.0822 22.8674L46.5075 23.6054C47.0198 19.145 43.8513 15.0087 39.4433 14.2769L38.3841 20.6571ZM40.0823 22.8661C40.0196 23.4105 39.7166 23.9483 39.0886 24.5179C38.4462 25.1005 37.6981 25.5047 37.1126 25.8123L40.1211 31.5375C40.7153 31.2253 42.1233 30.4969 43.4336 29.3085C44.7582 28.1071 46.2043 26.2355 46.5073 23.6066L40.0823 22.8661ZM37.1082 25.8147C37.0702 25.8347 37.0356 25.8528 36.994 25.8745C36.9562 25.8943 36.9086 25.9192 36.8617 25.9443C36.8159 25.9689 36.7529 26.003 36.685 26.0423C36.6224 26.0785 36.5156 26.1419 36.3947 26.226L40.0881 31.5352C40.0638 31.5521 40.0423 31.5665 40.0243 31.5783C40.0062 31.5901 39.9904 31.6001 39.9773 31.6082C39.9519 31.6241 39.9325 31.6354 39.922 31.6415C39.9112 31.6477 39.9048 31.6513 39.9045 31.6514C39.9041 31.6517 39.9069 31.6501 39.9143 31.6461C39.9217 31.6422 39.9315 31.637 39.945 31.6299C39.9585 31.6228 39.9737 31.6148 39.9922 31.6051C40.0094 31.5962 40.0318 31.5844 40.0531 31.5733C40.0754 31.5616 40.0997 31.5488 40.1256 31.5352L37.1082 25.8147ZM36.0419 26.51C35.6366 26.8862 35.3939 27.3165 35.3769 27.3447C35.2902 27.4891 35.2127 27.634 35.155 27.7448C35.0384 27.9691 34.9144 28.2261 34.8306 28.3991L40.6511 31.2189C40.6979 31.1223 40.7413 31.0326 40.7842 30.9453C40.8272 30.8578 40.8633 30.786 40.8927 30.7294C40.9071 30.7017 40.9174 30.6825 40.924 30.6706C40.9312 30.6575 40.9298 30.6605 40.9211 30.675C40.9164 30.6828 40.9076 30.6973 40.8951 30.7167C40.8829 30.7357 40.8633 30.7654 40.8369 30.8026C40.8116 30.8382 40.7706 30.894 40.7152 30.961C40.6869 30.9954 40.6509 31.0372 40.6077 31.084C40.565 31.1303 40.5092 31.1878 40.4409 31.2512L36.0419 26.51ZM34.8276 28.4053C34.3888 29.316 33.9434 30.195 33.302 30.8765C32.7461 31.4672 32.1323 31.8198 31.2099 31.8198V38.2873C37.4745 38.2873 39.936 32.7029 40.6541 31.2127L34.8276 28.4053Z" fill="#6425D3" mask="url(#path-22-inside-8_5602_47720)"/>
</svg>
