<svg xmlns="http://www.w3.org/2000/svg" width="20" height="20" viewBox="0 0 20 20" fill="none">
  <path d="M13.934 12.9422L12.5011 11.5086V16.25C12.5011 16.4158 12.4353 16.5747 12.3181 16.6919C12.2009 16.8092 12.0419 16.875 11.8761 16.875C11.7104 16.875 11.5514 16.8092 11.4342 16.6919C11.317 16.5747 11.2511 16.4158 11.2511 16.25V11.5086L9.81834 12.9422C9.76027 13.0003 9.69133 13.0463 9.61546 13.0777C9.53959 13.1092 9.45827 13.1253 9.37615 13.1253C9.29403 13.1253 9.21271 13.1092 9.13684 13.0777C9.06097 13.0463 8.99203 13.0003 8.93396 12.9422C8.87589 12.8841 8.82983 12.8152 8.7984 12.7393C8.76698 12.6634 8.7508 12.5821 8.7508 12.5C8.7508 12.4179 8.76698 12.3366 8.7984 12.2607C8.82983 12.1848 8.87589 12.1159 8.93396 12.0578L11.434 9.55781C11.492 9.4997 11.5609 9.4536 11.6368 9.42215C11.7127 9.3907 11.794 9.37451 11.8761 9.37451C11.9583 9.37451 12.0396 9.3907 12.1155 9.42215C12.1914 9.4536 12.2603 9.4997 12.3183 9.55781L14.8183 12.0578C14.8764 12.1159 14.9225 12.1848 14.9539 12.2607C14.9853 12.3366 15.0015 12.4179 15.0015 12.5C15.0015 12.5821 14.9853 12.6634 14.9539 12.7393C14.9225 12.8152 14.8764 12.8841 14.8183 12.9422C14.7603 13.0003 14.6913 13.0463 14.6155 13.0777C14.5396 13.1092 14.4583 13.1253 14.3761 13.1253C14.294 13.1253 14.2127 13.1092 14.1368 13.0777C14.061 13.0463 13.992 13.0003 13.934 12.9422ZM12.5011 3.125C11.2242 3.12596 9.97278 3.4822 8.88679 4.15386C7.8008 4.82551 6.92312 5.78609 6.35193 6.92812C5.67187 6.82819 4.97851 6.86955 4.31515 7.04962C3.65179 7.22969 3.03269 7.5446 2.4965 7.97468C1.96031 8.40476 1.51856 8.94078 1.19884 9.54926C0.879111 10.1577 0.688278 10.8256 0.638258 11.5111C0.588237 12.1967 0.680102 12.8852 0.908116 13.5336C1.13613 14.1821 1.49539 14.7765 1.96347 15.2799C2.43155 15.7832 2.99839 16.1847 3.62858 16.4591C4.25877 16.7336 4.93879 16.8752 5.62615 16.875H8.75115C8.91691 16.875 9.07588 16.8092 9.19309 16.6919C9.3103 16.5747 9.37615 16.4158 9.37615 16.25C9.37615 16.0842 9.3103 15.9253 9.19309 15.8081C9.07588 15.6908 8.91691 15.625 8.75115 15.625H5.62615C4.63159 15.625 3.67776 15.2299 2.9745 14.5267C2.27124 13.8234 1.87615 12.8696 1.87615 11.875C1.87615 10.8804 2.27124 9.92661 2.9745 9.22335C3.67776 8.52009 4.63159 8.125 5.62615 8.125C5.71209 8.125 5.79802 8.125 5.88318 8.13438C5.71233 8.74152 5.62584 9.36928 5.62615 10C5.62615 10.1658 5.692 10.3247 5.80921 10.4419C5.92642 10.5592 6.08539 10.625 6.25115 10.625C6.41691 10.625 6.57588 10.5592 6.69309 10.4419C6.8103 10.3247 6.87615 10.1658 6.87615 10C6.8763 8.98591 7.1506 7.99071 7.67002 7.11974C8.18944 6.24877 8.93465 5.53441 9.8268 5.05227C10.7189 4.57013 11.7248 4.33814 12.738 4.38084C13.7512 4.42355 14.734 4.73937 15.5824 5.29487C16.4309 5.85038 17.1133 6.62491 17.5576 7.53651C18.0019 8.4481 18.1915 9.46284 18.1063 10.4734C18.0211 11.4839 17.6643 12.4526 17.0737 13.2769C16.4831 14.1013 15.6806 14.7506 14.7511 15.1562C14.6192 15.2135 14.511 15.3144 14.4448 15.4422C14.3786 15.5699 14.3585 15.7165 14.3879 15.8573C14.4173 15.9981 14.4943 16.1245 14.606 16.2151C14.7178 16.3057 14.8573 16.355 15.0011 16.3547C15.0873 16.3546 15.1724 16.3365 15.2511 16.3016C16.6991 15.67 17.8853 14.559 18.6104 13.1556C19.3354 11.7521 19.5551 10.1418 19.2323 8.59542C18.9096 7.04906 18.0642 5.66101 16.8383 4.66473C15.6124 3.66845 14.0808 3.12473 12.5011 3.125Z" fill="#464646"/>
</svg>