<svg width="20" height="20" viewBox="0 0 20 20" fill="none" xmlns="http://www.w3.org/2000/svg">
<g id="icon/reschedule">
<path id="Vector" d="M4.6787 17.5003C4.29481 17.5003 3.97453 17.3719 3.71786 17.1153C3.4612 16.8586 3.33259 16.5383 3.33203 16.1544V5.51276C3.33203 5.12943 3.46064 4.80943 3.71786 4.55276C3.97509 4.29609 4.29536 4.16748 4.6787 4.16693H6.15286V2.30859H7.05036V4.16693H13.012V2.30859H13.8454V4.16693H15.3195C15.7029 4.16693 16.0231 4.29554 16.2804 4.55276C16.5376 4.80998 16.6659 5.13026 16.6654 5.51359V9.68026H15.832V8.84693H4.16536V16.1544C4.16536 16.2822 4.2187 16.3997 4.32536 16.5069C4.43203 16.6142 4.54953 16.6675 4.67786 16.6669H9.87036V17.5003H4.6787ZM4.16536 8.01276H15.832V5.51276C15.832 5.38498 15.7787 5.26748 15.672 5.16026C15.5654 5.05304 15.4476 4.99971 15.3187 5.00026H4.6787C4.55036 5.00026 4.43259 5.05359 4.32536 5.16026C4.21814 5.26693 4.16481 5.38471 4.16536 5.51359V8.01276ZM11.857 17.5003V15.6586L16.302 11.2361C16.3843 11.1539 16.4695 11.0983 16.5579 11.0694C16.6468 11.0405 16.7356 11.0261 16.8245 11.0261C16.9162 11.0261 17.009 11.0439 17.1029 11.0794C17.1973 11.1155 17.2801 11.1694 17.3512 11.2411L18.122 12.0278C18.1904 12.11 18.2423 12.1955 18.2779 12.2844C18.314 12.3728 18.332 12.4614 18.332 12.5503C18.332 12.6392 18.3151 12.7286 18.2812 12.8186C18.2473 12.9086 18.1943 12.9947 18.122 13.0769L13.6987 17.5003H11.857ZM12.5954 16.7636H13.387L16.2762 13.8686L15.8845 13.4728L15.5054 13.0661L12.5954 15.9711V16.7636ZM15.8845 13.4728L15.5054 13.0661L16.2762 13.8686L15.8845 13.4728Z" fill="#F04438"/>
</g>
</svg>
