<svg width="46" height="46" viewBox="0 0 46 46" fill="none" xmlns="http://www.w3.org/2000/svg">
<g id="Iconsax" clip-path="url(#clip0_2984_42123)">
<path id="Vector" d="M35.799 18.3788L24.457 12.6937C16.8203 8.88472 13.6996 12.0054 17.5179 19.6327L19.2056 22.9986L17.5179 26.3644C13.6996 33.9917 16.8297 37.1218 24.457 33.3035L35.799 27.6372C40.8807 25.0822 40.8902 20.9244 35.799 18.3788ZM31.0284 23.7528L23.8442 23.7717C23.5613 23.7717 23.3162 23.6585 23.1371 23.4794C22.9579 23.3003 22.8448 23.0551 22.8448 22.7723C22.8464 22.5077 22.9522 22.2544 23.1392 22.0674C23.3263 21.8803 23.5796 21.7745 23.8442 21.7729L31.0284 21.7541C31.5752 21.7541 32.0278 22.2066 32.0278 22.7534C32.0278 23.3003 31.5752 23.7528 31.0284 23.7528Z" fill="#1D64F3"/>
</g>
<defs>
<clipPath id="clip0_2984_42123">
<rect width="32" height="32" fill="white" transform="translate(23.373 0.371094) rotate(45)"/>
</clipPath>
</defs>
</svg>
