<svg width="20" height="21" viewBox="0 0 20 21" fill="none" xmlns="http://www.w3.org/2000/svg">
<path d="M9.04894 3.34111C9.3483 2.4198 10.6517 2.4198 10.9511 3.34111L12.0206 6.63291C12.1545 7.04493 12.5385 7.32389 12.9717 7.32389H16.4329C17.4016 7.32389 17.8044 8.56351 17.0207 9.13291L14.2205 11.1674C13.87 11.422 13.7234 11.8734 13.8572 12.2854L14.9268 15.5772C15.2261 16.4985 14.1717 17.2646 13.388 16.6952L10.5878 14.6608C10.2373 14.4061 9.7627 14.4061 9.41221 14.6608L6.61204 16.6952C5.82833 17.2646 4.77385 16.4985 5.0732 15.5772L6.14277 12.2854C6.27665 11.8734 6.12999 11.422 5.7795 11.1674L2.97933 9.13291C2.19562 8.56351 2.59839 7.32389 3.56712 7.32389H7.02832C7.46154 7.32389 7.8455 7.04493 7.97937 6.63291L9.04894 3.34111Z" fill="#0DAA0D"/>
</svg>
