<svg xmlns="http://www.w3.org/2000/svg" width="118" height="119" viewBox="0 0 118 119" fill="none">
  <path d="M80.0464 45.8286C80.3893 46.1711 80.6613 46.5778 80.8468 47.0254C81.0324 47.4731 81.1279 47.9529 81.1279 48.4375C81.1279 48.9221 81.0324 49.4019 80.8468 49.8496C80.6613 50.2972 80.3893 50.7039 80.0464 51.0464L54.2339 76.8589C53.8915 77.2018 53.4848 77.4737 53.0371 77.6593C52.5895 77.8449 52.1096 77.9404 51.625 77.9404C51.1404 77.9404 50.6606 77.8449 50.2129 77.6593C49.7653 77.4737 49.3586 77.2018 49.0161 76.8589L37.9536 65.7964C37.2617 65.1045 36.873 64.166 36.873 63.1875C36.873 62.209 37.2617 61.2705 37.9536 60.5786C38.6455 59.8867 39.584 59.498 40.5625 59.498C41.541 59.498 42.4795 59.8867 43.1714 60.5786L51.625 69.0368L74.8286 45.8286C75.1711 45.4857 75.5778 45.2138 76.0254 45.0282C76.4731 44.8426 76.9529 44.7471 77.4375 44.7471C77.9221 44.7471 78.402 44.8426 78.8496 45.0282C79.2973 45.2138 79.704 45.4857 80.0464 45.8286ZM106.938 59.5C106.938 68.9811 104.126 78.2494 98.8586 86.1326C93.5912 94.0159 86.1043 100.16 77.3449 103.788C68.5855 107.417 58.9468 108.366 49.6479 106.516C40.3489 104.667 31.8073 100.101 25.1031 93.3969C18.3989 86.6927 13.8333 78.1511 11.9836 68.8521C10.1339 59.5532 11.0833 49.9145 14.7115 41.1551C18.3398 32.3957 24.4841 24.9089 32.3674 19.6414C40.2507 14.374 49.5189 11.5625 59 11.5625C71.7097 11.5759 83.895 16.6308 92.8821 25.6179C101.869 34.605 106.924 46.7903 106.938 59.5ZM99.5625 59.5C99.5625 51.4775 97.1836 43.6352 92.7265 36.9647C88.2694 30.2942 81.9344 25.0952 74.5226 22.0251C67.1108 18.9551 58.955 18.1518 51.0867 19.7169C43.2183 21.282 35.9908 25.1452 30.318 30.818C24.6452 36.4907 20.782 43.7183 19.2169 51.5867C17.6518 59.455 18.4551 67.6108 21.5252 75.0226C24.5952 82.4344 29.7942 88.7694 36.4647 93.2265C43.1352 97.6835 50.9775 100.062 59 100.062C69.7541 100.05 80.0643 95.7729 87.6686 88.1685C95.2729 80.5642 99.5503 70.2541 99.5625 59.5Z" fill="#50CAAD"/>
</svg>