<svg width="33" height="33" viewBox="0 0 33 33" fill="none" xmlns="http://www.w3.org/2000/svg">
<rect x="0.5" y="0.03125" width="32" height="32" rx="16" fill="#EEF6FF"/>
<g clip-path="url(#clip0_2863_5112)">
<path d="M16.5002 9.53125C15.4019 9.53022 14.3245 9.83228 13.3868 10.4042C12.4497 10.9756 11.6884 11.7944 11.1864 12.7705L10.8123 13.4813L10.0089 13.5639L10.0086 13.5639C7.72085 13.8006 6 15.7279 6 18.0312C6 20.5174 8.01386 22.5312 10.5 22.5312H23.5C25.4261 22.5312 27 20.9574 27 19.0312L27 19.029C26.9961 18.1492 26.659 17.3035 26.0567 16.6621C25.4546 16.0211 24.6322 15.6318 23.7547 15.5725C23.7543 15.5724 23.7539 15.5724 23.7536 15.5724L22.6056 15.4898L22.3804 14.3639C21.8241 11.5605 19.3594 9.53137 16.5002 9.53125ZM16.5002 9.53125C16.5002 9.53125 16.5001 9.53125 16.5 9.53125V10.0313L16.5005 9.53125C16.5004 9.53125 16.5003 9.53125 16.5002 9.53125ZM23.3595 14.168L23.4336 14.5436L23.8155 14.5701C26.1584 14.7323 28 16.6591 28 19.0312C28 21.5151 25.9839 23.5312 23.5 23.5312H10.5C7.46614 23.5312 5 21.0651 5 18.0312V18.0312C4.99984 16.6762 5.50043 15.3689 6.40557 14.3606C7.31071 13.3522 8.55656 12.7139 9.90372 12.5684L10.1698 12.5396L10.2935 12.3022C11.4609 10.0608 13.804 8.53125 16.5 8.53125H16.5001C18.1194 8.53088 19.6886 9.09272 20.9396 10.1208C22.1907 11.1489 23.046 12.5794 23.3595 14.168ZM14.8536 18.5648L19.1 14.3184L19.8029 15.0212L14.5 20.3241L11.7071 17.5312L12.41 16.8284L14.1464 18.5648L14.5 18.9184L14.8536 18.5648Z" fill="black" stroke="#8FC7FF"/>
</g>
<defs>
<clipPath id="clip0_2863_5112">
<rect width="24" height="24" fill="white" transform="translate(4.5 4.03125)"/>
</clipPath>
</defs>
</svg>
