<svg width="29" height="28" viewBox="0 0 29 28" fill="none" xmlns="http://www.w3.org/2000/svg">
<rect x="2.9375" y="2.46875" width="23.125" height="23.125" rx="11.5625" fill="#EEF6FF"/>
<rect x="2.9375" y="2.46875" width="23.125" height="23.125" rx="11.5625" stroke="#DAEBFF" stroke-width="4"/>
<g clip-path="url(#clip0_2835_18131)">
<path d="M16.4283 15.9571L14.5013 14.0301M14.5013 14.0301L12.5742 15.9571M14.5013 14.0301V18.366M18.5433 17.1086C19.0132 16.8524 19.3844 16.4471 19.5983 15.9565C19.8123 15.4659 19.8567 14.9181 19.7247 14.3994C19.5927 13.8808 19.2917 13.4209 18.8693 13.0923C18.4469 12.7637 17.9271 12.5851 17.3919 12.5848H16.7849C16.639 12.0207 16.3672 11.4971 15.9899 11.0532C15.6126 10.6093 15.1395 10.2568 14.6063 10.022C14.0731 9.78729 13.4937 9.67648 12.9115 9.69793C12.3293 9.71938 11.7595 9.87253 11.2451 10.1459C10.7306 10.4192 10.2848 10.8056 9.94112 11.2761C9.59748 11.7465 9.36496 12.2887 9.26104 12.862C9.15711 13.4352 9.18449 14.0245 9.34112 14.5857C9.49775 15.1468 9.77955 15.6651 10.1653 16.1017" stroke="#5B5F5D" stroke-width="0.963542" stroke-linecap="round" stroke-linejoin="round"/>
</g>
<defs>
<clipPath id="clip0_2835_18131">
<rect width="11.5625" height="11.5625" fill="white" transform="translate(8.71875 8.25)"/>
</clipPath>
</defs>
</svg>
