<svg xmlns="http://www.w3.org/2000/svg" width="31" height="30" viewBox="0 0 31 30" fill="none">
    <path
        d="M20.5 22.5L23 25L28 20M15.5 18.75H10.5C8.17029 18.75 7.00544 18.75 6.08658 19.1306C4.86144 19.6381 3.88807 20.6114 3.3806 21.8366C3 22.7554 3 23.9203 3 26.25M19.875 4.11345C21.7074 4.85518 23 6.65164 23 8.75C23 10.8484 21.7074 12.6448 19.875 13.3866M17.375 8.75C17.375 11.5114 15.1364 13.75 12.375 13.75C9.61358 13.75 7.375 11.5114 7.375 8.75C7.375 5.98858 9.61358 3.75 12.375 3.75C15.1364 3.75 17.375 5.98858 17.375 8.75Z"
        stroke="#EEF6FF" stroke-width="1.68869" stroke-linecap="round" stroke-linejoin="round" />
</svg>