<svg width="22" height="25" viewBox="0 0 22 25" fill="none" xmlns="http://www.w3.org/2000/svg">
<mask id="path-1-outside-1_1145_39133" maskUnits="userSpaceOnUse" x="-1.5" y="-2" width="24" height="28" fill="black">
<rect fill="white" x="-1.5" y="-2" width="24" height="28"/>
<path d="M12.46 14.24C12.7533 12.1067 12.9667 9.96 13.1 7.8C13.2333 5.64 13.3 4.24 13.3 3.6C13.3 2.93333 13.3 2.54667 13.3 2.44L13.26 0.6C16.2733 2.2 18.9267 3 21.22 3C20.82 8.73333 19.78 13.96 18.1 18.68C17.7267 19.72 17.42 20.4667 17.18 20.92L16.82 21.6C15.86 21.6 14.8467 21.7733 13.78 22.12C12.7133 22.44 11.8867 22.7733 11.3 23.12L10.38 23.64C10.94 22.0133 11.4467 20.0267 11.9 17.68C10.4067 18.08 9.08667 18.6133 7.94 19.28L7.34 24.36C6.99333 24.2533 6.54 24.1067 5.98 23.92C5.42 23.7333 4.52667 23.28 3.3 22.56C2.07333 21.8133 1.14 21 0.5 20.12C0.713333 17.3467 1.08667 14.76 1.62 12.36C2.15333 9.93333 2.63333 8.2 3.06 7.16L3.74 5.6C5.18 4.64 7.54 3.92 10.82 3.44C9.88667 7.28 9.12667 11.1733 8.54 15.12C10.0067 14.9867 11.3133 14.6933 12.46 14.24Z"/>
</mask>
<path d="M12.46 14.24C12.7533 12.1067 12.9667 9.96 13.1 7.8C13.2333 5.64 13.3 4.24 13.3 3.6C13.3 2.93333 13.3 2.54667 13.3 2.44L13.26 0.6C16.2733 2.2 18.9267 3 21.22 3C20.82 8.73333 19.78 13.96 18.1 18.68C17.7267 19.72 17.42 20.4667 17.18 20.92L16.82 21.6C15.86 21.6 14.8467 21.7733 13.78 22.12C12.7133 22.44 11.8867 22.7733 11.3 23.12L10.38 23.64C10.94 22.0133 11.4467 20.0267 11.9 17.68C10.4067 18.08 9.08667 18.6133 7.94 19.28L7.34 24.36C6.99333 24.2533 6.54 24.1067 5.98 23.92C5.42 23.7333 4.52667 23.28 3.3 22.56C2.07333 21.8133 1.14 21 0.5 20.12C0.713333 17.3467 1.08667 14.76 1.62 12.36C2.15333 9.93333 2.63333 8.2 3.06 7.16L3.74 5.6C5.18 4.64 7.54 3.92 10.82 3.44C9.88667 7.28 9.12667 11.1733 8.54 15.12C10.0067 14.9867 11.3133 14.6933 12.46 14.24Z" fill="url(#paint0_linear_1145_39133)"/>
<path d="M12.46 14.24L12.8277 15.17L13.3711 14.9551L13.4507 14.3762L12.46 14.24ZM13.3 2.44H14.3V2.42913L14.2998 2.41827L13.3 2.44ZM13.26 0.6L13.729 -0.283217L12.2232 -1.08275L12.2602 0.621734L13.26 0.6ZM21.22 3L22.2176 3.0696L22.2922 2H21.22V3ZM18.1 18.68L19.0412 19.0179L19.0421 19.0153L18.1 18.68ZM17.18 20.92L16.2962 20.4521L16.2962 20.4521L17.18 20.92ZM16.82 21.6V22.6H17.4221L17.7038 22.0679L16.82 21.6ZM13.78 22.12L14.0673 23.0778L14.0783 23.0746L14.0891 23.071L13.78 22.12ZM11.3 23.12L11.7921 23.9906L11.8004 23.9858L11.8087 23.9809L11.3 23.12ZM10.38 23.64L9.43446 23.3145L8.57591 25.8084L10.8721 24.5106L10.38 23.64ZM11.9 17.68L12.8818 17.8697L13.185 16.3006L11.6413 16.7141L11.9 17.68ZM7.94 19.28L7.43738 18.4155L7.0055 18.6666L6.9469 19.1627L7.94 19.28ZM7.34 24.36L7.04591 25.3158L8.1924 25.6685L8.3331 24.4773L7.34 24.36ZM5.98 23.92L5.66377 24.8687L5.98 23.92ZM3.3 22.56L2.78005 23.4142L2.78689 23.4184L2.7938 23.4224L3.3 22.56ZM0.5 20.12L-0.497054 20.0433L-0.525293 20.4104L-0.308736 20.7082L0.5 20.12ZM1.62 12.36L2.59619 12.5769L2.59669 12.5747L1.62 12.36ZM3.06 7.16L2.1433 6.76041L2.13896 6.77038L2.13483 6.78044L3.06 7.16ZM3.74 5.6L3.1853 4.76795L2.94075 4.93098L2.8233 5.20041L3.74 5.6ZM10.82 3.44L11.7917 3.67618L12.1418 2.23592L10.6752 2.45054L10.82 3.44ZM8.54 15.12L7.55087 14.973L7.36386 16.231L8.63054 16.1159L8.54 15.12ZM13.4507 14.3762C13.7474 12.218 13.9632 10.0464 14.0981 7.86161L12.1019 7.73839C11.9701 9.87356 11.7592 11.9953 11.4693 14.1038L13.4507 14.3762ZM14.0981 7.86161C14.2309 5.70947 14.3 4.27683 14.3 3.6H12.3C12.3 4.20317 12.2357 5.57053 12.1019 7.73839L14.0981 7.86161ZM14.3 3.6C14.3 3.5987 14.3 3.5974 14.3 3.5961C14.3 3.5948 14.3 3.5935 14.3 3.5922C14.3 3.5909 14.3 3.58961 14.3 3.58831C14.3 3.58701 14.3 3.58572 14.3 3.58443C14.3 3.58313 14.3 3.58184 14.3 3.58055C14.3 3.57926 14.3 3.57797 14.3 3.57668C14.3 3.57539 14.3 3.5741 14.3 3.57281C14.3 3.57153 14.3 3.57024 14.3 3.56895C14.3 3.56767 14.3 3.56639 14.3 3.5651C14.3 3.56382 14.3 3.56254 14.3 3.56126C14.3 3.55998 14.3 3.5587 14.3 3.55742C14.3 3.55614 14.3 3.55486 14.3 3.55359C14.3 3.55231 14.3 3.55103 14.3 3.54976C14.3 3.54849 14.3 3.54721 14.3 3.54594C14.3 3.54467 14.3 3.5434 14.3 3.54213C14.3 3.54086 14.3 3.53959 14.3 3.53832C14.3 3.53705 14.3 3.53578 14.3 3.53452C14.3 3.53325 14.3 3.53199 14.3 3.53073C14.3 3.52946 14.3 3.5282 14.3 3.52694C14.3 3.52568 14.3 3.52442 14.3 3.52316C14.3 3.5219 14.3 3.52064 14.3 3.51938C14.3 3.51812 14.3 3.51687 14.3 3.51561C14.3 3.51436 14.3 3.5131 14.3 3.51185C14.3 3.5106 14.3 3.50935 14.3 3.5081C14.3 3.50684 14.3 3.50559 14.3 3.50435C14.3 3.5031 14.3 3.50185 14.3 3.5006C14.3 3.49936 14.3 3.49811 14.3 3.49687C14.3 3.49562 14.3 3.49438 14.3 3.49314C14.3 3.49189 14.3 3.49065 14.3 3.48941C14.3 3.48817 14.3 3.48693 14.3 3.4857C14.3 3.48446 14.3 3.48322 14.3 3.48198C14.3 3.48075 14.3 3.47951 14.3 3.47828C14.3 3.47705 14.3 3.47581 14.3 3.47458C14.3 3.47335 14.3 3.47212 14.3 3.47089C14.3 3.46966 14.3 3.46843 14.3 3.46721C14.3 3.46598 14.3 3.46475 14.3 3.46353C14.3 3.4623 14.3 3.46108 14.3 3.45985C14.3 3.45863 14.3 3.45741 14.3 3.45619C14.3 3.45497 14.3 3.45375 14.3 3.45253C14.3 3.45131 14.3 3.45009 14.3 3.44888C14.3 3.44766 14.3 3.44644 14.3 3.44523C14.3 3.44402 14.3 3.4428 14.3 3.44159C14.3 3.44038 14.3 3.43917 14.3 3.43796C14.3 3.43675 14.3 3.43554 14.3 3.43433C14.3 3.43312 14.3 3.43191 14.3 3.43071C14.3 3.4295 14.3 3.4283 14.3 3.42709C14.3 3.42589 14.3 3.42469 14.3 3.42348C14.3 3.42228 14.3 3.42108 14.3 3.41988C14.3 3.41868 14.3 3.41748 14.3 3.41629C14.3 3.41509 14.3 3.41389 14.3 3.4127C14.3 3.4115 14.3 3.41031 14.3 3.40911C14.3 3.40792 14.3 3.40673 14.3 3.40554C14.3 3.40435 14.3 3.40316 14.3 3.40197C14.3 3.40078 14.3 3.39959 14.3 3.39841C14.3 3.39722 14.3 3.39603 14.3 3.39485C14.3 3.39366 14.3 3.39248 14.3 3.3913C14.3 3.39012 14.3 3.38893 14.3 3.38775C14.3 3.38657 14.3 3.38539 14.3 3.38422C14.3 3.38304 14.3 3.38186 14.3 3.38068C14.3 3.37951 14.3 3.37833 14.3 3.37716C14.3 3.37599 14.3 3.37481 14.3 3.37364C14.3 3.37247 14.3 3.3713 14.3 3.37013C14.3 3.36896 14.3 3.36779 14.3 3.36662C14.3 3.36546 14.3 3.36429 14.3 3.36312C14.3 3.36196 14.3 3.36079 14.3 3.35963C14.3 3.35847 14.3 3.35731 14.3 3.35614C14.3 3.35498 14.3 3.35382 14.3 3.35266C14.3 3.35151 14.3 3.35035 14.3 3.34919C14.3 3.34803 14.3 3.34688 14.3 3.34572C14.3 3.34457 14.3 3.34342 14.3 3.34226C14.3 3.34111 14.3 3.33996 14.3 3.33881C14.3 3.33766 14.3 3.33651 14.3 3.33536C14.3 3.33421 14.3 3.33306 14.3 3.33192C14.3 3.33077 14.3 3.32963 14.3 3.32848C14.3 3.32734 14.3 3.3262 14.3 3.32505C14.3 3.32391 14.3 3.32277 14.3 3.32163C14.3 3.32049 14.3 3.31935 14.3 3.31822C14.3 3.31708 14.3 3.31594 14.3 3.31481C14.3 3.31367 14.3 3.31254 14.3 3.3114C14.3 3.31027 14.3 3.30914 14.3 3.30801C14.3 3.30688 14.3 3.30575 14.3 3.30462C14.3 3.30349 14.3 3.30236 14.3 3.30123C14.3 3.30011 14.3 3.29898 14.3 3.29786C14.3 3.29673 14.3 3.29561 14.3 3.29448C14.3 3.29336 14.3 3.29224 14.3 3.29112C14.3 3.29 14.3 3.28888 14.3 3.28776C14.3 3.28664 14.3 3.28553 14.3 3.28441C14.3 3.28329 14.3 3.28218 14.3 3.28106C14.3 3.27995 14.3 3.27884 14.3 3.27772C14.3 3.27661 14.3 3.2755 14.3 3.27439C14.3 3.27328 14.3 3.27217 14.3 3.27107C14.3 3.26996 14.3 3.26885 14.3 3.26775C14.3 3.26664 14.3 3.26554 14.3 3.26443C14.3 3.26333 14.3 3.26223 14.3 3.26113C14.3 3.26002 14.3 3.25892 14.3 3.25782C14.3 3.25673 14.3 3.25563 14.3 3.25453C14.3 3.25343 14.3 3.25234 14.3 3.25124C14.3 3.25015 14.3 3.24905 14.3 3.24796C14.3 3.24687 14.3 3.24578 14.3 3.24469C14.3 3.2436 14.3 3.24251 14.3 3.24142C14.3 3.24033 14.3 3.23924 14.3 3.23816C14.3 3.23707 14.3 3.23598 14.3 3.2349C14.3 3.23382 14.3 3.23273 14.3 3.23165C14.3 3.23057 14.3 3.22949 14.3 3.22841C14.3 3.22733 14.3 3.22625 14.3 3.22517C14.3 3.22409 14.3 3.22302 14.3 3.22194C14.3 3.22086 14.3 3.21979 14.3 3.21872C14.3 3.21764 14.3 3.21657 14.3 3.2155C14.3 3.21443 14.3 3.21336 14.3 3.21229C14.3 3.21122 14.3 3.21015 14.3 3.20908C14.3 3.20802 14.3 3.20695 14.3 3.20589C14.3 3.20482 14.3 3.20376 14.3 3.20269C14.3 3.20163 14.3 3.20057 14.3 3.19951C14.3 3.19845 14.3 3.19739 14.3 3.19633C14.3 3.19527 14.3 3.19421 14.3 3.19316C14.3 3.1921 14.3 3.19105 14.3 3.18999C14.3 3.18894 14.3 3.18788 14.3 3.18683C14.3 3.18578 14.3 3.18473 14.3 3.18368C14.3 3.18263 14.3 3.18158 14.3 3.18053C14.3 3.17948 14.3 3.17844 14.3 3.17739C14.3 3.17635 14.3 3.1753 14.3 3.17426C14.3 3.17321 14.3 3.17217 14.3 3.17113C14.3 3.17009 14.3 3.16905 14.3 3.16801C14.3 3.16697 14.3 3.16593 14.3 3.16489C14.3 3.16386 14.3 3.16282 14.3 3.16179C14.3 3.16075 14.3 3.15972 14.3 3.15868C14.3 3.15765 14.3 3.15662 14.3 3.15559C14.3 3.15456 14.3 3.15353 14.3 3.1525C14.3 3.15147 14.3 3.15044 14.3 3.14942C14.3 3.14839 14.3 3.14736 14.3 3.14634C14.3 3.14532 14.3 3.14429 14.3 3.14327C14.3 3.14225 14.3 3.14123 14.3 3.14021C14.3 3.13919 14.3 3.13817 14.3 3.13715C14.3 3.13613 14.3 3.13511 14.3 3.1341C14.3 3.13308 14.3 3.13207 14.3 3.13105C14.3 3.13004 14.3 3.12903 14.3 3.12802C14.3 3.127 14.3 3.12599 14.3 3.12498C14.3 3.12398 14.3 3.12297 14.3 3.12196C14.3 3.12095 14.3 3.11995 14.3 3.11894C14.3 3.11794 14.3 3.11693 14.3 3.11593C14.3 3.11493 14.3 3.11392 14.3 3.11292C14.3 3.11192 14.3 3.11092 14.3 3.10992C14.3 3.10893 14.3 3.10793 14.3 3.10693C14.3 3.10593 14.3 3.10494 14.3 3.10394C14.3 3.10295 14.3 3.10196 14.3 3.10096C14.3 3.09997 14.3 3.09898 14.3 3.09799C14.3 3.097 14.3 3.09601 14.3 3.09502C14.3 3.09403 14.3 3.09305 14.3 3.09206C14.3 3.09108 14.3 3.09009 14.3 3.08911C14.3 3.08812 14.3 3.08714 14.3 3.08616C14.3 3.08518 14.3 3.0842 14.3 3.08322C14.3 3.08224 14.3 3.08126 14.3 3.08028C14.3 3.0793 14.3 3.07833 14.3 3.07735C14.3 3.07638 14.3 3.0754 14.3 3.07443C14.3 3.07346 14.3 3.07249 14.3 3.07151C14.3 3.07054 14.3 3.06957 14.3 3.0686C14.3 3.06764 14.3 3.06667 14.3 3.0657C14.3 3.06473 14.3 3.06377 14.3 3.0628C14.3 3.06184 14.3 3.06088 14.3 3.05991C14.3 3.05895 14.3 3.05799 14.3 3.05703C14.3 3.05607 14.3 3.05511 14.3 3.05415C14.3 3.05319 14.3 3.05224 14.3 3.05128C14.3 3.05033 14.3 3.04937 14.3 3.04842C14.3 3.04746 14.3 3.04651 14.3 3.04556C14.3 3.04461 14.3 3.04366 14.3 3.04271C14.3 3.04176 14.3 3.04081 14.3 3.03986C14.3 3.03891 14.3 3.03797 14.3 3.03702C14.3 3.03608 14.3 3.03513 14.3 3.03419C14.3 3.03325 14.3 3.0323 14.3 3.03136C14.3 3.03042 14.3 3.02948 14.3 3.02854C14.3 3.0276 14.3 3.02667 14.3 3.02573C14.3 3.02479 14.3 3.02386 14.3 3.02292C14.3 3.02199 14.3 3.02105 14.3 3.02012C14.3 3.01919 14.3 3.01826 14.3 3.01733C14.3 3.0164 14.3 3.01547 14.3 3.01454C14.3 3.01361 14.3 3.01268 14.3 3.01176C14.3 3.01083 14.3 3.00991 14.3 3.00898C14.3 3.00806 14.3 3.00713 14.3 3.00621C14.3 3.00529 14.3 3.00437 14.3 3.00345C14.3 3.00253 14.3 3.00161 14.3 3.00069C14.3 2.99978 14.3 2.99886 14.3 2.99795C14.3 2.99703 14.3 2.99612 14.3 2.9952C14.3 2.99429 14.3 2.99338 14.3 2.99247C14.3 2.99155 14.3 2.99064 14.3 2.98974C14.3 2.98883 14.3 2.98792 14.3 2.98701C14.3 2.9861 14.3 2.9852 14.3 2.98429C14.3 2.98339 14.3 2.98249 14.3 2.98158C14.3 2.98068 14.3 2.97978 14.3 2.97888C14.3 2.97798 14.3 2.97708 14.3 2.97618C14.3 2.97528 14.3 2.97438 14.3 2.97349C14.3 2.97259 14.3 2.9717 14.3 2.9708C14.3 2.96991 14.3 2.96902 14.3 2.96812C14.3 2.96723 14.3 2.96634 14.3 2.96545C14.3 2.96456 14.3 2.96367 14.3 2.96279C14.3 2.9619 14.3 2.96101 14.3 2.96013C14.3 2.95924 14.3 2.95836 14.3 2.95747C14.3 2.95659 14.3 2.95571 14.3 2.95483C14.3 2.95394 14.3 2.95306 14.3 2.95218C14.3 2.95131 14.3 2.95043 14.3 2.94955C14.3 2.94867 14.3 2.9478 14.3 2.94692C14.3 2.94605 14.3 2.94517 14.3 2.9443C14.3 2.94343 14.3 2.94256 14.3 2.94169C14.3 2.94082 14.3 2.93995 14.3 2.93908C14.3 2.93821 14.3 2.93734 14.3 2.93648C14.3 2.93561 14.3 2.93474 14.3 2.93388C14.3 2.93302 14.3 2.93215 14.3 2.93129C14.3 2.93043 14.3 2.92957 14.3 2.92871C14.3 2.92785 14.3 2.92699 14.3 2.92613C14.3 2.92527 14.3 2.92442 14.3 2.92356C14.3 2.92271 14.3 2.92185 14.3 2.921C14.3 2.92014 14.3 2.91929 14.3 2.91844C14.3 2.91759 14.3 2.91674 14.3 2.91589C14.3 2.91504 14.3 2.91419 14.3 2.91335C14.3 2.9125 14.3 2.91165 14.3 2.91081C14.3 2.90996 14.3 2.90912 14.3 2.90828C14.3 2.90743 14.3 2.90659 14.3 2.90575C14.3 2.90491 14.3 2.90407 14.3 2.90323C14.3 2.90239 14.3 2.90156 14.3 2.90072C14.3 2.89988 14.3 2.89905 14.3 2.89821C14.3 2.89738 14.3 2.89655 14.3 2.89571C14.3 2.89488 14.3 2.89405 14.3 2.89322C14.3 2.89239 14.3 2.89156 14.3 2.89073C14.3 2.88991 14.3 2.88908 14.3 2.88825C14.3 2.88743 14.3 2.8866 14.3 2.88578C14.3 2.88496 14.3 2.88413 14.3 2.88331C14.3 2.88249 14.3 2.88167 14.3 2.88085C14.3 2.88003 14.3 2.87921 14.3 2.8784C14.3 2.87758 14.3 2.87676 14.3 2.87595C14.3 2.87513 14.3 2.87432 14.3 2.87351C14.3 2.87269 14.3 2.87188 14.3 2.87107C14.3 2.87026 14.3 2.86945 14.3 2.86864C14.3 2.86783 14.3 2.86703 14.3 2.86622C14.3 2.86541 14.3 2.86461 14.3 2.8638C14.3 2.863 14.3 2.8622 14.3 2.86139C14.3 2.86059 14.3 2.85979 14.3 2.85899C14.3 2.85819 14.3 2.85739 14.3 2.85659C14.3 2.8558 14.3 2.855 14.3 2.8542C14.3 2.85341 14.3 2.85261 14.3 2.85182C14.3 2.85102 14.3 2.85023 14.3 2.84944C14.3 2.84865 14.3 2.84786 14.3 2.84707C14.3 2.84628 14.3 2.84549 14.3 2.8447C14.3 2.84392 14.3 2.84313 14.3 2.84235C14.3 2.84156 14.3 2.84078 14.3 2.83999C14.3 2.83921 14.3 2.83843 14.3 2.83765C14.3 2.83687 14.3 2.83609 14.3 2.83531C14.3 2.83453 14.3 2.83375 14.3 2.83298C14.3 2.8322 14.3 2.83142 14.3 2.83065C14.3 2.82987 14.3 2.8291 14.3 2.82833C14.3 2.82756 14.3 2.82679 14.3 2.82602C14.3 2.82525 14.3 2.82448 14.3 2.82371C14.3 2.82294 14.3 2.82217 14.3 2.82141C14.3 2.82064 14.3 2.81988 14.3 2.81911C14.3 2.81835 14.3 2.81759 14.3 2.81682C14.3 2.81606 14.3 2.8153 14.3 2.81454C14.3 2.81378 14.3 2.81303 14.3 2.81227C14.3 2.81151 14.3 2.81075 14.3 2.81C14.3 2.80924 14.3 2.80849 14.3 2.80774C14.3 2.80698 14.3 2.80623 14.3 2.80548C14.3 2.80473 14.3 2.80398 14.3 2.80323C14.3 2.80248 14.3 2.80173 14.3 2.80099C14.3 2.80024 14.3 2.7995 14.3 2.79875C14.3 2.79801 14.3 2.79726 14.3 2.79652C14.3 2.79578 14.3 2.79504 14.3 2.7943C14.3 2.79356 14.3 2.79282 14.3 2.79208C14.3 2.79134 14.3 2.7906 14.3 2.78987C14.3 2.78913 14.3 2.7884 14.3 2.78766C14.3 2.78693 14.3 2.7862 14.3 2.78546C14.3 2.78473 14.3 2.784 14.3 2.78327C14.3 2.78254 14.3 2.78181 14.3 2.78109C14.3 2.78036 14.3 2.77963 14.3 2.77891C14.3 2.77818 14.3 2.77746 14.3 2.77674C14.3 2.77601 14.3 2.77529 14.3 2.77457C14.3 2.77385 14.3 2.77313 14.3 2.77241C14.3 2.77169 14.3 2.77097 14.3 2.77026C14.3 2.76954 14.3 2.76882 14.3 2.76811C14.3 2.76739 14.3 2.76668 14.3 2.76597C14.3 2.76526 14.3 2.76454 14.3 2.76383C14.3 2.76312 14.3 2.76241 14.3 2.76171C14.3 2.761 14.3 2.76029 14.3 2.75958C14.3 2.75888 14.3 2.75817 14.3 2.75747C14.3 2.75677 14.3 2.75606 14.3 2.75536C14.3 2.75466 14.3 2.75396 14.3 2.75326C14.3 2.75256 14.3 2.75186 14.3 2.75116C14.3 2.75047 14.3 2.74977 14.3 2.74907C14.3 2.74838 14.3 2.74768 14.3 2.74699C14.3 2.7463 14.3 2.74561 14.3 2.74491C14.3 2.74422 14.3 2.74353 14.3 2.74284C14.3 2.74215 14.3 2.74147 14.3 2.74078C14.3 2.74009 14.3 2.73941 14.3 2.73872C14.3 2.73804 14.3 2.73735 14.3 2.73667C14.3 2.73599 14.3 2.73531 14.3 2.73463C14.3 2.73395 14.3 2.73327 14.3 2.73259C14.3 2.73191 14.3 2.73123 14.3 2.73056C14.3 2.72988 14.3 2.72921 14.3 2.72853C14.3 2.72786 14.3 2.72719 14.3 2.72651C14.3 2.72584 14.3 2.72517 14.3 2.7245C14.3 2.72383 14.3 2.72316 14.3 2.72249C14.3 2.72183 14.3 2.72116 14.3 2.7205C14.3 2.71983 14.3 2.71917 14.3 2.7185C14.3 2.71784 14.3 2.71718 14.3 2.71652C14.3 2.71585 14.3 2.71519 14.3 2.71453C14.3 2.71388 14.3 2.71322 14.3 2.71256C14.3 2.7119 14.3 2.71125 14.3 2.71059C14.3 2.70994 14.3 2.70928 14.3 2.70863C14.3 2.70798 14.3 2.70733 14.3 2.70668C14.3 2.70603 14.3 2.70538 14.3 2.70473C14.3 2.70408 14.3 2.70343 14.3 2.70279C14.3 2.70214 14.3 2.7015 14.3 2.70085C14.3 2.70021 14.3 2.69956 14.3 2.69892C14.3 2.69828 14.3 2.69764 14.3 2.697C14.3 2.69636 14.3 2.69572 14.3 2.69508C14.3 2.69445 14.3 2.69381 14.3 2.69317C14.3 2.69254 14.3 2.6919 14.3 2.69127C14.3 2.69064 14.3 2.69 14.3 2.68937C14.3 2.68874 14.3 2.68811 14.3 2.68748C14.3 2.68685 14.3 2.68622 14.3 2.6856C14.3 2.68497 14.3 2.68434 14.3 2.68372C14.3 2.68309 14.3 2.68247 14.3 2.68185C14.3 2.68123 14.3 2.6806 14.3 2.67998C14.3 2.67936 14.3 2.67874 14.3 2.67812C14.3 2.67751 14.3 2.67689 14.3 2.67627C14.3 2.67566 14.3 2.67504 14.3 2.67443C14.3 2.67381 14.3 2.6732 14.3 2.67259C14.3 2.67197 14.3 2.67136 14.3 2.67075C14.3 2.67014 14.3 2.66953 14.3 2.66893C14.3 2.66832 14.3 2.66771 14.3 2.66711C14.3 2.6665 14.3 2.6659 14.3 2.66529C14.3 2.66469 14.3 2.66409 14.3 2.66349C14.3 2.66288 14.3 2.66228 14.3 2.66168C14.3 2.66109 14.3 2.66049 14.3 2.65989C14.3 2.65929 14.3 2.6587 14.3 2.6581C14.3 2.65751 14.3 2.65691 14.3 2.65632C14.3 2.65573 14.3 2.65514 14.3 2.65454C14.3 2.65395 14.3 2.65336 14.3 2.65278C14.3 2.65219 14.3 2.6516 14.3 2.65101C14.3 2.65043 14.3 2.64984 14.3 2.64926C14.3 2.64867 14.3 2.64809 14.3 2.64751C14.3 2.64692 14.3 2.64634 14.3 2.64576C14.3 2.64518 14.3 2.6446 14.3 2.64403C14.3 2.64345 14.3 2.64287 14.3 2.6423C14.3 2.64172 14.3 2.64115 14.3 2.64057C14.3 2.64 14.3 2.63943 14.3 2.63885C14.3 2.63828 14.3 2.63771 14.3 2.63714C14.3 2.63657 14.3 2.63601 14.3 2.63544C14.3 2.63487 14.3 2.63431 14.3 2.63374C14.3 2.63318 14.3 2.63261 14.3 2.63205C14.3 2.63149 14.3 2.63092 14.3 2.63036C14.3 2.6298 14.3 2.62924 14.3 2.62868C14.3 2.62812 14.3 2.62757 14.3 2.62701C14.3 2.62645 14.3 2.6259 14.3 2.62534C14.3 2.62479 14.3 2.62424 14.3 2.62368C14.3 2.62313 14.3 2.62258 14.3 2.62203C14.3 2.62148 14.3 2.62093 14.3 2.62038C14.3 2.61984 14.3 2.61929 14.3 2.61874C14.3 2.6182 14.3 2.61765 14.3 2.61711C14.3 2.61656 14.3 2.61602 14.3 2.61548C14.3 2.61494 14.3 2.6144 14.3 2.61386C14.3 2.61332 14.3 2.61278 14.3 2.61224C14.3 2.61171 14.3 2.61117 14.3 2.61063C14.3 2.6101 14.3 2.60957 14.3 2.60903C14.3 2.6085 14.3 2.60797 14.3 2.60744C14.3 2.60691 14.3 2.60638 14.3 2.60585C14.3 2.60532 14.3 2.60479 14.3 2.60426C14.3 2.60374 14.3 2.60321 14.3 2.60269C14.3 2.60216 14.3 2.60164 14.3 2.60112C14.3 2.60059 14.3 2.60007 14.3 2.59955C14.3 2.59903 14.3 2.59851 14.3 2.598C14.3 2.59748 14.3 2.59696 14.3 2.59644C14.3 2.59593 14.3 2.59541 14.3 2.5949C14.3 2.59439 14.3 2.59387 14.3 2.59336C14.3 2.59285 14.3 2.59234 14.3 2.59183C14.3 2.59132 14.3 2.59081 14.3 2.5903C14.3 2.5898 14.3 2.58929 14.3 2.58879C14.3 2.58828 14.3 2.58778 14.3 2.58727C14.3 2.58677 14.3 2.58627 14.3 2.58577C14.3 2.58527 14.3 2.58477 14.3 2.58427C14.3 2.58377 14.3 2.58327 14.3 2.58277C14.3 2.58228 14.3 2.58178 14.3 2.58129C14.3 2.58079 14.3 2.5803 14.3 2.57981C14.3 2.57931 14.3 2.57882 14.3 2.57833C14.3 2.57784 14.3 2.57735 14.3 2.57686C14.3 2.57638 14.3 2.57589 14.3 2.5754C14.3 2.57492 14.3 2.57443 14.3 2.57395C14.3 2.57346 14.3 2.57298 14.3 2.5725C14.3 2.57202 14.3 2.57154 14.3 2.57106C14.3 2.57058 14.3 2.5701 14.3 2.56962C14.3 2.56914 14.3 2.56867 14.3 2.56819C14.3 2.56772 14.3 2.56724 14.3 2.56677C14.3 2.5663 14.3 2.56582 14.3 2.56535C14.3 2.56488 14.3 2.56441 14.3 2.56394C14.3 2.56347 14.3 2.56301 14.3 2.56254C14.3 2.56207 14.3 2.56161 14.3 2.56114C14.3 2.56068 14.3 2.56021 14.3 2.55975C14.3 2.55929 14.3 2.55883 14.3 2.55837C14.3 2.55791 14.3 2.55745 14.3 2.55699C14.3 2.55653 14.3 2.55607 14.3 2.55562C14.3 2.55516 14.3 2.55471 14.3 2.55425C14.3 2.5538 14.3 2.55334 14.3 2.55289C14.3 2.55244 14.3 2.55199 14.3 2.55154C14.3 2.55109 14.3 2.55064 14.3 2.55019C14.3 2.54975 14.3 2.5493 14.3 2.54886C14.3 2.54841 14.3 2.54797 14.3 2.54752C14.3 2.54708 14.3 2.54664 14.3 2.5462C14.3 2.54575 14.3 2.54531 14.3 2.54487C14.3 2.54444 14.3 2.544 14.3 2.54356C14.3 2.54312 14.3 2.54269 14.3 2.54225C14.3 2.54182 14.3 2.54138 14.3 2.54095C14.3 2.54052 14.3 2.54009 14.3 2.53966C14.3 2.53923 14.3 2.5388 14.3 2.53837C14.3 2.53794 14.3 2.53751 14.3 2.53709C14.3 2.53666 14.3 2.53624 14.3 2.53581C14.3 2.53539 14.3 2.53496 14.3 2.53454C14.3 2.53412 14.3 2.5337 14.3 2.53328C14.3 2.53286 14.3 2.53244 14.3 2.53202C14.3 2.53161 14.3 2.53119 14.3 2.53077C14.3 2.53036 14.3 2.52994 14.3 2.52953C14.3 2.52912 14.3 2.5287 14.3 2.52829C14.3 2.52788 14.3 2.52747 14.3 2.52706C14.3 2.52665 14.3 2.52625 14.3 2.52584C14.3 2.52543 14.3 2.52503 14.3 2.52462C14.3 2.52422 14.3 2.52381 14.3 2.52341C14.3 2.52301 14.3 2.52261 14.3 2.5222C14.3 2.5218 14.3 2.5214 14.3 2.52101C14.3 2.52061 14.3 2.52021 14.3 2.51981C14.3 2.51942 14.3 2.51902 14.3 2.51863C14.3 2.51823 14.3 2.51784 14.3 2.51745C14.3 2.51706 14.3 2.51667 14.3 2.51628C14.3 2.51589 14.3 2.5155 14.3 2.51511C14.3 2.51472 14.3 2.51433 14.3 2.51395C14.3 2.51356 14.3 2.51318 14.3 2.5128C14.3 2.51241 14.3 2.51203 14.3 2.51165C14.3 2.51127 14.3 2.51089 14.3 2.51051C14.3 2.51013 14.3 2.50975 14.3 2.50937C14.3 2.509 14.3 2.50862 14.3 2.50824C14.3 2.50787 14.3 2.5075 14.3 2.50712C14.3 2.50675 14.3 2.50638 14.3 2.50601C14.3 2.50564 14.3 2.50527 14.3 2.5049C14.3 2.50453 14.3 2.50416 14.3 2.5038C14.3 2.50343 14.3 2.50306 14.3 2.5027C14.3 2.50234 14.3 2.50197 14.3 2.50161C14.3 2.50125 14.3 2.50089 14.3 2.50053C14.3 2.50017 14.3 2.49981 14.3 2.49945C14.3 2.49909 14.3 2.49874 14.3 2.49838C14.3 2.49802 14.3 2.49767 14.3 2.49732C14.3 2.49696 14.3 2.49661 14.3 2.49626C14.3 2.49591 14.3 2.49556 14.3 2.49521C14.3 2.49486 14.3 2.49451 14.3 2.49416C14.3 2.49382 14.3 2.49347 14.3 2.49312C14.3 2.49278 14.3 2.49244 14.3 2.49209C14.3 2.49175 14.3 2.49141 14.3 2.49107C14.3 2.49073 14.3 2.49039 14.3 2.49005C14.3 2.48971 14.3 2.48937 14.3 2.48904C14.3 2.4887 14.3 2.48836 14.3 2.48803C14.3 2.48769 14.3 2.48736 14.3 2.48703C14.3 2.4867 14.3 2.48637 14.3 2.48604C14.3 2.48571 14.3 2.48538 14.3 2.48505C14.3 2.48472 14.3 2.48439 14.3 2.48407C14.3 2.48374 14.3 2.48342 14.3 2.48309C14.3 2.48277 14.3 2.48245 14.3 2.48213C14.3 2.4818 14.3 2.48148 14.3 2.48116C14.3 2.48084 14.3 2.48053 14.3 2.48021C14.3 2.47989 14.3 2.47958 14.3 2.47926C14.3 2.47895 14.3 2.47863 14.3 2.47832C14.3 2.47801 14.3 2.47769 14.3 2.47738C14.3 2.47707 14.3 2.47676 14.3 2.47645C14.3 2.47614 14.3 2.47584 14.3 2.47553C14.3 2.47522 14.3 2.47492 14.3 2.47461C14.3 2.47431 14.3 2.47401 14.3 2.4737C14.3 2.4734 14.3 2.4731 14.3 2.4728C14.3 2.4725 14.3 2.4722 14.3 2.4719C14.3 2.4716 14.3 2.47131 14.3 2.47101C14.3 2.47072 14.3 2.47042 14.3 2.47013C14.3 2.46983 14.3 2.46954 14.3 2.46925C14.3 2.46896 14.3 2.46867 14.3 2.46838C14.3 2.46809 14.3 2.4678 14.3 2.46751C14.3 2.46722 14.3 2.46694 14.3 2.46665C14.3 2.46637 14.3 2.46608 14.3 2.4658C14.3 2.46552 14.3 2.46523 14.3 2.46495C14.3 2.46467 14.3 2.46439 14.3 2.46411C14.3 2.46384 14.3 2.46356 14.3 2.46328C14.3 2.463 14.3 2.46273 14.3 2.46245C14.3 2.46218 14.3 2.46191 14.3 2.46163C14.3 2.46136 14.3 2.46109 14.3 2.46082C14.3 2.46055 14.3 2.46028 14.3 2.46001C14.3 2.45974 14.3 2.45948 14.3 2.45921C14.3 2.45894 14.3 2.45868 14.3 2.45842C14.3 2.45815 14.3 2.45789 14.3 2.45763C14.3 2.45737 14.3 2.45711 14.3 2.45685C14.3 2.45659 14.3 2.45633 14.3 2.45607C14.3 2.45581 14.3 2.45556 14.3 2.4553C14.3 2.45505 14.3 2.45479 14.3 2.45454C14.3 2.45428 14.3 2.45403 14.3 2.45378C14.3 2.45353 14.3 2.45328 14.3 2.45303C14.3 2.45278 14.3 2.45253 14.3 2.45229C14.3 2.45204 14.3 2.4518 14.3 2.45155C14.3 2.45131 14.3 2.45106 14.3 2.45082C14.3 2.45058 14.3 2.45034 14.3 2.4501C14.3 2.44986 14.3 2.44962 14.3 2.44938C14.3 2.44914 14.3 2.4489 14.3 2.44867C14.3 2.44843 14.3 2.4482 14.3 2.44796C14.3 2.44773 14.3 2.44749 14.3 2.44726C14.3 2.44703 14.3 2.4468 14.3 2.44657C14.3 2.44634 14.3 2.44611 14.3 2.44588C14.3 2.44566 14.3 2.44543 14.3 2.44521C14.3 2.44498 14.3 2.44476 14.3 2.44453C14.3 2.44431 14.3 2.44409 14.3 2.44387C14.3 2.44364 14.3 2.44342 14.3 2.44321C14.3 2.44299 14.3 2.44277 14.3 2.44255C14.3 2.44233 14.3 2.44212 14.3 2.4419C14.3 2.44169 14.3 2.44148 14.3 2.44126C14.3 2.44105 14.3 2.44084 14.3 2.44063C14.3 2.44042 14.3 2.44021 14.3 2.44H12.3C12.3 2.44021 12.3 2.44042 12.3 2.44063C12.3 2.44084 12.3 2.44105 12.3 2.44126C12.3 2.44148 12.3 2.44169 12.3 2.4419C12.3 2.44212 12.3 2.44233 12.3 2.44255C12.3 2.44277 12.3 2.44299 12.3 2.44321C12.3 2.44342 12.3 2.44364 12.3 2.44387C12.3 2.44409 12.3 2.44431 12.3 2.44453C12.3 2.44476 12.3 2.44498 12.3 2.44521C12.3 2.44543 12.3 2.44566 12.3 2.44588C12.3 2.44611 12.3 2.44634 12.3 2.44657C12.3 2.4468 12.3 2.44703 12.3 2.44726C12.3 2.44749 12.3 2.44773 12.3 2.44796C12.3 2.4482 12.3 2.44843 12.3 2.44867C12.3 2.4489 12.3 2.44914 12.3 2.44938C12.3 2.44962 12.3 2.44986 12.3 2.4501C12.3 2.45034 12.3 2.45058 12.3 2.45082C12.3 2.45106 12.3 2.45131 12.3 2.45155C12.3 2.4518 12.3 2.45204 12.3 2.45229C12.3 2.45253 12.3 2.45278 12.3 2.45303C12.3 2.45328 12.3 2.45353 12.3 2.45378C12.3 2.45403 12.3 2.45428 12.3 2.45454C12.3 2.45479 12.3 2.45505 12.3 2.4553C12.3 2.45556 12.3 2.45581 12.3 2.45607C12.3 2.45633 12.3 2.45659 12.3 2.45685C12.3 2.45711 12.3 2.45737 12.3 2.45763C12.3 2.45789 12.3 2.45815 12.3 2.45842C12.3 2.45868 12.3 2.45894 12.3 2.45921C12.3 2.45948 12.3 2.45974 12.3 2.46001C12.3 2.46028 12.3 2.46055 12.3 2.46082C12.3 2.46109 12.3 2.46136 12.3 2.46163C12.3 2.46191 12.3 2.46218 12.3 2.46245C12.3 2.46273 12.3 2.463 12.3 2.46328C12.3 2.46356 12.3 2.46384 12.3 2.46411C12.3 2.46439 12.3 2.46467 12.3 2.46495C12.3 2.46523 12.3 2.46552 12.3 2.4658C12.3 2.46608 12.3 2.46637 12.3 2.46665C12.3 2.46694 12.3 2.46722 12.3 2.46751C12.3 2.4678 12.3 2.46809 12.3 2.46838C12.3 2.46867 12.3 2.46896 12.3 2.46925C12.3 2.46954 12.3 2.46983 12.3 2.47013C12.3 2.47042 12.3 2.47072 12.3 2.47101C12.3 2.47131 12.3 2.4716 12.3 2.4719C12.3 2.4722 12.3 2.4725 12.3 2.4728C12.3 2.4731 12.3 2.4734 12.3 2.4737C12.3 2.47401 12.3 2.47431 12.3 2.47461C12.3 2.47492 12.3 2.47522 12.3 2.47553C12.3 2.47584 12.3 2.47614 12.3 2.47645C12.3 2.47676 12.3 2.47707 12.3 2.47738C12.3 2.47769 12.3 2.47801 12.3 2.47832C12.3 2.47863 12.3 2.47895 12.3 2.47926C12.3 2.47958 12.3 2.47989 12.3 2.48021C12.3 2.48053 12.3 2.48084 12.3 2.48116C12.3 2.48148 12.3 2.4818 12.3 2.48213C12.3 2.48245 12.3 2.48277 12.3 2.48309C12.3 2.48342 12.3 2.48374 12.3 2.48407C12.3 2.48439 12.3 2.48472 12.3 2.48505C12.3 2.48538 12.3 2.48571 12.3 2.48604C12.3 2.48637 12.3 2.4867 12.3 2.48703C12.3 2.48736 12.3 2.48769 12.3 2.48803C12.3 2.48836 12.3 2.4887 12.3 2.48904C12.3 2.48937 12.3 2.48971 12.3 2.49005C12.3 2.49039 12.3 2.49073 12.3 2.49107C12.3 2.49141 12.3 2.49175 12.3 2.49209C12.3 2.49244 12.3 2.49278 12.3 2.49312C12.3 2.49347 12.3 2.49382 12.3 2.49416C12.3 2.49451 12.3 2.49486 12.3 2.49521C12.3 2.49556 12.3 2.49591 12.3 2.49626C12.3 2.49661 12.3 2.49696 12.3 2.49732C12.3 2.49767 12.3 2.49802 12.3 2.49838C12.3 2.49874 12.3 2.49909 12.3 2.49945C12.3 2.49981 12.3 2.50017 12.3 2.50053C12.3 2.50089 12.3 2.50125 12.3 2.50161C12.3 2.50197 12.3 2.50234 12.3 2.5027C12.3 2.50306 12.3 2.50343 12.3 2.5038C12.3 2.50416 12.3 2.50453 12.3 2.5049C12.3 2.50527 12.3 2.50564 12.3 2.50601C12.3 2.50638 12.3 2.50675 12.3 2.50712C12.3 2.5075 12.3 2.50787 12.3 2.50824C12.3 2.50862 12.3 2.509 12.3 2.50937C12.3 2.50975 12.3 2.51013 12.3 2.51051C12.3 2.51089 12.3 2.51127 12.3 2.51165C12.3 2.51203 12.3 2.51241 12.3 2.5128C12.3 2.51318 12.3 2.51356 12.3 2.51395C12.3 2.51433 12.3 2.51472 12.3 2.51511C12.3 2.5155 12.3 2.51589 12.3 2.51628C12.3 2.51667 12.3 2.51706 12.3 2.51745C12.3 2.51784 12.3 2.51823 12.3 2.51863C12.3 2.51902 12.3 2.51942 12.3 2.51981C12.3 2.52021 12.3 2.52061 12.3 2.52101C12.3 2.5214 12.3 2.5218 12.3 2.5222C12.3 2.52261 12.3 2.52301 12.3 2.52341C12.3 2.52381 12.3 2.52422 12.3 2.52462C12.3 2.52503 12.3 2.52543 12.3 2.52584C12.3 2.52625 12.3 2.52665 12.3 2.52706C12.3 2.52747 12.3 2.52788 12.3 2.52829C12.3 2.5287 12.3 2.52912 12.3 2.52953C12.3 2.52994 12.3 2.53036 12.3 2.53077C12.3 2.53119 12.3 2.53161 12.3 2.53202C12.3 2.53244 12.3 2.53286 12.3 2.53328C12.3 2.5337 12.3 2.53412 12.3 2.53454C12.3 2.53496 12.3 2.53539 12.3 2.53581C12.3 2.53624 12.3 2.53666 12.3 2.53709C12.3 2.53751 12.3 2.53794 12.3 2.53837C12.3 2.5388 12.3 2.53923 12.3 2.53966C12.3 2.54009 12.3 2.54052 12.3 2.54095C12.3 2.54138 12.3 2.54182 12.3 2.54225C12.3 2.54269 12.3 2.54312 12.3 2.54356C12.3 2.544 12.3 2.54444 12.3 2.54487C12.3 2.54531 12.3 2.54575 12.3 2.5462C12.3 2.54664 12.3 2.54708 12.3 2.54752C12.3 2.54797 12.3 2.54841 12.3 2.54886C12.3 2.5493 12.3 2.54975 12.3 2.55019C12.3 2.55064 12.3 2.55109 12.3 2.55154C12.3 2.55199 12.3 2.55244 12.3 2.55289C12.3 2.55334 12.3 2.5538 12.3 2.55425C12.3 2.55471 12.3 2.55516 12.3 2.55562C12.3 2.55607 12.3 2.55653 12.3 2.55699C12.3 2.55745 12.3 2.55791 12.3 2.55837C12.3 2.55883 12.3 2.55929 12.3 2.55975C12.3 2.56021 12.3 2.56068 12.3 2.56114C12.3 2.56161 12.3 2.56207 12.3 2.56254C12.3 2.56301 12.3 2.56347 12.3 2.56394C12.3 2.56441 12.3 2.56488 12.3 2.56535C12.3 2.56582 12.3 2.5663 12.3 2.56677C12.3 2.56724 12.3 2.56772 12.3 2.56819C12.3 2.56867 12.3 2.56914 12.3 2.56962C12.3 2.5701 12.3 2.57058 12.3 2.57106C12.3 2.57154 12.3 2.57202 12.3 2.5725C12.3 2.57298 12.3 2.57346 12.3 2.57395C12.3 2.57443 12.3 2.57492 12.3 2.5754C12.3 2.57589 12.3 2.57638 12.3 2.57686C12.3 2.57735 12.3 2.57784 12.3 2.57833C12.3 2.57882 12.3 2.57931 12.3 2.57981C12.3 2.5803 12.3 2.58079 12.3 2.58129C12.3 2.58178 12.3 2.58228 12.3 2.58277C12.3 2.58327 12.3 2.58377 12.3 2.58427C12.3 2.58477 12.3 2.58527 12.3 2.58577C12.3 2.58627 12.3 2.58677 12.3 2.58727C12.3 2.58778 12.3 2.58828 12.3 2.58879C12.3 2.58929 12.3 2.5898 12.3 2.5903C12.3 2.59081 12.3 2.59132 12.3 2.59183C12.3 2.59234 12.3 2.59285 12.3 2.59336C12.3 2.59387 12.3 2.59439 12.3 2.5949C12.3 2.59541 12.3 2.59593 12.3 2.59644C12.3 2.59696 12.3 2.59748 12.3 2.598C12.3 2.59851 12.3 2.59903 12.3 2.59955C12.3 2.60007 12.3 2.60059 12.3 2.60112C12.3 2.60164 12.3 2.60216 12.3 2.60269C12.3 2.60321 12.3 2.60374 12.3 2.60426C12.3 2.60479 12.3 2.60532 12.3 2.60585C12.3 2.60638 12.3 2.60691 12.3 2.60744C12.3 2.60797 12.3 2.6085 12.3 2.60903C12.3 2.60957 12.3 2.6101 12.3 2.61063C12.3 2.61117 12.3 2.61171 12.3 2.61224C12.3 2.61278 12.3 2.61332 12.3 2.61386C12.3 2.6144 12.3 2.61494 12.3 2.61548C12.3 2.61602 12.3 2.61656 12.3 2.61711C12.3 2.61765 12.3 2.6182 12.3 2.61874C12.3 2.61929 12.3 2.61984 12.3 2.62038C12.3 2.62093 12.3 2.62148 12.3 2.62203C12.3 2.62258 12.3 2.62313 12.3 2.62368C12.3 2.62424 12.3 2.62479 12.3 2.62534C12.3 2.6259 12.3 2.62645 12.3 2.62701C12.3 2.62757 12.3 2.62812 12.3 2.62868C12.3 2.62924 12.3 2.6298 12.3 2.63036C12.3 2.63092 12.3 2.63149 12.3 2.63205C12.3 2.63261 12.3 2.63318 12.3 2.63374C12.3 2.63431 12.3 2.63487 12.3 2.63544C12.3 2.63601 12.3 2.63657 12.3 2.63714C12.3 2.63771 12.3 2.63828 12.3 2.63885C12.3 2.63943 12.3 2.64 12.3 2.64057C12.3 2.64115 12.3 2.64172 12.3 2.6423C12.3 2.64287 12.3 2.64345 12.3 2.64403C12.3 2.6446 12.3 2.64518 12.3 2.64576C12.3 2.64634 12.3 2.64692 12.3 2.64751C12.3 2.64809 12.3 2.64867 12.3 2.64926C12.3 2.64984 12.3 2.65043 12.3 2.65101C12.3 2.6516 12.3 2.65219 12.3 2.65278C12.3 2.65336 12.3 2.65395 12.3 2.65454C12.3 2.65514 12.3 2.65573 12.3 2.65632C12.3 2.65691 12.3 2.65751 12.3 2.6581C12.3 2.6587 12.3 2.65929 12.3 2.65989C12.3 2.66049 12.3 2.66109 12.3 2.66168C12.3 2.66228 12.3 2.66288 12.3 2.66349C12.3 2.66409 12.3 2.66469 12.3 2.66529C12.3 2.6659 12.3 2.6665 12.3 2.66711C12.3 2.66771 12.3 2.66832 12.3 2.66893C12.3 2.66953 12.3 2.67014 12.3 2.67075C12.3 2.67136 12.3 2.67197 12.3 2.67259C12.3 2.6732 12.3 2.67381 12.3 2.67443C12.3 2.67504 12.3 2.67566 12.3 2.67627C12.3 2.67689 12.3 2.67751 12.3 2.67812C12.3 2.67874 12.3 2.67936 12.3 2.67998C12.3 2.6806 12.3 2.68123 12.3 2.68185C12.3 2.68247 12.3 2.68309 12.3 2.68372C12.3 2.68434 12.3 2.68497 12.3 2.6856C12.3 2.68622 12.3 2.68685 12.3 2.68748C12.3 2.68811 12.3 2.68874 12.3 2.68937C12.3 2.69 12.3 2.69064 12.3 2.69127C12.3 2.6919 12.3 2.69254 12.3 2.69317C12.3 2.69381 12.3 2.69445 12.3 2.69508C12.3 2.69572 12.3 2.69636 12.3 2.697C12.3 2.69764 12.3 2.69828 12.3 2.69892C12.3 2.69956 12.3 2.70021 12.3 2.70085C12.3 2.7015 12.3 2.70214 12.3 2.70279C12.3 2.70343 12.3 2.70408 12.3 2.70473C12.3 2.70538 12.3 2.70603 12.3 2.70668C12.3 2.70733 12.3 2.70798 12.3 2.70863C12.3 2.70928 12.3 2.70994 12.3 2.71059C12.3 2.71125 12.3 2.7119 12.3 2.71256C12.3 2.71322 12.3 2.71388 12.3 2.71453C12.3 2.71519 12.3 2.71585 12.3 2.71652C12.3 2.71718 12.3 2.71784 12.3 2.7185C12.3 2.71917 12.3 2.71983 12.3 2.7205C12.3 2.72116 12.3 2.72183 12.3 2.72249C12.3 2.72316 12.3 2.72383 12.3 2.7245C12.3 2.72517 12.3 2.72584 12.3 2.72651C12.3 2.72719 12.3 2.72786 12.3 2.72853C12.3 2.72921 12.3 2.72988 12.3 2.73056C12.3 2.73123 12.3 2.73191 12.3 2.73259C12.3 2.73327 12.3 2.73395 12.3 2.73463C12.3 2.73531 12.3 2.73599 12.3 2.73667C12.3 2.73735 12.3 2.73804 12.3 2.73872C12.3 2.73941 12.3 2.74009 12.3 2.74078C12.3 2.74147 12.3 2.74215 12.3 2.74284C12.3 2.74353 12.3 2.74422 12.3 2.74491C12.3 2.74561 12.3 2.7463 12.3 2.74699C12.3 2.74768 12.3 2.74838 12.3 2.74907C12.3 2.74977 12.3 2.75047 12.3 2.75116C12.3 2.75186 12.3 2.75256 12.3 2.75326C12.3 2.75396 12.3 2.75466 12.3 2.75536C12.3 2.75606 12.3 2.75677 12.3 2.75747C12.3 2.75817 12.3 2.75888 12.3 2.75958C12.3 2.76029 12.3 2.761 12.3 2.76171C12.3 2.76241 12.3 2.76312 12.3 2.76383C12.3 2.76454 12.3 2.76526 12.3 2.76597C12.3 2.76668 12.3 2.76739 12.3 2.76811C12.3 2.76882 12.3 2.76954 12.3 2.77026C12.3 2.77097 12.3 2.77169 12.3 2.77241C12.3 2.77313 12.3 2.77385 12.3 2.77457C12.3 2.77529 12.3 2.77601 12.3 2.77674C12.3 2.77746 12.3 2.77818 12.3 2.77891C12.3 2.77963 12.3 2.78036 12.3 2.78109C12.3 2.78181 12.3 2.78254 12.3 2.78327C12.3 2.784 12.3 2.78473 12.3 2.78546C12.3 2.7862 12.3 2.78693 12.3 2.78766C12.3 2.7884 12.3 2.78913 12.3 2.78987C12.3 2.7906 12.3 2.79134 12.3 2.79208C12.3 2.79282 12.3 2.79356 12.3 2.7943C12.3 2.79504 12.3 2.79578 12.3 2.79652C12.3 2.79726 12.3 2.79801 12.3 2.79875C12.3 2.7995 12.3 2.80024 12.3 2.80099C12.3 2.80173 12.3 2.80248 12.3 2.80323C12.3 2.80398 12.3 2.80473 12.3 2.80548C12.3 2.80623 12.3 2.80698 12.3 2.80774C12.3 2.80849 12.3 2.80924 12.3 2.81C12.3 2.81075 12.3 2.81151 12.3 2.81227C12.3 2.81303 12.3 2.81378 12.3 2.81454C12.3 2.8153 12.3 2.81606 12.3 2.81682C12.3 2.81759 12.3 2.81835 12.3 2.81911C12.3 2.81988 12.3 2.82064 12.3 2.82141C12.3 2.82217 12.3 2.82294 12.3 2.82371C12.3 2.82448 12.3 2.82525 12.3 2.82602C12.3 2.82679 12.3 2.82756 12.3 2.82833C12.3 2.8291 12.3 2.82987 12.3 2.83065C12.3 2.83142 12.3 2.8322 12.3 2.83298C12.3 2.83375 12.3 2.83453 12.3 2.83531C12.3 2.83609 12.3 2.83687 12.3 2.83765C12.3 2.83843 12.3 2.83921 12.3 2.83999C12.3 2.84078 12.3 2.84156 12.3 2.84235C12.3 2.84313 12.3 2.84392 12.3 2.8447C12.3 2.84549 12.3 2.84628 12.3 2.84707C12.3 2.84786 12.3 2.84865 12.3 2.84944C12.3 2.85023 12.3 2.85102 12.3 2.85182C12.3 2.85261 12.3 2.85341 12.3 2.8542C12.3 2.855 12.3 2.8558 12.3 2.85659C12.3 2.85739 12.3 2.85819 12.3 2.85899C12.3 2.85979 12.3 2.86059 12.3 2.86139C12.3 2.8622 12.3 2.863 12.3 2.8638C12.3 2.86461 12.3 2.86541 12.3 2.86622C12.3 2.86703 12.3 2.86783 12.3 2.86864C12.3 2.86945 12.3 2.87026 12.3 2.87107C12.3 2.87188 12.3 2.87269 12.3 2.87351C12.3 2.87432 12.3 2.87513 12.3 2.87595C12.3 2.87676 12.3 2.87758 12.3 2.8784C12.3 2.87921 12.3 2.88003 12.3 2.88085C12.3 2.88167 12.3 2.88249 12.3 2.88331C12.3 2.88413 12.3 2.88496 12.3 2.88578C12.3 2.8866 12.3 2.88743 12.3 2.88825C12.3 2.88908 12.3 2.88991 12.3 2.89073C12.3 2.89156 12.3 2.89239 12.3 2.89322C12.3 2.89405 12.3 2.89488 12.3 2.89571C12.3 2.89655 12.3 2.89738 12.3 2.89821C12.3 2.89905 12.3 2.89988 12.3 2.90072C12.3 2.90156 12.3 2.90239 12.3 2.90323C12.3 2.90407 12.3 2.90491 12.3 2.90575C12.3 2.90659 12.3 2.90743 12.3 2.90828C12.3 2.90912 12.3 2.90996 12.3 2.91081C12.3 2.91165 12.3 2.9125 12.3 2.91335C12.3 2.91419 12.3 2.91504 12.3 2.91589C12.3 2.91674 12.3 2.91759 12.3 2.91844C12.3 2.91929 12.3 2.92014 12.3 2.921C12.3 2.92185 12.3 2.92271 12.3 2.92356C12.3 2.92442 12.3 2.92527 12.3 2.92613C12.3 2.92699 12.3 2.92785 12.3 2.92871C12.3 2.92957 12.3 2.93043 12.3 2.93129C12.3 2.93215 12.3 2.93302 12.3 2.93388C12.3 2.93474 12.3 2.93561 12.3 2.93648C12.3 2.93734 12.3 2.93821 12.3 2.93908C12.3 2.93995 12.3 2.94082 12.3 2.94169C12.3 2.94256 12.3 2.94343 12.3 2.9443C12.3 2.94517 12.3 2.94605 12.3 2.94692C12.3 2.9478 12.3 2.94867 12.3 2.94955C12.3 2.95043 12.3 2.95131 12.3 2.95218C12.3 2.95306 12.3 2.95394 12.3 2.95483C12.3 2.95571 12.3 2.95659 12.3 2.95747C12.3 2.95836 12.3 2.95924 12.3 2.96013C12.3 2.96101 12.3 2.9619 12.3 2.96279C12.3 2.96367 12.3 2.96456 12.3 2.96545C12.3 2.96634 12.3 2.96723 12.3 2.96812C12.3 2.96902 12.3 2.96991 12.3 2.9708C12.3 2.9717 12.3 2.97259 12.3 2.97349C12.3 2.97438 12.3 2.97528 12.3 2.97618C12.3 2.97708 12.3 2.97798 12.3 2.97888C12.3 2.97978 12.3 2.98068 12.3 2.98158C12.3 2.98249 12.3 2.98339 12.3 2.98429C12.3 2.9852 12.3 2.9861 12.3 2.98701C12.3 2.98792 12.3 2.98883 12.3 2.98974C12.3 2.99064 12.3 2.99155 12.3 2.99247C12.3 2.99338 12.3 2.99429 12.3 2.9952C12.3 2.99612 12.3 2.99703 12.3 2.99795C12.3 2.99886 12.3 2.99978 12.3 3.00069C12.3 3.00161 12.3 3.00253 12.3 3.00345C12.3 3.00437 12.3 3.00529 12.3 3.00621C12.3 3.00713 12.3 3.00806 12.3 3.00898C12.3 3.00991 12.3 3.01083 12.3 3.01176C12.3 3.01268 12.3 3.01361 12.3 3.01454C12.3 3.01547 12.3 3.0164 12.3 3.01733C12.3 3.01826 12.3 3.01919 12.3 3.02012C12.3 3.02105 12.3 3.02199 12.3 3.02292C12.3 3.02386 12.3 3.02479 12.3 3.02573C12.3 3.02667 12.3 3.0276 12.3 3.02854C12.3 3.02948 12.3 3.03042 12.3 3.03136C12.3 3.0323 12.3 3.03325 12.3 3.03419C12.3 3.03513 12.3 3.03608 12.3 3.03702C12.3 3.03797 12.3 3.03891 12.3 3.03986C12.3 3.04081 12.3 3.04176 12.3 3.04271C12.3 3.04366 12.3 3.04461 12.3 3.04556C12.3 3.04651 12.3 3.04746 12.3 3.04842C12.3 3.04937 12.3 3.05033 12.3 3.05128C12.3 3.05224 12.3 3.05319 12.3 3.05415C12.3 3.05511 12.3 3.05607 12.3 3.05703C12.3 3.05799 12.3 3.05895 12.3 3.05991C12.3 3.06088 12.3 3.06184 12.3 3.0628C12.3 3.06377 12.3 3.06473 12.3 3.0657C12.3 3.06667 12.3 3.06764 12.3 3.0686C12.3 3.06957 12.3 3.07054 12.3 3.07151C12.3 3.07249 12.3 3.07346 12.3 3.07443C12.3 3.0754 12.3 3.07638 12.3 3.07735C12.3 3.07833 12.3 3.0793 12.3 3.08028C12.3 3.08126 12.3 3.08224 12.3 3.08322C12.3 3.0842 12.3 3.08518 12.3 3.08616C12.3 3.08714 12.3 3.08812 12.3 3.08911C12.3 3.09009 12.3 3.09108 12.3 3.09206C12.3 3.09305 12.3 3.09403 12.3 3.09502C12.3 3.09601 12.3 3.097 12.3 3.09799C12.3 3.09898 12.3 3.09997 12.3 3.10096C12.3 3.10196 12.3 3.10295 12.3 3.10394C12.3 3.10494 12.3 3.10593 12.3 3.10693C12.3 3.10793 12.3 3.10893 12.3 3.10992C12.3 3.11092 12.3 3.11192 12.3 3.11292C12.3 3.11392 12.3 3.11493 12.3 3.11593C12.3 3.11693 12.3 3.11794 12.3 3.11894C12.3 3.11995 12.3 3.12095 12.3 3.12196C12.3 3.12297 12.3 3.12398 12.3 3.12498C12.3 3.12599 12.3 3.127 12.3 3.12802C12.3 3.12903 12.3 3.13004 12.3 3.13105C12.3 3.13207 12.3 3.13308 12.3 3.1341C12.3 3.13511 12.3 3.13613 12.3 3.13715C12.3 3.13817 12.3 3.13919 12.3 3.14021C12.3 3.14123 12.3 3.14225 12.3 3.14327C12.3 3.14429 12.3 3.14532 12.3 3.14634C12.3 3.14736 12.3 3.14839 12.3 3.14942C12.3 3.15044 12.3 3.15147 12.3 3.1525C12.3 3.15353 12.3 3.15456 12.3 3.15559C12.3 3.15662 12.3 3.15765 12.3 3.15868C12.3 3.15972 12.3 3.16075 12.3 3.16179C12.3 3.16282 12.3 3.16386 12.3 3.16489C12.3 3.16593 12.3 3.16697 12.3 3.16801C12.3 3.16905 12.3 3.17009 12.3 3.17113C12.3 3.17217 12.3 3.17321 12.3 3.17426C12.3 3.1753 12.3 3.17635 12.3 3.17739C12.3 3.17844 12.3 3.17948 12.3 3.18053C12.3 3.18158 12.3 3.18263 12.3 3.18368C12.3 3.18473 12.3 3.18578 12.3 3.18683C12.3 3.18788 12.3 3.18894 12.3 3.18999C12.3 3.19105 12.3 3.1921 12.3 3.19316C12.3 3.19421 12.3 3.19527 12.3 3.19633C12.3 3.19739 12.3 3.19845 12.3 3.19951C12.3 3.20057 12.3 3.20163 12.3 3.20269C12.3 3.20376 12.3 3.20482 12.3 3.20589C12.3 3.20695 12.3 3.20802 12.3 3.20908C12.3 3.21015 12.3 3.21122 12.3 3.21229C12.3 3.21336 12.3 3.21443 12.3 3.2155C12.3 3.21657 12.3 3.21764 12.3 3.21872C12.3 3.21979 12.3 3.22086 12.3 3.22194C12.3 3.22302 12.3 3.22409 12.3 3.22517C12.3 3.22625 12.3 3.22733 12.3 3.22841C12.3 3.22949 12.3 3.23057 12.3 3.23165C12.3 3.23273 12.3 3.23382 12.3 3.2349C12.3 3.23598 12.3 3.23707 12.3 3.23816C12.3 3.23924 12.3 3.24033 12.3 3.24142C12.3 3.24251 12.3 3.2436 12.3 3.24469C12.3 3.24578 12.3 3.24687 12.3 3.24796C12.3 3.24905 12.3 3.25015 12.3 3.25124C12.3 3.25234 12.3 3.25343 12.3 3.25453C12.3 3.25563 12.3 3.25673 12.3 3.25782C12.3 3.25892 12.3 3.26002 12.3 3.26113C12.3 3.26223 12.3 3.26333 12.3 3.26443C12.3 3.26554 12.3 3.26664 12.3 3.26775C12.3 3.26885 12.3 3.26996 12.3 3.27107C12.3 3.27217 12.3 3.27328 12.3 3.27439C12.3 3.2755 12.3 3.27661 12.3 3.27772C12.3 3.27884 12.3 3.27995 12.3 3.28106C12.3 3.28218 12.3 3.28329 12.3 3.28441C12.3 3.28553 12.3 3.28664 12.3 3.28776C12.3 3.28888 12.3 3.29 12.3 3.29112C12.3 3.29224 12.3 3.29336 12.3 3.29448C12.3 3.29561 12.3 3.29673 12.3 3.29786C12.3 3.29898 12.3 3.30011 12.3 3.30123C12.3 3.30236 12.3 3.30349 12.3 3.30462C12.3 3.30575 12.3 3.30688 12.3 3.30801C12.3 3.30914 12.3 3.31027 12.3 3.3114C12.3 3.31254 12.3 3.31367 12.3 3.31481C12.3 3.31594 12.3 3.31708 12.3 3.31822C12.3 3.31935 12.3 3.32049 12.3 3.32163C12.3 3.32277 12.3 3.32391 12.3 3.32505C12.3 3.3262 12.3 3.32734 12.3 3.32848C12.3 3.32963 12.3 3.33077 12.3 3.33192C12.3 3.33306 12.3 3.33421 12.3 3.33536C12.3 3.33651 12.3 3.33766 12.3 3.33881C12.3 3.33996 12.3 3.34111 12.3 3.34226C12.3 3.34342 12.3 3.34457 12.3 3.34572C12.3 3.34688 12.3 3.34803 12.3 3.34919C12.3 3.35035 12.3 3.35151 12.3 3.35266C12.3 3.35382 12.3 3.35498 12.3 3.35614C12.3 3.35731 12.3 3.35847 12.3 3.35963C12.3 3.36079 12.3 3.36196 12.3 3.36312C12.3 3.36429 12.3 3.36546 12.3 3.36662C12.3 3.36779 12.3 3.36896 12.3 3.37013C12.3 3.3713 12.3 3.37247 12.3 3.37364C12.3 3.37481 12.3 3.37599 12.3 3.37716C12.3 3.37833 12.3 3.37951 12.3 3.38068C12.3 3.38186 12.3 3.38304 12.3 3.38422C12.3 3.38539 12.3 3.38657 12.3 3.38775C12.3 3.38893 12.3 3.39012 12.3 3.3913C12.3 3.39248 12.3 3.39366 12.3 3.39485C12.3 3.39603 12.3 3.39722 12.3 3.39841C12.3 3.39959 12.3 3.40078 12.3 3.40197C12.3 3.40316 12.3 3.40435 12.3 3.40554C12.3 3.40673 12.3 3.40792 12.3 3.40911C12.3 3.41031 12.3 3.4115 12.3 3.4127C12.3 3.41389 12.3 3.41509 12.3 3.41629C12.3 3.41748 12.3 3.41868 12.3 3.41988C12.3 3.42108 12.3 3.42228 12.3 3.42348C12.3 3.42469 12.3 3.42589 12.3 3.42709C12.3 3.4283 12.3 3.4295 12.3 3.43071C12.3 3.43191 12.3 3.43312 12.3 3.43433C12.3 3.43554 12.3 3.43675 12.3 3.43796C12.3 3.43917 12.3 3.44038 12.3 3.44159C12.3 3.4428 12.3 3.44402 12.3 3.44523C12.3 3.44644 12.3 3.44766 12.3 3.44888C12.3 3.45009 12.3 3.45131 12.3 3.45253C12.3 3.45375 12.3 3.45497 12.3 3.45619C12.3 3.45741 12.3 3.45863 12.3 3.45985C12.3 3.46108 12.3 3.4623 12.3 3.46353C12.3 3.46475 12.3 3.46598 12.3 3.46721C12.3 3.46843 12.3 3.46966 12.3 3.47089C12.3 3.47212 12.3 3.47335 12.3 3.47458C12.3 3.47581 12.3 3.47705 12.3 3.47828C12.3 3.47951 12.3 3.48075 12.3 3.48198C12.3 3.48322 12.3 3.48446 12.3 3.4857C12.3 3.48693 12.3 3.48817 12.3 3.48941C12.3 3.49065 12.3 3.49189 12.3 3.49314C12.3 3.49438 12.3 3.49562 12.3 3.49687C12.3 3.49811 12.3 3.49936 12.3 3.5006C12.3 3.50185 12.3 3.5031 12.3 3.50435C12.3 3.50559 12.3 3.50684 12.3 3.5081C12.3 3.50935 12.3 3.5106 12.3 3.51185C12.3 3.5131 12.3 3.51436 12.3 3.51561C12.3 3.51687 12.3 3.51812 12.3 3.51938C12.3 3.52064 12.3 3.5219 12.3 3.52316C12.3 3.52442 12.3 3.52568 12.3 3.52694C12.3 3.5282 12.3 3.52946 12.3 3.53073C12.3 3.53199 12.3 3.53325 12.3 3.53452C12.3 3.53578 12.3 3.53705 12.3 3.53832C12.3 3.53959 12.3 3.54086 12.3 3.54213C12.3 3.5434 12.3 3.54467 12.3 3.54594C12.3 3.54721 12.3 3.54849 12.3 3.54976C12.3 3.55103 12.3 3.55231 12.3 3.55359C12.3 3.55486 12.3 3.55614 12.3 3.55742C12.3 3.5587 12.3 3.55998 12.3 3.56126C12.3 3.56254 12.3 3.56382 12.3 3.5651C12.3 3.56639 12.3 3.56767 12.3 3.56895C12.3 3.57024 12.3 3.57153 12.3 3.57281C12.3 3.5741 12.3 3.57539 12.3 3.57668C12.3 3.57797 12.3 3.57926 12.3 3.58055C12.3 3.58184 12.3 3.58313 12.3 3.58443C12.3 3.58572 12.3 3.58701 12.3 3.58831C12.3 3.58961 12.3 3.5909 12.3 3.5922C12.3 3.5935 12.3 3.5948 12.3 3.5961C12.3 3.5974 12.3 3.5987 12.3 3.6H14.3ZM14.2998 2.41827L14.2598 0.578266L12.2602 0.621734L12.3002 2.46173L14.2998 2.41827ZM12.791 1.48322C15.8838 3.1254 18.7027 4 21.22 4V2C19.1506 2 16.6628 1.2746 13.729 -0.283217L12.791 1.48322ZM20.2224 2.9304C19.8278 8.58608 18.8033 13.7218 17.1579 18.3447L19.0421 19.0153C20.7567 14.1982 21.8122 8.88058 22.2176 3.0696L20.2224 2.9304ZM17.1588 18.3421C16.7876 19.3763 16.5007 20.0659 16.2962 20.4521L18.0638 21.3879C18.3393 20.8675 18.6658 20.0637 19.0412 19.0179L17.1588 18.3421ZM16.2962 20.4521L15.9362 21.1321L17.7038 22.0679L18.0638 21.3879L16.2962 20.4521ZM16.82 20.6C15.7391 20.6 14.621 20.7952 13.4709 21.169L14.0891 23.071C15.0723 22.7515 15.9809 22.6 16.82 22.6V20.6ZM13.4927 21.1622C12.3908 21.4927 11.4773 21.8537 10.7913 22.2591L11.8087 23.9809C12.296 23.693 13.0359 23.3873 14.0673 23.0778L13.4927 21.1622ZM10.8079 22.2494L9.88794 22.7694L10.8721 24.5106L11.7921 23.9906L10.8079 22.2494ZM11.3255 23.9655C11.9054 22.2811 12.4228 20.2461 12.8818 17.8697L10.9182 17.4903C10.4706 19.8072 9.9746 21.7455 9.43446 23.3145L11.3255 23.9655ZM11.6413 16.7141C10.0762 17.1333 8.67189 17.6978 7.43738 18.4155L8.44262 20.1445C9.50144 19.5289 10.7371 19.0267 12.1587 18.6459L11.6413 16.7141ZM6.9469 19.1627L6.3469 24.2427L8.3331 24.4773L8.9331 19.3973L6.9469 19.1627ZM7.63409 23.4042C7.29794 23.3008 6.85281 23.1568 6.29623 22.9713L5.66377 24.8687C6.22719 25.0565 6.68872 25.2059 7.04591 25.3158L7.63409 23.4042ZM6.29623 22.9713C5.8461 22.8213 5.03317 22.4178 3.8062 21.6976L2.7938 23.4224C4.02017 24.1422 4.9939 24.6454 5.66377 24.8687L6.29623 22.9713ZM3.81995 21.7058C2.67193 21.007 1.85046 20.2767 1.30874 19.5318L-0.308736 20.7082C0.429545 21.7233 1.47474 22.6197 2.78005 23.4142L3.81995 21.7058ZM1.49705 20.1967C1.70722 17.4645 2.07435 14.9252 2.59619 12.5769L0.643813 12.1431C0.0989838 14.5948 -0.280555 17.2288 -0.497054 20.0433L1.49705 20.1967ZM2.59669 12.5747C3.12879 10.1536 3.59387 8.49335 3.98517 7.53956L2.13483 6.78044C1.6728 7.90665 1.17787 9.71308 0.643311 12.1453L2.59669 12.5747ZM3.9767 7.55958L4.6567 5.99958L2.8233 5.20041L2.1433 6.76041L3.9767 7.55958ZM4.2947 6.43205C5.54383 5.59929 7.72115 4.90414 10.9648 4.42946L10.6752 2.45054C7.35885 2.93586 4.81617 3.6807 3.1853 4.76795L4.2947 6.43205ZM9.84829 3.20382C8.90773 7.07354 8.14195 10.9966 7.55087 14.973L9.52913 15.267C10.1114 11.35 10.8656 7.48646 11.7917 3.67618L9.84829 3.20382ZM8.63054 16.1159C10.1744 15.9755 11.577 15.6644 12.8277 15.17L12.0923 13.31C11.0497 13.7222 9.83894 13.9978 8.44946 14.1241L8.63054 16.1159Z" fill="#667085" mask="url(#path-1-outside-1_1145_39133)"/>
<defs>
<linearGradient id="paint0_linear_1145_39133" x1="3.18854" y1="5.52417" x2="18.3218" y2="8.60402" gradientUnits="userSpaceOnUse">
<stop stop-color="#018969"/>
<stop offset="1" stop-color="#01BC90"/>
</linearGradient>
</defs>
</svg>
